<!-- Generator: Adobe Illustrator 19.2.0, SVG Export Plug-In  -->
<svg version="1.1"
	 xmlns="http://www.w3.org/2000/svg" xmlns:xlink="http://www.w3.org/1999/xlink" xmlns:a="http://ns.adobe.com/AdobeSVGViewerExtensions/3.0/"
	 x="0px" y="0px" width="78.1px" height="108.8px" viewBox="0 0 78.1 108.8" style="enable-background:new 0 0 78.1 108.8;"
	 xml:space="preserve">
<style type="text/css">
	.st0{fill:#FFFFFF;stroke:#010101;stroke-width:1.0006;}
	.st1{fill:#D31F26;}
</style>
<defs>
</defs>
<g id="H3" transform="matrix(0.99553774,0,0,0.99680134,-10.596038,318.48631)">
	<g id="g9800-8-2" transform="translate(750.64518,-1434.2756)" inkscape:label="5D">
		<path id="rect9802-4-3" class="st0" d="M-735.8,1115.3h70c2,0,3.7,1.7,3.7,3.7v100.7c0,2-1.7,3.7-3.7,3.7h-70
			c-2,0-3.7-1.7-3.7-3.7V1119C-739.5,1116.9-737.8,1115.3-735.8,1115.3z"/>
	</g>
	<g id="g9820-5-5" transform="translate(1011.0782,-1064)">
	</g>
	<g id="g9826-3-1" transform="translate(1037.6698,-1083.9055)">
	</g>
	<path id="path9834-5-2" inkscape:connector-curvature="0" sodipodi:nodetypes="cccscsccc" class="st1" d="M17.1-294.7
		c0,0-0.8-1.1-1.8-2.4c-0.7-0.9-1.3-1.8-1.3-2.6c-0.1-0.9,0.5-1.9,1.5-1.9c1,0,1.4,0.7,1.6,1.3c0.2-0.6,0.6-1.4,1.6-1.3
		c1,0,1.6,1,1.5,1.9c-0.1,0.8-0.6,1.8-1.3,2.6C17.9-295.8,17.1-294.7,17.1-294.7z"/>
	<path id="path9836-5-8" inkscape:connector-curvature="0" sodipodi:nodetypes="cccscsccc" class="st1" d="M82.6-235.1
		c0,0-0.8,1.1-1.8,2.4c-0.7,0.9-1.3,1.8-1.3,2.6c-0.1,0.9,0.5,1.9,1.5,1.9c1,0,1.4-0.7,1.6-1.3c0.2,0.6,0.6,1.4,1.6,1.3
		c1,0,1.6-1,1.5-1.9c-0.1-0.8-0.6-1.8-1.3-2.6C83.4-234,82.6-235.1,82.6-235.1z"/>
	<path id="path9840-3-6" inkscape:connector-curvature="0" sodipodi:nodetypes="cccscsccc" class="st1" d="M49.9-291
		c0,0-1.6-2.7-3.8-5.8c-1.5-2.1-2.6-4.4-2.7-6.3c-0.1-2.2,1.1-4.5,3.2-4.6c2.1-0.1,3,1.7,3.3,3.2c0.4-1.5,1.2-3.3,3.3-3.2
		c2.1,0.1,3.3,2.3,3.2,4.6c-0.1,1.9-1.3,4.2-2.7,6.3C51.5-293.7,49.9-291,49.9-291z"/>
	<path id="path9850-2-3" inkscape:connector-curvature="0" sodipodi:nodetypes="cccscsccc" class="st1" d="M49.9-256.6
		c0,0-1.6-2.7-3.8-5.8c-1.5-2.1-2.6-4.4-2.7-6.3c-0.1-2.2,1.1-4.5,3.2-4.6c2.1-0.1,3,1.7,3.3,3.2c0.4-1.5,1.2-3.3,3.3-3.2
		c2.1,0.1,3.3,2.3,3.2,4.6c-0.1,1.9-1.3,4.2-2.7,6.3C51.5-259.3,49.9-256.6,49.9-256.6z"/>
	<path id="path9854-8-0" inkscape:connector-curvature="0" sodipodi:nodetypes="cccscsccc" class="st1" d="M49.9-238.9
		c0,0-1.6,2.7-3.8,5.8c-1.5,2.1-2.6,4.4-2.7,6.3c-0.1,2.2,1.1,4.5,3.2,4.6c2.1,0.1,3-1.7,3.3-3.2c0.4,1.5,1.2,3.3,3.3,3.2
		c2.1-0.1,3.3-2.3,3.2-4.6c-0.1-1.9-1.3-4.2-2.7-6.3C51.5-236.2,49.9-238.9,49.9-238.9z"/>
	<path id="path17-2-9-8-4" inkscape:connector-curvature="0" class="st1" d="M13.4-305.3l0.9-0.6c0.8,1.2,1.6,2.1,2.9,1.9
		c2-0.1,2.8-2.2,2.4-3.7c-0.4-1.4-2-2.1-3.3-1.3c-0.3,0.2-0.6,0.3-0.7,0.3c-0.1,0-0.4-0.6-0.4-0.8c0.9-1.3,3-3.5,3-3.5h-3.3v1.5
		h-1.3v-2.7h6.4v0.9c0,0-1.7,1.8-2.3,2.8c1.4,0.1,2.5,0.9,2.9,2.3c0.2,0.7,0.1,2.4-0.2,3.2c-0.5,1.2-1.9,2.2-3.2,2.3
		C15.1-302.6,14-304.1,13.4-305.3L13.4-305.3L13.4-305.3z"/>
	<path id="path17-5-3-9-1-3" inkscape:connector-curvature="0" class="st1" d="M86.3-224.6l-0.9,0.6c-0.8-1.2-1.6-2.1-2.9-1.9
		c-2,0.1-2.8,2.2-2.4,3.7c0.4,1.4,2,2.1,3.3,1.3c0.3-0.2,0.6-0.3,0.7-0.3c0.1,0,0.4,0.6,0.4,0.8c-0.9,1.3-3,3.5-3,3.5h3.3v-1.5h1.3
		v2.7h-6.4v-0.9c0,0,1.7-1.8,2.3-2.8c-1.4-0.1-2.5-0.9-2.9-2.3c-0.2-0.7-0.1-2.4,0.2-3.2c0.5-1.2,1.9-2.2,3.2-2.3
		C84.6-227.3,85.7-225.7,86.3-224.6L86.3-224.6L86.3-224.6z"/>
</g>
</svg>
 