<!-- Generator: Adobe Illustrator 19.2.0, SVG Export Plug-In  -->
<svg version="1.1"
	 xmlns="http://www.w3.org/2000/svg" xmlns:xlink="http://www.w3.org/1999/xlink" xmlns:a="http://ns.adobe.com/AdobeSVGViewerExtensions/3.0/"
	 x="0px" y="0px" width="78.1px" height="108.8px" viewBox="0 0 78.1 108.8" style="enable-background:new 0 0 78.1 108.8;"
	 xml:space="preserve">
<style type="text/css">
	.st0{fill:#FFFFFF;stroke:#010101;stroke-width:1.0006;}
	.st1{fill:#D31F26;}
</style>
<defs>
</defs>
<g id="D4" transform="matrix(0.99553491,0,0,0.99680337,9.0954445,-8.1397402)">
	<path id="rect6622-5" class="st0" d="M-4.9,8.7h70c2,0,3.7,1.7,3.7,3.7v100.7c0,2-1.7,3.7-3.7,3.7h-70c-2,0-3.7-1.7-3.7-3.7
		V12.4C-8.6,10.3-7,8.7-4.9,8.7z"/>
	<path id="path6654-0" inkscape:connector-curvature="0" class="st1" d="M-2.7,32.9c-0.7-1.2-1.5-2.4-2.5-3.5
		c1-1,1.8-2.2,2.5-3.5c0.7,1.2,1.5,2.4,2.5,3.5C-1.1,30.5-1.9,31.7-2.7,32.9z"/>
	<path id="path6656-6" inkscape:connector-curvature="0" class="st1" d="M48,36.7c-1.8-3-3.7-5.9-6.1-8.3
		c2.4-2.5,4.3-5.4,6.1-8.3c1.8,3,3.7,5.9,6.1,8.3C51.7,30.8,49.8,33.7,48,36.7z"/>
	<path id="path6658-8" inkscape:connector-curvature="0" class="st1" d="M62.8,99.5c-0.7-1.2-1.5-2.4-2.5-3.5
		c1-1,1.8-2.2,2.5-3.5c0.7,1.2,1.5,2.4,2.5,3.5C64.3,97,63.6,98.2,62.8,99.5z"/>
	<path id="path6660-7" inkscape:connector-curvature="0" class="st1" d="M12.1,36.7c-1.8-3-3.7-5.9-6.1-8.3
		c2.4-2.5,4.3-5.4,6.1-8.3c1.8,3,3.7,5.9,6.1,8.3C15.8,30.8,13.9,33.7,12.1,36.7z"/>
	<path id="path6676-4" inkscape:connector-curvature="0" class="st1" d="M12.1,105.5c-1.8-3-3.7-5.9-6.1-8.3
		c2.4-2.5,4.3-5.4,6.1-8.3c1.8,3,3.7,5.9,6.1,8.3C15.8,99.6,13.9,102.5,12.1,105.5z"/>
	<path id="path6678-8" inkscape:connector-curvature="0" class="st1" d="M48,105.5c-1.8-3-3.7-5.9-6.1-8.3
		c2.4-2.5,4.3-5.4,6.1-8.3c1.8,3,3.7,5.9,6.1,8.3C51.7,99.6,49.8,102.5,48,105.5z"/>
	<path id="path19-3-1-9-0" inkscape:connector-curvature="0" class="st1" d="M-2.6,24.9v-1h0.9v-1.7h-4.6v-1.2l4.9-7.6l0.8,0v7.6
		h1.4v1.2h-1.4l0,1.7h0.8v1L-2.6,24.9L-2.6,24.9z M-1.7,16.2l-3.1,4.8h3.1V16.2z"/>
	<path id="path19-4-46-7-7" inkscape:connector-curvature="0" class="st1" d="M62.7,100.6v1h-0.9v1.7h4.6v1.2l-4.9,7.6l-0.8,0
		v-7.6h-1.4v-1.2h1.4l0-1.7h-0.8v-1L62.7,100.6L62.7,100.6z M61.8,109.2l3.1-4.8h-3.1V109.2z"/>
</g>
</svg>
        