<!-- Generator: Adobe Illustrator 19.2.0, SVG Export Plug-In  -->
<svg version="1.1"
	 xmlns="http://www.w3.org/2000/svg" xmlns:xlink="http://www.w3.org/1999/xlink" xmlns:a="http://ns.adobe.com/AdobeSVGViewerExtensions/3.0/"
	 x="0px" y="0px" width="78.1px" height="108.8px" viewBox="0 0 78.1 108.8" style="enable-background:new 0 0 78.1 108.8;"
	 xml:space="preserve">
<style type="text/css">
	.st0{fill:#FFFFFF;stroke:#010101;stroke-width:1.0006;}
	.st1{fill:#D31F26;}
</style>
<defs>
</defs>
<g id="D5" transform="matrix(0.99553491,0,0,0.99680337,9.2783608,-8.1397402)">
	<path id="rect6690-8" class="st0" d="M-5.1,8.7h70c2,0,3.7,1.7,3.7,3.7v100.7c0,2-1.7,3.7-3.7,3.7h-70c-2,0-3.7-1.7-3.7-3.7
		V12.4C-8.8,10.3-7.2,8.7-5.1,8.7z"/>
	<path id="path6722-9" inkscape:connector-curvature="0" class="st1" d="M-2.8,32.9c-0.7-1.2-1.5-2.4-2.5-3.5
		c1-1,1.8-2.2,2.5-3.5c0.7,1.2,1.5,2.4,2.5,3.5C-1.3,30.5-2.1,31.7-2.8,32.9z"/>
	<path id="path6724-6" inkscape:connector-curvature="0" class="st1" d="M47.8,36.7c-1.8-3-3.7-5.9-6.1-8.3
		c2.4-2.5,4.3-5.4,6.1-8.3c1.8,3,3.7,5.9,6.1,8.3C51.5,30.8,49.6,33.7,47.8,36.7z"/>
	<path id="path6726-3" inkscape:connector-curvature="0" class="st1" d="M62.6,99.5c-0.7-1.2-1.5-2.4-2.5-3.5
		c1-1,1.8-2.2,2.5-3.5c0.7,1.2,1.5,2.4,2.5,3.5C64.2,97,63.4,98.2,62.6,99.5z"/>
	<path id="path6728-7" inkscape:connector-curvature="0" class="st1" d="M11.9,36.7c-1.8-3-3.7-5.9-6.1-8.3
		c2.4-2.5,4.3-5.4,6.1-8.3c1.8,3,3.7,5.9,6.1,8.3C15.6,30.8,13.7,33.7,11.9,36.7z"/>
	<path id="path6736-0" inkscape:connector-curvature="0" class="st1" d="M29.9,71.1c-1.8-3-3.7-5.9-6.1-8.3
		c2.4-2.5,4.3-5.4,6.1-8.3c1.8,3,3.7,5.9,6.1,8.3C33.6,65.2,31.7,68.1,29.9,71.1z"/>
	<path id="path6744-9" inkscape:connector-curvature="0" class="st1" d="M11.9,105.5c-1.8-3-3.7-5.9-6.1-8.3
		c2.4-2.5,4.3-5.4,6.1-8.3c1.8,3,3.7,5.9,6.1,8.3C15.6,99.6,13.7,102.5,11.9,105.5z"/>
	<path id="path6746-2" inkscape:connector-curvature="0" class="st1" d="M47.8,105.5c-1.8-3-3.7-5.9-6.1-8.3
		c2.4-2.5,4.3-5.4,6.1-8.3c1.8,3,3.7,5.9,6.1,8.3C51.5,99.6,49.6,102.5,47.8,105.5z"/>
	<path id="path21-9-8-2-7" inkscape:connector-curvature="0" class="st1" d="M-6.5,21.9l1.1,0c0.2,0.7,0.7,1.4,1.3,1.6
		c1.8,0.4,3-0.6,3.4-1.8c0.5-1.4,0-3.5-1.3-4.2c-1-0.6-2.6-0.1-3.3,1.2L-6,18.2l0.4-4.8h5.1v1.1h-4.2l-0.1,2
		c0.9-0.6,2.3-0.6,3.2-0.2c1.7,0.8,2.5,2.7,2.2,4.9c-0.5,2.2-1.5,3.4-3.7,3.6C-5.6,24.9-6.5,23.2-6.5,21.9L-6.5,21.9L-6.5,21.9z"/>
	<path id="path21-3-0-8-6" inkscape:connector-curvature="0" class="st1" d="M66.2,103.5l-1.1,0c-0.2-0.7-0.7-1.4-1.3-1.6
		c-1.8-0.4-3,0.6-3.4,1.8c-0.5,1.4,0,3.5,1.3,4.2c1,0.6,2.6,0.1,3.3-1.2l0.8,0.5l-0.4,4.8h-5.1v-1.1h4.2l0.1-2
		c-0.9,0.6-2.3,0.6-3.2,0.2c-1.7-0.8-2.5-2.7-2.2-4.9c0.5-2.2,1.5-3.4,3.7-3.6C65.3,100.5,66.2,102.3,66.2,103.5L66.2,103.5
		L66.2,103.5z"/>
</g>
</svg>
