<!-- Generator: Adobe Illustrator 19.2.0, SVG Export Plug-In  -->
<svg version="1.1"
	 xmlns="http://www.w3.org/2000/svg" xmlns:xlink="http://www.w3.org/1999/xlink" xmlns:a="http://ns.adobe.com/AdobeSVGViewerExtensions/3.0/"
	 x="0px" y="0px" width="78.1px" height="108.8px" viewBox="0 0 78.1 108.8" style="enable-background:new 0 0 78.1 108.8;"
	 xml:space="preserve">
<style type="text/css">
	.st0{fill:#FFFFFF;stroke:#010101;stroke-width:1.0006;}
	.st1{fill:#D31F26;}
</style>
<defs>
</defs>
<g id="D6" transform="matrix(0.99553491,0,0,0.99680337,9.4615202,-8.1397402)">
	<path id="rect6758-6" class="st0" d="M-5.3,8.7h70c2,0,3.7,1.7,3.7,3.7v100.7c0,2-1.7,3.7-3.7,3.7h-70c-2,0-3.7-1.7-3.7-3.7
		V12.4C-9,10.3-7.3,8.7-5.3,8.7z"/>
	<path id="path6790-5" inkscape:connector-curvature="0" class="st1" d="M-3,32.9c-0.7-1.2-1.5-2.4-2.5-3.5c1-1,1.8-2.2,2.5-3.5
		c0.7,1.2,1.5,2.4,2.5,3.5C-1.5,30.5-2.3,31.7-3,32.9z"/>
	<path id="path6792-5" inkscape:connector-curvature="0" class="st1" d="M47.7,36.7c-1.8-3-3.7-5.9-6.1-8.3
		c2.4-2.5,4.3-5.4,6.1-8.3c1.8,3,3.7,5.9,6.1,8.3C51.3,30.8,49.5,33.7,47.7,36.7z"/>
	<path id="path6794-1" inkscape:connector-curvature="0" class="st1" d="M62.4,99.5c-0.7-1.2-1.5-2.4-2.5-3.5
		c1-1,1.8-2.2,2.5-3.5C63.2,93.8,64,95,65,96C64,97,63.2,98.2,62.4,99.5z"/>
	<path id="path6796-2" inkscape:connector-curvature="0" class="st1" d="M11.8,36.7c-1.8-3-3.7-5.9-6.1-8.3
		C8.1,25.9,10,23,11.8,20c1.8,3,3.7,5.9,6.1,8.3C15.4,30.8,13.6,33.7,11.8,36.7z"/>
	<path id="path6806-6" inkscape:connector-curvature="0" class="st1" d="M11.8,71c-1.8-3-3.7-5.9-6.1-8.3
		c2.4-2.5,4.3-5.4,6.1-8.3c1.8,3,3.7,5.9,6.1,8.3C15.4,65.2,13.6,68.1,11.8,71z"/>
	<path id="path6808-6" inkscape:connector-curvature="0" class="st1" d="M47.7,71c-1.8-3-3.7-5.9-6.1-8.3
		c2.4-2.5,4.3-5.4,6.1-8.3c1.8,3,3.7,5.9,6.1,8.3C51.3,65.2,49.5,68.1,47.7,71z"/>
	<path id="path6812-0" inkscape:connector-curvature="0" class="st1" d="M11.8,105.5c-1.8-3-3.7-5.9-6.1-8.3
		c2.4-2.5,4.3-5.4,6.1-8.3c1.8,3,3.7,5.9,6.1,8.3C15.4,99.6,13.6,102.5,11.8,105.5z"/>
	<path id="path6814-4" inkscape:connector-curvature="0" class="st1" d="M47.7,105.5c-1.8-3-3.7-5.9-6.1-8.3
		c2.4-2.5,4.3-5.4,6.1-8.3c1.8,3,3.7,5.9,6.1,8.3C51.3,99.6,49.5,102.5,47.7,105.5z"/>
	<path id="path23-5-3-5-5" inkscape:connector-curvature="0" class="st1" d="M-6.4,21.4c-0.1-1-0.1-3.5,0-4.2
		c0.4-2.3,1.2-3.3,2.7-3.6c1.4-0.3,3.4,0,3.8,1.9l-1.2,0c-0.6-1.3-2.2-0.9-3.1-0.4c-0.7,0.4-1,2.3-0.9,2.4c0,0,1.4-1,2.4-0.9
		c2.3,0.2,3.2,2.2,3.2,4.1c-0.1,2.3-0.8,4.1-3.2,4.2C-5.1,24.8-6.2,23.6-6.4,21.4L-6.4,21.4L-6.4,21.4z M-0.7,20.8
		c0-1.6-0.7-2.7-2-2.9c-1.3-0.1-2.7,1.2-2.6,2.8c0.1,1.6,0.7,3,2.4,3C-1.2,23.6-0.7,21.9-0.7,20.8C-0.7,20.8-0.7,20.8-0.7,20.8z"/>
	<path id="path23-6-5-6-6" inkscape:connector-curvature="0" class="st1" d="M65.8,104.1c0.1,1,0.1,3.5,0,4.2
		c-0.4,2.3-1.2,3.3-2.7,3.6c-1.4,0.3-3.4,0-3.8-1.9l1.2,0c0.6,1.3,2.2,0.9,3.1,0.4c0.7-0.4,1-2.3,0.9-2.4c0,0-1.4,1-2.4,0.9
		c-2.3-0.2-3.2-2.2-3.2-4.1c0.1-2.3,0.8-4.1,3.2-4.2C64.5,100.6,65.6,101.9,65.8,104.1L65.8,104.1L65.8,104.1z M60.1,104.7
		c0,1.6,0.7,2.7,2,2.9c1.3,0.1,2.7-1.2,2.6-2.8c-0.1-1.6-0.7-3-2.4-3C60.6,101.8,60.1,103.6,60.1,104.7L60.1,104.7z"/>
</g>
</svg>
