<!-- Generator: Adobe Illustrator 19.2.0, SVG Export Plug-In  -->
<svg version="1.1"
	 xmlns="http://www.w3.org/2000/svg" xmlns:xlink="http://www.w3.org/1999/xlink" xmlns:a="http://ns.adobe.com/AdobeSVGViewerExtensions/3.0/"
	 x="0px" y="0px" width="78.1px" height="108.8px" viewBox="0 0 78.1 108.8" style="enable-background:new 0 0 78.1 108.8;"
	 xml:space="preserve">
<style type="text/css">
	.st0{fill:#FFFFFF;stroke:#010101;stroke-width:1.0006;}
	.st1{fill:#D31F26;}
</style>
<defs>
</defs>
<g id="D7" transform="matrix(0.99553491,0,0,0.99680337,9.6446796,-8.1397402)">
	<path id="rect6826-9" class="st0" d="M-5.5,8.7h70c2,0,3.7,1.7,3.7,3.7v100.7c0,2-1.7,3.7-3.7,3.7h-70c-2,0-3.7-1.7-3.7-3.7
		V12.4C-9.2,10.3-7.5,8.7-5.5,8.7z"/>
	<path id="path6858-4" inkscape:connector-curvature="0" class="st1" d="M-3.2,32.9c-0.7-1.2-1.5-2.4-2.5-3.5
		c1-1,1.8-2.2,2.5-3.5c0.7,1.2,1.5,2.4,2.5,3.5C-1.7,30.5-2.5,31.7-3.2,32.9z"/>
	<path id="path6860-1" inkscape:connector-curvature="0" class="st1" d="M47.5,36.7c-1.8-3-3.7-5.9-6.1-8.3
		c2.4-2.5,4.3-5.4,6.1-8.3c1.8,3,3.7,5.9,6.1,8.3C51.2,30.8,49.3,33.7,47.5,36.7z"/>
	<path id="path6862-0" inkscape:connector-curvature="0" class="st1" d="M62.3,99.5c-0.7-1.2-1.5-2.4-2.5-3.5
		c1-1,1.8-2.2,2.5-3.5c0.7,1.2,1.5,2.4,2.5,3.5C63.8,97,63,98.2,62.3,99.5z"/>
	<path id="path6864-5" inkscape:connector-curvature="0" class="st1" d="M11.6,36.7c-1.8-3-3.7-5.9-6.1-8.3
		c2.4-2.5,4.3-5.4,6.1-8.3c1.8,3,3.7,5.9,6.1,8.3C15.3,30.8,13.4,33.7,11.6,36.7z"/>
	<path id="path6870-5" inkscape:connector-curvature="0" class="st1" d="M29.5,53.8c-1.8-3-3.7-5.9-6.1-8.3
		c2.4-2.5,4.3-5.4,6.1-8.3c1.8,3,3.7,5.9,6.1,8.3C33.2,48,31.3,50.9,29.5,53.8z"/>
	<path id="path6874-1" inkscape:connector-curvature="0" class="st1" d="M11.6,71c-1.8-3-3.7-5.9-6.1-8.3
		c2.4-2.5,4.3-5.4,6.1-8.3c1.8,3,3.7,5.9,6.1,8.3C15.3,65.2,13.4,68.1,11.6,71z"/>
	<path id="path6876-6" inkscape:connector-curvature="0" class="st1" d="M47.5,71c-1.8-3-3.7-5.9-6.1-8.3
		c2.4-2.5,4.3-5.4,6.1-8.3c1.8,3,3.7,5.9,6.1,8.3C51.2,65.2,49.3,68.1,47.5,71z"/>
	<path id="path6880-5" inkscape:connector-curvature="0" class="st1" d="M11.6,105.5c-1.8-3-3.7-5.9-6.1-8.3
		c2.4-2.5,4.3-5.4,6.1-8.3c1.8,3,3.7,5.9,6.1,8.3C15.3,99.6,13.4,102.5,11.6,105.5z"/>
	<path id="path6882-9" inkscape:connector-curvature="0" class="st1" d="M47.5,105.5c-1.8-3-3.7-5.9-6.1-8.3
		c2.4-2.5,4.3-5.4,6.1-8.3c1.8,3,3.7,5.9,6.1,8.3C51.2,99.6,49.3,102.5,47.5,105.5z"/>
	<path id="path25-43-4-8-8" inkscape:connector-curvature="0" class="st1" d="M-5,24.9c0.8-4,1.6-7,3.7-10.2h-4.3v1.4h-1.1v-2.6
		h6.3l0.8,1.2C-1.9,17.1-4,25-3.6,24.9C-3.6,24.9-5,24.9-5,24.9z"/>
	<path id="path25-7-0-7-6" inkscape:connector-curvature="0" class="st1" d="M64,100.6c-0.8,4-1.6,7-3.7,10.2h4.3v-1.4h1.1v2.6
		h-6.3l-0.8-1.2c2.2-2.4,4.3-10.3,3.9-10.2H64z"/>
</g>
</svg>
