<!-- Generator: Adobe Illustrator 19.2.0, SVG Export Plug-In  -->
<svg version="1.1"
	 xmlns="http://www.w3.org/2000/svg" xmlns:xlink="http://www.w3.org/1999/xlink" xmlns:a="http://ns.adobe.com/AdobeSVGViewerExtensions/3.0/"
	 x="0px" y="0px" width="78.1px" height="108.8px" viewBox="0 0 78.1 108.8" style="enable-background:new 0 0 78.1 108.8;"
	 xml:space="preserve">
<style type="text/css">
	.st0{fill:#FFFFFF;stroke:#010101;stroke-width:1.0006;}
	.st1{fill:#D31F26;}
</style>
<defs>
</defs>
<g id="D8" transform="matrix(0.99553491,0,0,0.99680337,9.8277174,-8.1397402)">
	<path id="rect6894-2" class="st0" d="M-5.7,8.7h70c2,0,3.7,1.7,3.7,3.7v100.7c0,2-1.7,3.7-3.7,3.7h-70c-2,0-3.7-1.7-3.7-3.7
		V12.4C-9.4,10.3-7.7,8.7-5.7,8.7z"/>
	<path id="path6926-2" inkscape:connector-curvature="0" class="st1" d="M-3.4,32.9c-0.7-1.2-1.5-2.4-2.5-3.5
		c1-1,1.8-2.2,2.5-3.5c0.7,1.2,1.5,2.4,2.5,3.5C-1.9,30.5-2.6,31.7-3.4,32.9z"/>
	<path id="path6928-9" inkscape:connector-curvature="0" class="st1" d="M47.3,36.7c-1.8-3-3.7-5.9-6.1-8.3
		c2.4-2.5,4.3-5.4,6.1-8.3c1.8,3,3.7,5.9,6.1,8.3C51,30.8,49.1,33.7,47.3,36.7z"/>
	<path id="path6930-6" inkscape:connector-curvature="0" class="st1" d="M62.1,99.5c-0.7-1.2-1.5-2.4-2.5-3.5
		c1-1,1.8-2.2,2.5-3.5c0.7,1.2,1.5,2.4,2.5,3.5C63.6,97,62.8,98.2,62.1,99.5z"/>
	<path id="path6932-2" inkscape:connector-curvature="0" class="st1" d="M11.4,36.7c-1.8-3-3.7-5.9-6.1-8.3
		c2.4-2.5,4.3-5.4,6.1-8.3c1.8,3,3.7,5.9,6.1,8.3C15.1,30.8,13.2,33.7,11.4,36.7z"/>
	<path id="path6938-4" inkscape:connector-curvature="0" class="st1" d="M29.3,53.8c-1.8-3-3.7-5.9-6.1-8.3
		c2.4-2.5,4.3-5.4,6.1-8.3c1.8,3,3.7,5.9,6.1,8.3C33,48,31.1,50.9,29.3,53.8z"/>
	<path id="path6942-4" inkscape:connector-curvature="0" class="st1" d="M11.4,71c-1.8-3-3.7-5.9-6.1-8.3
		c2.4-2.5,4.3-5.4,6.1-8.3c1.8,3,3.7,5.9,6.1,8.3C15.1,65.2,13.2,68.1,11.4,71z"/>
	<path id="path6944-9" inkscape:connector-curvature="0" class="st1" d="M47.3,71c-1.8-3-3.7-5.9-6.1-8.3
		c2.4-2.5,4.3-5.4,6.1-8.3c1.8,3,3.7,5.9,6.1,8.3C51,65.2,49.1,68.1,47.3,71z"/>
	<path id="path6948-4" inkscape:connector-curvature="0" class="st1" d="M11.4,105.5c-1.8-3-3.7-5.9-6.1-8.3
		c2.4-2.5,4.3-5.4,6.1-8.3c1.8,3,3.7,5.9,6.1,8.3C15.1,99.6,13.2,102.5,11.4,105.5z"/>
	<path id="path6950-4" inkscape:connector-curvature="0" class="st1" d="M47.3,105.5c-1.8-3-3.7-5.9-6.1-8.3
		c2.4-2.5,4.3-5.4,6.1-8.3c1.8,3,3.7,5.9,6.1,8.3C51,99.6,49.1,102.5,47.3,105.5z"/>
	<path id="path6956-4" inkscape:connector-curvature="0" class="st1" d="M29.3,88.3c-1.8-3-3.7-5.9-6.1-8.3
		c2.4-2.5,4.3-5.4,6.1-8.3c1.8,3,3.7,5.9,6.1,8.3C33,82.4,31.1,85.3,29.3,88.3z"/>
	<path id="path27-00-7-8-6" inkscape:connector-curvature="0" class="st1" d="M-7.1,21.6c0.1-1.5,0.6-2.1,1.7-2.9
		c-0.9-0.6-1.2-1.6-1.2-2.3c0.2-1.9,1.7-2.9,3.3-2.8c1.6,0,3,1.3,3.1,2.7c0.1,1.2-0.3,1.8-1.1,2.4c1,0.9,1.7,1.4,1.6,2.9
		c0,1.5-1.3,3.3-3.6,3.4C-5.5,25-7.2,23.1-7.1,21.6L-7.1,21.6L-7.1,21.6z M-0.9,21.6c0.1-1.4-1.1-2.3-2.5-2.3
		c-1.4,0-2.6,1.1-2.6,2.4c0,1.3,1.6,2.1,2.6,2.1C-2.1,23.7-0.9,22.8-0.9,21.6L-0.9,21.6z M-1.3,16.6c0-1.2-1.1-2-2.2-2
		c-1,0-2,0.8-2,1.8c0,1.2,1.2,1.8,2.2,1.9C-2.4,18.3-1.3,17.5-1.3,16.6L-1.3,16.6L-1.3,16.6z"/>
	<path id="path27-0-1-9-8" inkscape:connector-curvature="0" class="st1" d="M58.4,103.9c0.1,1.5,0.6,2.1,1.7,2.9
		c-0.9,0.6-1.2,1.6-1.2,2.3c0.2,1.9,1.7,2.9,3.3,2.8c1.6,0,3-1.3,3.1-2.7c0.1-1.2-0.3-1.8-1.1-2.4c1-0.9,1.7-1.4,1.6-2.9
		c0-1.5-1.3-3.3-3.6-3.4C60,100.5,58.3,102.4,58.4,103.9L58.4,103.9L58.4,103.9z M64.6,103.9c0.1,1.4-1.1,2.3-2.5,2.3
		c-1.4,0-2.6-1.1-2.6-2.4c0-1.3,1.6-2.1,2.6-2.1C63.4,101.8,64.5,102.7,64.6,103.9L64.6,103.9L64.6,103.9z M64.2,108.9
		c0,1.2-1.1,2-2.2,2c-1,0-2-0.8-2-1.8c0-1.2,1.2-1.8,2.2-1.9C63.1,107.2,64.2,108,64.2,108.9L64.2,108.9L64.2,108.9z"/>
</g>
</svg>
