<!-- Generator: Adobe Illustrator 19.2.0, SVG Export Plug-In  -->
<svg version="1.1"
	 xmlns="http://www.w3.org/2000/svg" xmlns:xlink="http://www.w3.org/1999/xlink" xmlns:a="http://ns.adobe.com/AdobeSVGViewerExtensions/3.0/"
	 x="0px" y="0px" width="78.1px" height="108.8px" viewBox="0 0 78.1 108.8" style="enable-background:new 0 0 78.1 108.8;"
	 xml:space="preserve">
<style type="text/css">
	.st0{fill:#FFFFFF;stroke:#010101;stroke-width:1.0006;}
	.st1{fill:#D31F26;}
</style>
<defs>
</defs>
<g id="D9" transform="matrix(0.99553491,0,0,0.99680337,10.010755,-8.1397402)">
	<path id="rect6962-4" class="st0" d="M-5.9,8.7h70c2,0,3.7,1.7,3.7,3.7v100.7c0,2-1.7,3.7-3.7,3.7h-70c-2,0-3.7-1.7-3.7-3.7
		V12.4C-9.6,10.3-7.9,8.7-5.9,8.7z"/>
	<path id="path6994-9" inkscape:connector-curvature="0" class="st1" d="M-3.6,32.9c-0.7-1.2-1.5-2.4-2.5-3.5
		c1-1,1.8-2.2,2.5-3.5c0.7,1.2,1.5,2.4,2.5,3.5C-2,30.5-2.8,31.7-3.6,32.9z"/>
	<path id="path6996-5" inkscape:connector-curvature="0" class="st1" d="M47.1,36.7c-1.8-3-3.7-5.9-6.1-8.3
		c2.4-2.5,4.3-5.4,6.1-8.3c1.8,3,3.7,5.9,6.1,8.3C50.8,30.8,48.9,33.7,47.1,36.7z"/>
	<path id="path6998-7" inkscape:connector-curvature="0" class="st1" d="M61.9,99.5c-0.7-1.2-1.5-2.4-2.5-3.5
		c1-1,1.8-2.2,2.5-3.5c0.7,1.2,1.5,2.4,2.5,3.5C63.4,97,62.6,98.2,61.9,99.5z"/>
	<path id="path7000-7" inkscape:connector-curvature="0" class="st1" d="M11.2,36.7c-1.8-3-3.7-5.9-6.1-8.3
		c2.4-2.5,4.3-5.4,6.1-8.3c1.8,3,3.7,5.9,6.1,8.3C14.9,30.8,13,33.7,11.2,36.7z"/>
	<path id="path7002-0" inkscape:connector-curvature="0" class="st1" d="M47.1,59.6c-1.8-3-3.7-5.9-6.1-8.3
		c2.4-2.5,4.3-5.4,6.1-8.3c1.8,3,3.7,5.9,6.1,8.3C50.8,53.7,48.9,56.6,47.1,59.6z"/>
	<path id="path7004-0" inkscape:connector-curvature="0" class="st1" d="M11.2,59.6c-1.8-3-3.7-5.9-6.1-8.3
		c2.4-2.5,4.3-5.4,6.1-8.3c1.8,3,3.7,5.9,6.1,8.3C14.9,53.7,13,56.6,11.2,59.6z"/>
	<path id="path7008-2" inkscape:connector-curvature="0" class="st1" d="M29.2,71.1c-1.8-3-3.7-5.9-6.1-8.3
		c2.4-2.5,4.3-5.4,6.1-8.3c1.8,3,3.7,5.9,6.1,8.3C32.8,65.2,31,68.1,29.2,71.1z"/>
	<path id="path7016-2" inkscape:connector-curvature="0" class="st1" d="M11.2,105.5c-1.8-3-3.7-5.9-6.1-8.3
		c2.4-2.5,4.3-5.4,6.1-8.3c1.8,3,3.7,5.9,6.1,8.3C14.9,99.6,13,102.5,11.2,105.5z"/>
	<path id="path7018-0" inkscape:connector-curvature="0" class="st1" d="M47.1,105.5c-1.8-3-3.7-5.9-6.1-8.3
		c2.4-2.5,4.3-5.4,6.1-8.3c1.8,3,3.7,5.9,6.1,8.3C50.8,99.6,48.9,102.5,47.1,105.5z"/>
	<path id="path7020-7" inkscape:connector-curvature="0" class="st1" d="M47.1,82.5c-1.8-3-3.7-5.9-6.1-8.3
		c2.4-2.5,4.3-5.4,6.1-8.3c1.8,3,3.7,5.9,6.1,8.3C50.8,76.7,48.9,79.6,47.1,82.5z"/>
	<path id="path7022-4" inkscape:connector-curvature="0" class="st1" d="M11.2,82.5c-1.8-3-3.7-5.9-6.1-8.3
		c2.4-2.5,4.3-5.4,6.1-8.3c1.8,3,3.7,5.9,6.1,8.3C14.9,76.7,13,79.5,11.2,82.5z"/>
	<path id="path29-5-3-7-8" inkscape:connector-curvature="0" class="st1" d="M-6.8,22.7l1-0.3c0.4,1.1,1.2,1.4,2,1.3
		c1.5-0.1,2-1.8,2.1-3.3C-2.2,21-3,21.3-3.8,21.3c-2.4-0.1-3-2.1-3.1-4.1c-0.1-1.7,0.6-2.9,1.8-3.5c0.6-0.3,2.1-0.3,2.8,0.1
		c1.5,0.8,2,2.1,1.9,5.4c0,2.7-0.6,5.7-3.4,5.8C-5.4,25.1-6.6,23.8-6.8,22.7L-6.8,22.7L-6.8,22.7z M-2.7,19.8c0.5-0.3,0.8-0.6,1-1
		c0.2-0.4,0.2-0.5,0.2-1.3c-0.1-1.9-1.1-3-2.6-2.8c-0.8,0.1-1.3,0.6-1.5,1.4c-0.5,1.6,0.1,3.4,1.2,3.8C-3.8,20.1-3.1,20.1-2.7,19.8
		L-2.7,19.8L-2.7,19.8z"/>
	<path id="path29-6-2-9-2" inkscape:connector-curvature="0" class="st1" d="M65.1,102.8l-1,0.3c-0.4-1.1-1.2-1.4-2-1.3
		c-1.5,0.1-2,1.8-2.1,3.3c0.6-0.6,1.5-0.9,2.2-0.9c2.4,0.1,3,2.1,3.1,4.1c0.1,1.7-0.6,2.9-1.8,3.5c-0.6,0.3-2.1,0.3-2.8-0.1
		c-1.5-0.8-2-2.1-1.9-5.4c0-2.7,0.6-5.7,3.4-5.8C63.7,100.4,64.9,101.6,65.1,102.8L65.1,102.8L65.1,102.8z M61,105.7
		c-0.5,0.3-0.8,0.6-1,1c-0.2,0.4-0.2,0.5-0.2,1.3c0.1,1.9,1.1,3,2.6,2.8c0.8-0.1,1.3-0.6,1.5-1.4c0.5-1.6-0.1-3.4-1.2-3.8
		C62.2,105.4,61.4,105.4,61,105.7L61,105.7L61,105.7z"/>
</g>
</svg>
