<!-- Generator: Adobe Illustrator 19.2.0, SVG Export Plug-In  -->
<svg version="1.1"
	 xmlns="http://www.w3.org/2000/svg" xmlns:xlink="http://www.w3.org/1999/xlink" xmlns:a="http://ns.adobe.com/AdobeSVGViewerExtensions/3.0/"
	 x="0px" y="0px" width="78.1px" height="108.8px" viewBox="0 0 78.1 108.8" style="enable-background:new 0 0 78.1 108.8;"
	 xml:space="preserve">
<style type="text/css">
	.st0{fill:#FFFFFF;stroke:#010101;stroke-width:1.0006;}
	.st1{fill:#D31F26;}
</style>
<defs>
</defs>
<g id="D1" transform="matrix(0.99553491,0,0,0.99680337,8.5462702,-8.1397402)">
	<path id="rect6367-6" class="st0" d="M-4.4,8.7h70c2,0,3.7,1.7,3.7,3.7v100.7c0,2-1.7,3.7-3.7,3.7h-70c-2,0-3.7-1.7-3.7-3.7
		V12.4C-8.1,10.3-6.4,8.7-4.4,8.7z"/>
	<path id="path6399-9" inkscape:connector-curvature="0" class="st1" d="M-2.1,32.9c-0.7-1.2-1.5-2.4-2.5-3.5
		c1-1,1.8-2.2,2.5-3.5c0.7,1.2,1.5,2.4,2.5,3.5C-0.6,30.5-1.4,31.7-2.1,32.9z"/>
	<path id="path6403-1" inkscape:connector-curvature="0" class="st1" d="M63.4,99.5c-0.7-1.2-1.5-2.4-2.5-3.5
		c1-1,1.8-2.2,2.5-3.5c0.7,1.2,1.5,2.4,2.5,3.5C64.9,97,64.1,98.2,63.4,99.5z"/>
	<path id="path6413-1" inkscape:connector-curvature="0" class="st1" d="M30.6,71.1c-1.8-3-3.7-5.9-6.1-8.3
		c2.4-2.5,4.3-5.4,6.1-8.3c1.8,3,3.7,5.9,6.1,8.3C34.3,65.2,32.4,68.1,30.6,71.1z"/>
	<path id="path41-87-9-4-8" inkscape:connector-curvature="0" class="st1" d="M-5.6,24.9v-1h0.9l2-10.5h1.1l2.2,10.5h0.8v1h-2.6
		v-1h0.7l-0.3-1.6h-2.6l-0.2,1.6h0.7v1H-5.6L-5.6,24.9z M-1,21.2l-1.1-5.6l-1.1,5.6H-1z"/>
	<path id="path41-8-5-6-1" inkscape:connector-curvature="0" class="st1" d="M59.9,100.6v1h0.9l2,10.5h1.1l2.2-10.5h0.8v-1h-2.6
		v1H65l-0.3,1.6h-2.6l-0.2-1.6h0.7v-1L59.9,100.6L59.9,100.6z M64.5,104.3l-1.1,5.6l-1.1-5.6H64.5L64.5,104.3z"/>
</g>
</svg>
 