<!-- Generator: Adobe Illustrator 19.2.0, SVG Export Plug-In  -->
<svg version="1.1"
	 xmlns="http://www.w3.org/2000/svg" xmlns:xlink="http://www.w3.org/1999/xlink" xmlns:a="http://ns.adobe.com/AdobeSVGViewerExtensions/3.0/"
	 x="0px" y="0px" width="78.1px" height="108.8px" viewBox="0 0 78.1 108.8" style="enable-background:new 0 0 78.1 108.8;"
	 xml:space="preserve">
<style type="text/css">
	.st0{fill:#FFFFFF;stroke:#010101;stroke-width:1.0006;}
	.st1{fill:#010101;}
</style>
<defs>
</defs>
<g id="C5" transform="translate(1.9933614,-5.5523942)">
	<g id="layer1-33-1-41-1-2-6" transform="matrix(0.99553774,0,0,0.99680134,1261.1629,-1457.4608)" inkscape:label="5D">
		<path id="rect6355-6-85-3-7-9-4" class="st0" d="M-1264.6,1468.2h70c2,0,3.7,1.7,3.7,3.7v100.7c0,2-1.7,3.7-3.7,3.7h-70
			c-2,0-3.7-1.7-3.7-3.7v-100.7C-1268.3,1469.9-1266.7,1468.2-1264.6,1468.2z"/>
	</g>
	<path id="path147-0-8-1-6-13-2-8-2-5" inkscape:connector-curvature="0" sodipodi:nodetypes="ccccccccccccccc" class="st1" d="
		M54.9,17.5c-3.4,0.1-4.9,3.9-2.4,6.9c0.4,0.4,0.4,0.7-0.3,0.3c-1.7-1.1-4.9-0.4-5.1,3.1c-0.2,4.3,5.7,5.5,6.9,1
		c0.1-0.5,0.4-0.5,0.4,0.2c-0.1,1.8-0.7,3.6-1.5,5.2c1.3,0,2.8,0,4,0c-0.8-1.7-1.4-3.4-1.5-5.2c-0.1-0.7,0.3-0.7,0.4-0.2
		c1.1,4.5,7.1,3.3,6.9-1c-0.2-3.5-3.4-4.2-5.1-3.1c-0.7,0.4-0.6,0.2-0.3-0.3C59.8,21.4,58.3,17.6,54.9,17.5
		C54.9,17.5,54.9,17.5,54.9,17.5L54.9,17.5z"/>
	
		<path id="path147-0-8-1-6-75-2-83-7-6-4" inkscape:connector-curvature="0" inkscape:transform-center-x="-110.30866" inkscape:transform-center-y="0.35355339" sodipodi:nodetypes="ccccccccccccccc" class="st1" d="
		M19.2,17.5c-3.4,0.1-4.9,3.9-2.4,6.9c0.4,0.4,0.4,0.7-0.3,0.3c-1.7-1.1-4.9-0.4-5.1,3.1c-0.2,4.3,5.7,5.5,6.9,1
		c0.1-0.5,0.4-0.5,0.4,0.2c-0.1,1.8-0.7,3.6-1.5,5.2c1.3,0,2.8,0,4,0c-0.8-1.7-1.4-3.4-1.5-5.2c-0.1-0.7,0.3-0.7,0.4-0.2
		c1.1,4.5,7.1,3.3,6.9-1c-0.2-3.5-3.4-4.2-5.1-3.1c-0.7,0.4-0.6,0.2-0.3-0.3C24.1,21.4,22.6,17.6,19.2,17.5
		C19.2,17.5,19.2,17.5,19.2,17.5L19.2,17.5z"/>
	
		<path id="path147-0-8-1-6-7-5-5-7-6-8-5" inkscape:connector-curvature="0" sodipodi:nodetypes="ccccccccccccccc" class="st1" d="
		M54.9,102.7c-3.4-0.1-4.9-3.9-2.4-6.9c0.4-0.4,0.4-0.7-0.3-0.3c-1.7,1.1-4.9,0.4-5.1-3.1c-0.2-4.3,5.7-5.5,6.9-1
		c0.1,0.5,0.4,0.5,0.4-0.2c-0.1-1.8-0.7-3.6-1.5-5.2c1.3,0,2.8,0,4,0c-0.8,1.7-1.4,3.4-1.5,5.2c-0.1,0.7,0.3,0.7,0.4,0.2
		c1.1-4.5,7.1-3.3,6.9,1c-0.2,3.5-3.4,4.2-5.1,3.1c-0.7-0.4-0.6-0.2-0.3,0.3C59.8,98.8,58.3,102.6,54.9,102.7
		C54.9,102.7,54.9,102.7,54.9,102.7L54.9,102.7z"/>
	
		<path id="path147-0-8-1-6-75-6-1-2-4-9-5" inkscape:connector-curvature="0" inkscape:transform-center-x="-110.30866" inkscape:transform-center-y="-0.35355495" sodipodi:nodetypes="ccccccccccccccc" class="st1" d="
		M19.2,102.7c-3.4-0.1-4.9-3.9-2.4-6.9c0.4-0.4,0.4-0.7-0.3-0.3c-1.7,1.1-4.9,0.4-5.1-3.1c-0.2-4.3,5.7-5.5,6.9-1
		c0.1,0.5,0.4,0.5,0.4-0.2c-0.1-1.8-0.7-3.6-1.5-5.2c1.3,0,2.8,0,4,0c-0.8,1.7-1.4,3.4-1.5,5.2C19.6,92,20,92,20.1,91.5
		c1.1-4.5,7.1-3.3,6.9,1c-0.2,3.5-3.4,4.2-5.1,3.1c-0.7-0.4-0.6-0.2-0.3,0.3C24.1,98.8,22.6,102.6,19.2,102.7
		C19.2,102.7,19.2,102.7,19.2,102.7L19.2,102.7z"/>
	
		<path id="path147-0-8-1-6-1-1-0-5-6-4-0" inkscape:connector-curvature="0" sodipodi:nodetypes="ccccccccccccccc" class="st1" d="
		M37,51.8c-3.4,0.1-4.9,3.9-2.4,6.9c0.4,0.4,0.4,0.7-0.3,0.3c-1.7-1.1-4.9-0.4-5.1,3.1c-0.2,4.3,5.7,5.5,6.9,1
		c0.1-0.5,0.4-0.5,0.4,0.2c-0.1,1.8-0.7,3.6-1.5,5.2c1.3,0,2.8,0,4,0c-0.8-1.7-1.4-3.4-1.5-5.2c-0.1-0.7,0.3-0.7,0.4-0.2
		c1.1,4.5,7.1,3.3,6.9-1c-0.2-3.5-3.4-4.2-5.1-3.1c-0.7,0.4-0.6,0.2-0.3-0.3C42,55.7,40.4,51.9,37,51.8C37,51.8,37,51.8,37,51.8
		L37,51.8z"/>
	<path id="path147-6-9-8-7-0-5-6-7-4-6" inkscape:connector-curvature="0" sodipodi:nodetypes="ccccccccccccccc" class="st1" d="
		M69.6,96.6c1.4,0,2-1.6,1-2.9c-0.1-0.2-0.2-0.3,0.1-0.1c0.7,0.5,2,0.2,2-1.3c0.1-1.8-2.3-2.3-2.7-0.4c0,0.2-0.2,0.2-0.1-0.1
		c0-0.8,0.3-1.5,0.6-2.2c-0.5,0-1.1,0-1.6,0c0.3,0.7,0.5,1.4,0.6,2.2c0,0.3-0.1,0.3-0.1,0.1c-0.4-1.9-2.8-1.4-2.7,0.4
		c0.1,1.4,1.4,1.7,2,1.3c0.3-0.2,0.3-0.1,0.1,0.1C67.7,94.9,68.3,96.5,69.6,96.6C69.6,96.6,69.6,96.6,69.6,96.6L69.6,96.6z"/>
	
		<path id="path147-6-9-8-7-4-5-62-2-3-8" inkscape:connector-curvature="0" sodipodi:nodetypes="ccccccccccccccc" class="st1" d="
		M4.5,23.3c-1.4,0-2,1.6-1,2.9c0.1,0.2,0.2,0.3-0.1,0.1c-0.7-0.5-2-0.2-2,1.3c-0.1,1.8,2.3,2.3,2.7,0.4c0-0.2,0.2-0.2,0.1,0.1
		c0,0.8-0.3,1.5-0.6,2.2c0.5,0,1.1,0,1.6,0c-0.3-0.7-0.5-1.4-0.6-2.2c0-0.3,0.1-0.3,0.1-0.1c0.4,1.9,2.8,1.4,2.7-0.4
		c-0.1-1.4-1.4-1.7-2-1.3c-0.3,0.2-0.3,0.1-0.1-0.1C6.4,24.9,5.8,23.4,4.5,23.3C4.5,23.3,4.5,23.3,4.5,23.3L4.5,23.3z"/>
	<path id="path21-39-8-1" inkscape:connector-curvature="0" class="st1" d="M0.9,19.3l1.1,0c0.2,0.7,0.7,1.4,1.3,1.6
		c1.8,0.4,3-0.6,3.4-1.8c0.5-1.4,0-3.5-1.3-4.2c-1-0.6-2.6-0.1-3.3,1.2l-0.8-0.5l0.4-4.7h5.1V12H2.7l-0.1,2c0.9-0.6,2.3-0.6,3.2-0.2
		c1.7,0.8,2.5,2.7,2.1,4.9c-0.5,2.2-1.5,3.4-3.7,3.6C1.7,22.3,0.8,20.5,0.9,19.3L0.9,19.3L0.9,19.3z"/>
	<path id="path21-3-4-1-8" inkscape:connector-curvature="0" class="st1" d="M73.2,100.6l-1.1,0c-0.2-0.7-0.7-1.4-1.3-1.6
		c-1.8-0.4-3,0.6-3.4,1.8c-0.5,1.4,0,3.5,1.3,4.2c1,0.6,2.6,0.1,3.3-1.2l0.8,0.5l-0.4,4.7h-5.1v-1.1h4.1l0.1-2
		c-0.9,0.6-2.3,0.6-3.2,0.2c-1.7-0.8-2.5-2.7-2.1-4.9c0.5-2.2,1.5-3.4,3.7-3.6C72.3,97.6,73.2,99.4,73.2,100.6L73.2,100.6
		L73.2,100.6z"/>
</g>
</svg>
