<!-- Generator: Adobe Illustrator 19.2.0, SVG Export Plug-In  -->
<svg version="1.1"
	 xmlns="http://www.w3.org/2000/svg" xmlns:xlink="http://www.w3.org/1999/xlink" xmlns:a="http://ns.adobe.com/AdobeSVGViewerExtensions/3.0/"
	 x="0px" y="0px" width="78.1px" height="108.8px" viewBox="0 0 78.1 108.8" style="enable-background:new 0 0 78.1 108.8;"
	 xml:space="preserve">
<style type="text/css">
	.st0{fill:#FFFFFF;stroke:#010101;stroke-width:0.9967;}
	.st1{fill:#010101;}
</style>
<defs>
</defs>
<g id="C1" transform="matrix(0.99999712,0,0,1.000002,5.9820329,-5.5506344)">
	<path id="rect6355-6-85-9-3-2" class="st0" d="M-1.8,6h69.7c2,0,3.7,1.7,3.7,3.7v100.4c0,2-1.7,3.7-3.7,3.7H-1.8
		c-2,0-3.7-1.7-3.7-3.7V9.7C-5.5,7.7-3.8,6-1.8,6z"/>
	<path id="path147-0-8-1-6-1-1-0-9-1-8" inkscape:connector-curvature="0" sodipodi:nodetypes="ccccccccccccccc" class="st1" d="
		M33,51.8c-3.4,0.1-4.9,3.9-2.4,6.9c0.4,0.4,0.4,0.7-0.3,0.3c-1.7-1.1-4.9-0.4-5.1,3.1c-0.2,4.3,5.7,5.5,6.9,1
		c0.1-0.5,0.4-0.5,0.4,0.2c-0.1,1.8-0.7,3.6-1.5,5.2c1.3,0,2.8,0,4,0c-0.8-1.7-1.4-3.4-1.5-5.2c-0.1-0.7,0.3-0.7,0.4-0.2
		c1.1,4.5,7.1,3.3,6.9-1c-0.2-3.5-3.4-4.2-5.1-3.1c-0.7,0.4-0.6,0.2-0.3-0.3C38,55.7,36.4,51.9,33,51.8C33.1,51.8,33.1,51.8,33,51.8
		L33,51.8z"/>
	<path id="path147-6-9-8-7-0-5-0-8-3" inkscape:connector-curvature="0" sodipodi:nodetypes="ccccccccccccccc" class="st1" d="
		M65.6,96.6c1.4,0,2-1.6,1-2.9c-0.1-0.2-0.2-0.3,0.1-0.1c0.7,0.5,2,0.2,2-1.3c0.1-1.8-2.3-2.3-2.7-0.4c0,0.2-0.2,0.2-0.1-0.1
		c0-0.8,0.3-1.5,0.6-2.2c-0.5,0-1.1,0-1.6,0c0.3,0.7,0.5,1.4,0.6,2.2c0,0.3-0.1,0.3-0.1,0.1c-0.4-1.9-2.8-1.4-2.7,0.4
		c0.1,1.4,1.4,1.7,2,1.3c0.3-0.2,0.3-0.1,0.1,0.1C63.7,94.9,64.3,96.5,65.6,96.6C65.6,96.6,65.6,96.6,65.6,96.6L65.6,96.6z"/>
	<path id="path41-6-3-5-1" inkscape:connector-curvature="0" class="st1" d="M-3,22.2v-1h0.9l2-10.4H1l2.2,10.4h0.8v1H1.4v-1h0.7
		l-0.3-1.6h-2.6L-1,21.3h0.7v1H-3z M1.6,18.5l-1.1-5.6l-1.1,5.6H1.6z"/>
	<path id="path41-6-4-0-2-8" inkscape:connector-curvature="0" class="st1" d="M62.2,97.6v1h0.9l2,10.4h1.1l2.2-10.4h0.8v-1h-2.6
		v1h0.7l-0.3,1.6h-2.6l-0.2-1.6h0.7v-1H62.2L62.2,97.6z M66.8,101.4l-1.1,5.6l-1.1-5.6H66.8L66.8,101.4z"/>
	<path id="path147-6-9-8-7-4-5-6-8-9" inkscape:connector-curvature="0" sodipodi:nodetypes="ccccccccccccccc" class="st1" d="
		M0.5,23.3c-1.4,0-2,1.6-1,2.9c0.1,0.2,0.2,0.3-0.1,0.1c-0.7-0.5-2-0.2-2,1.3c-0.1,1.8,2.3,2.3,2.7,0.4c0-0.2,0.2-0.2,0.1,0.1
		c0,0.8-0.3,1.5-0.6,2.2c0.5,0,1.1,0,1.6,0c-0.3-0.7-0.5-1.4-0.6-2.2c0-0.3,0.1-0.3,0.1-0.1c0.4,1.9,2.8,1.4,2.7-0.4
		c-0.1-1.4-1.4-1.7-2-1.3c-0.3,0.2-0.3,0.1-0.1-0.1C2.4,24.9,1.8,23.4,0.5,23.3C0.5,23.3,0.5,23.3,0.5,23.3L0.5,23.3z"/>
</g>
</svg>
