 <!-- Generator: Adobe Illustrator 19.2.0, SVG Export Plug-In  -->
<svg version="1.1"
	 xmlns="http://www.w3.org/2000/svg" xmlns:xlink="http://www.w3.org/1999/xlink" xmlns:a="http://ns.adobe.com/AdobeSVGViewerExtensions/3.0/"
	 x="0px" y="0px" width="78.1px" height="108.8px" viewBox="0 0 78.1 108.8" style="enable-background:new 0 0 78.1 108.8;"
	 xml:space="preserve">
<style type="text/css">
	.st0{fill:#FFFFFF;stroke:#010101;stroke-width:0.9967;}
	.st1{fill:#010101;}
</style>
<defs>
</defs>
<g id="C10" transform="matrix(0.99999718,0,0,1.000002,-2.9818333,-5.5506344)">
	<path id="rect6355-6-85-3-6-8-7" class="st0" d="M7.2,6h69.7c2,0,3.7,1.7,3.7,3.7v100.4c0,2-1.7,3.7-3.7,3.7H7.2
		c-2,0-3.7-1.7-3.7-3.7V9.7C3.5,7.7,5.1,6,7.2,6z"/>
	<path id="path147-0-8-1-6-13-2-22-1-5" inkscape:connector-curvature="0" sodipodi:nodetypes="ccccccccccccccc" class="st1" d="
		M59.9,17.5c-3.4,0.1-4.9,3.9-2.4,6.9c0.4,0.4,0.4,0.7-0.3,0.3c-1.7-1.1-4.9-0.4-5.1,3.1c-0.2,4.3,5.7,5.5,6.9,1
		c0.1-0.5,0.4-0.5,0.4,0.2c-0.1,1.8-0.7,3.6-1.5,5.2c1.3,0,2.8,0,4,0c-0.8-1.7-1.4-3.4-1.5-5.2c-0.1-0.7,0.3-0.7,0.4-0.2
		c1.1,4.5,7.1,3.3,6.9-1c-0.2-3.5-3.4-4.2-5.1-3.1c-0.7,0.4-0.6,0.2-0.3-0.3C64.8,21.4,63.3,17.6,59.9,17.5
		C59.9,17.5,59.9,17.5,59.9,17.5L59.9,17.5z"/>
	
		<path id="path147-0-8-1-6-75-2-83-21-1-8" inkscape:connector-curvature="0" inkscape:transform-center-x="-110.30866" inkscape:transform-center-y="0.35355339" sodipodi:nodetypes="ccccccccccccccc" class="st1" d="
		M24.1,17.5c-3.4,0.1-4.9,3.9-2.4,6.9c0.4,0.4,0.4,0.7-0.3,0.3c-1.7-1.1-4.9-0.4-5.1,3.1c-0.2,4.3,5.7,5.5,6.9,1
		c0.1-0.5,0.4-0.5,0.4,0.2c-0.1,1.8-0.7,3.6-1.5,5.2c1.3,0,2.8,0,4,0c-0.8-1.7-1.4-3.4-1.5-5.2c-0.1-0.7,0.3-0.7,0.4-0.2
		c1.1,4.5,7.1,3.3,6.9-1c-0.2-3.5-3.4-4.2-5.1-3.1c-0.7,0.4-0.6,0.2-0.3-0.3C29,21.4,27.5,17.6,24.1,17.5
		C24.1,17.5,24.1,17.5,24.1,17.5L24.1,17.5z"/>
	
		<path id="path147-0-8-1-6-7-5-5-7-3-5-5" inkscape:connector-curvature="0" sodipodi:nodetypes="ccccccccccccccc" class="st1" d="
		M59.9,102.7c-3.4-0.1-4.9-3.9-2.4-6.9c0.4-0.4,0.4-0.7-0.3-0.3c-1.7,1.1-4.9,0.4-5.1-3.1c-0.2-4.3,5.7-5.5,6.9-1
		c0.1,0.5,0.4,0.5,0.4-0.2c-0.1-1.8-0.7-3.6-1.5-5.2c1.3,0,2.8,0,4,0c-0.8,1.7-1.4,3.4-1.5,5.2c-0.1,0.7,0.3,0.7,0.4,0.2
		c1.1-4.5,7.1-3.3,6.9,1c-0.2,3.5-3.4,4.2-5.1,3.1c-0.7-0.4-0.6-0.2-0.3,0.3C64.8,98.8,63.3,102.6,59.9,102.7
		C59.9,102.7,59.9,102.7,59.9,102.7L59.9,102.7z"/>
	
		<path id="path147-0-8-1-6-75-6-1-2-7-9-3" inkscape:connector-curvature="0" inkscape:transform-center-x="-110.30866" inkscape:transform-center-y="-0.35355495" sodipodi:nodetypes="ccccccccccccccc" class="st1" d="
		M24.1,102.7c-3.4-0.1-4.9-3.9-2.4-6.9c0.4-0.4,0.4-0.7-0.3-0.3c-1.7,1.1-4.9,0.4-5.1-3.1c-0.2-4.3,5.7-5.5,6.9-1
		c0.1,0.5,0.4,0.5,0.4-0.2c-0.1-1.8-0.7-3.6-1.5-5.2c1.3,0,2.8,0,4,0c-0.8,1.7-1.4,3.4-1.5,5.2C24.6,92,25,92,25,91.5
		c1.1-4.5,7.1-3.3,6.9,1c-0.2,3.5-3.4,4.2-5.1,3.1c-0.7-0.4-0.6-0.2-0.3,0.3C29,98.8,27.5,102.6,24.1,102.7
		C24.1,102.7,24.1,102.7,24.1,102.7L24.1,102.7z"/>
	
		<path id="path147-0-8-1-6-2-00-7-1-1-4" inkscape:connector-curvature="0" sodipodi:nodetypes="ccccccccccccccc" class="st1" d="
		M42,28.9c-3.4,0.1-4.9,3.9-2.4,6.9c0.4,0.4,0.4,0.7-0.3,0.3c-1.7-1.1-4.9-0.4-5.1,3.1c-0.2,4.3,5.7,5.5,6.9,1
		c0.1-0.5,0.4-0.5,0.4,0.2c-0.1,1.8-0.7,3.6-1.5,5.2c1.3,0,2.8,0,4,0c-0.8-1.7-1.4-3.4-1.5-5.2c-0.1-0.7,0.3-0.7,0.4-0.2
		c1.1,4.5,7.1,3.3,6.9-1c-0.2-3.5-3.4-4.2-5.1-3.1c-0.7,0.4-0.6,0.2-0.3-0.3C46.9,32.8,45.4,29,42,28.9C42,28.9,42,28.9,42,28.9
		L42,28.9z"/>
	
		<path id="path147-0-8-1-6-2-0-8-6-8-1-8" inkscape:connector-curvature="0" sodipodi:nodetypes="ccccccccccccccc" class="st1" d="
		M42,91.2c-3.4-0.1-4.9-3.9-2.4-6.9c0.4-0.4,0.4-0.7-0.3-0.3c-1.7,1.1-4.9,0.4-5.1-3.1c-0.2-4.3,5.7-5.5,6.9-1
		c0.1,0.5,0.4,0.5,0.4-0.2c-0.1-1.8-0.7-3.6-1.5-5.2c1.3,0,2.8,0,4,0c-0.8,1.7-1.4,3.4-1.5,5.2c-0.1,0.7,0.3,0.7,0.4,0.2
		c1.1-4.5,7.1-3.3,6.9,1c-0.2,3.5-3.4,4.2-5.1,3.1C44,83.7,44,84,44.4,84.4C46.9,87.4,45.4,91.2,42,91.2C42,91.2,42,91.2,42,91.2
		L42,91.2z"/>
	
		<path id="path147-6-9-8-7-0-5-6-83-3-7" inkscape:connector-curvature="0" sodipodi:nodetypes="ccccccccccccccc" class="st1" d="
		M74.6,96.6c1.4,0,2-1.6,1-2.9c-0.1-0.2-0.2-0.3,0.1-0.1c0.7,0.5,2,0.2,2-1.3c0.1-1.8-2.3-2.3-2.7-0.4c0,0.2-0.2,0.2-0.1-0.1
		c0-0.8,0.3-1.5,0.6-2.2c-0.5,0-1.1,0-1.6,0c0.3,0.7,0.5,1.4,0.6,2.2c0,0.3-0.1,0.3-0.1,0.1c-0.4-1.9-2.8-1.4-2.7,0.4
		c0.1,1.4,1.4,1.7,2,1.3c0.3-0.2,0.3-0.1,0.1,0.1C72.6,94.9,73.2,96.5,74.6,96.6C74.6,96.6,74.6,96.6,74.6,96.6L74.6,96.6z"/>
	
		<path id="path147-0-8-1-6-75-2-9-77-44-0-7" inkscape:connector-curvature="0" inkscape:transform-center-x="-110.30866" inkscape:transform-center-y="0.35355339" sodipodi:nodetypes="ccccccccccccccc" class="st1" d="
		M24.1,40.4c-3.4,0.1-4.9,3.9-2.4,6.9c0.4,0.4,0.4,0.7-0.3,0.3c-1.7-1.1-4.9-0.4-5.1,3.1c-0.2,4.3,5.7,5.5,6.9,1
		c0.1-0.5,0.4-0.5,0.4,0.2c-0.1,1.8-0.7,3.6-1.5,5.2c1.3,0,2.8,0,4,0c-0.8-1.7-1.4-3.4-1.5-5.2C24.6,51,25,51,25,51.5
		c1.1,4.5,7.1,3.3,6.9-1c-0.2-3.5-3.4-4.2-5.1-3.1c-0.7,0.4-0.6,0.2-0.3-0.3C29,44.2,27.5,40.4,24.1,40.4
		C24.1,40.4,24.1,40.4,24.1,40.4L24.1,40.4z"/>
	
		<path id="path147-0-8-1-6-75-2-8-0-3-9-3" inkscape:connector-curvature="0" inkscape:transform-center-x="-110.30866" inkscape:transform-center-y="-0.35355495" sodipodi:nodetypes="ccccccccccccccc" class="st1" d="
		M24.1,79.8c-3.4-0.1-4.9-3.9-2.4-6.9c0.4-0.4,0.4-0.7-0.3-0.3c-1.7,1.1-4.9,0.4-5.1-3.1c-0.2-4.3,5.7-5.5,6.9-1
		c0.1,0.5,0.4,0.5,0.4-0.2c-0.1-1.8-0.7-3.6-1.5-5.2c1.3,0,2.8,0,4,0c-0.8,1.7-1.4,3.4-1.5,5.2c-0.1,0.7,0.3,0.7,0.4,0.2
		c1.1-4.5,7.1-3.3,6.9,1c-0.2,3.5-3.4,4.2-5.1,3.1c-0.7-0.4-0.6-0.2-0.3,0.3C29,75.9,27.5,79.7,24.1,79.8
		C24.1,79.8,24.1,79.8,24.1,79.8L24.1,79.8z"/>
	
		<path id="path147-0-8-1-6-75-2-9-7-1-9-7-9" inkscape:connector-curvature="0" inkscape:transform-center-x="-110.30866" inkscape:transform-center-y="0.35355339" sodipodi:nodetypes="ccccccccccccccc" class="st1" d="
		M59.9,40.4c-3.4,0.1-4.9,3.9-2.4,6.9c0.4,0.4,0.4,0.7-0.3,0.3c-1.7-1.1-4.9-0.4-5.1,3.1c-0.2,4.3,5.7,5.5,6.9,1
		c0.1-0.5,0.4-0.5,0.4,0.2c-0.1,1.8-0.7,3.6-1.5,5.2c1.3,0,2.8,0,4,0c-0.8-1.7-1.4-3.4-1.5-5.2c-0.1-0.7,0.3-0.7,0.4-0.2
		c1.1,4.5,7.1,3.3,6.9-1c-0.2-3.5-3.4-4.2-5.1-3.1c-0.7,0.4-0.6,0.2-0.3-0.3C64.8,44.2,63.3,40.4,59.9,40.4
		C59.9,40.4,59.9,40.4,59.9,40.4L59.9,40.4z"/>
	
		<path id="path147-0-8-1-6-75-2-8-5-1-52-2-8" inkscape:connector-curvature="0" inkscape:transform-center-x="-110.30866" inkscape:transform-center-y="-0.35355495" sodipodi:nodetypes="ccccccccccccccc" class="st1" d="
		M59.9,79.8c-3.4-0.1-4.9-3.9-2.4-6.9c0.4-0.4,0.4-0.7-0.3-0.3c-1.7,1.1-4.9,0.4-5.1-3.1c-0.2-4.3,5.7-5.5,6.9-1
		c0.1,0.5,0.4,0.5,0.4-0.2c-0.1-1.8-0.7-3.6-1.5-5.2c1.3,0,2.8,0,4,0c-0.8,1.7-1.4,3.4-1.5,5.2c-0.1,0.7,0.3,0.7,0.4,0.2
		c1.1-4.5,7.1-3.3,6.9,1c-0.2,3.5-3.4,4.2-5.1,3.1c-0.7-0.4-0.6-0.2-0.3,0.3C64.8,75.9,63.3,79.7,59.9,79.8
		C59.9,79.8,59.9,79.8,59.9,79.8L59.9,79.8z"/>
	
		<path id="path147-6-9-8-7-4-5-62-52-8-0" inkscape:connector-curvature="0" sodipodi:nodetypes="ccccccccccccccc" class="st1" d="
		M9.4,23.3c-1.4,0-2,1.6-1,2.9c0.1,0.2,0.2,0.3-0.1,0.1c-0.7-0.5-2-0.2-2,1.3c-0.1,1.8,2.3,2.3,2.7,0.4c0-0.2,0.2-0.2,0.1,0.1
		c0,0.8-0.3,1.5-0.6,2.2c0.5,0,1.1,0,1.6,0c-0.3-0.7-0.5-1.4-0.6-2.2c0-0.3,0.1-0.3,0.1-0.1c0.4,1.9,2.8,1.4,2.7-0.4
		c-0.1-1.4-1.4-1.7-2-1.3c-0.3,0.2-0.3,0.1-0.1-0.1C11.4,24.9,10.8,23.4,9.4,23.3C9.4,23.3,9.4,23.3,9.4,23.3L9.4,23.3z"/>
	<path id="path31-6-7-6" inkscape:connector-curvature="0" class="st1" d="M6,22.2V10.8h1.1v11.4H6z"/>
	<path id="path33-9-3-6" inkscape:connector-curvature="0" class="st1" d="M10.3,10.8c-1.1,0-1.9,1-1.9,2.2v7
		c0,1.2,0.9,2.2,1.9,2.2H11c1.1,0,1.9-1,1.9-2.2v-7c0-1.2-0.9-2.2-1.9-2.2H10.3z M10.7,11.9c0.6,0,1.1,0.5,1.1,1.1v7.1
		c0,0.6-0.5,1.1-1.1,1.1s-1.1-0.5-1.1-1.1V13C9.5,12.4,10,11.9,10.7,11.9L10.7,11.9z"/>
	<path id="path31-1-4-0-7" inkscape:connector-curvature="0" class="st1" d="M78.1,97.6v11.4H77V97.6H78.1z"/>
	<path id="path33-5-7-4-0" inkscape:connector-curvature="0" class="st1" d="M73.7,109.1c1.1,0,1.9-1,1.9-2.2v-7
		c0-1.2-0.9-2.2-1.9-2.2h-0.6c-1.1,0-1.9,1-1.9,2.2v7c0,1.2,0.9,2.2,1.9,2.2H73.7z M73.4,108c-0.6,0-1.1-0.5-1.1-1.1v-7.1
		c0-0.6,0.5-1.1,1.1-1.1s1.1,0.5,1.1,1.1v7.1C74.5,107.5,74,108,73.4,108L73.4,108z"/>
</g>
</svg>
