<!-- Generator: Adobe Illustrator 19.2.0, SVG Export Plug-In  -->
<svg version="1.1"
	 xmlns="http://www.w3.org/2000/svg" xmlns:xlink="http://www.w3.org/1999/xlink" xmlns:a="http://ns.adobe.com/AdobeSVGViewerExtensions/3.0/"
	 x="0px" y="0px" width="78.1px" height="108.8px" viewBox="0 0 78.1 108.8" style="enable-background:new 0 0 78.1 108.8;"
	 xml:space="preserve">
<style type="text/css">
	.st0{fill:#FFFFFF;stroke:#010101;stroke-width:1.0006;}
	.st1{fill:#010101;}
</style>
<defs>
</defs>
<g id="C2" transform="translate(4.9835822,-5.5524948)">
	<g id="layer1-33-1-8-0-7" transform="matrix(0.99553774,0,0,0.99680134,468.48764,-1457.4607)" inkscape:label="5D">
		<path id="rect6355-6-85-4-0-5" class="st0" d="M-471.4,1468.2h70c2,0,3.7,1.7,3.7,3.7v100.7c0,2-1.7,3.7-3.7,3.7h-70
			c-2,0-3.7-1.7-3.7-3.7v-100.7C-475.1,1469.9-473.4,1468.2-471.4,1468.2z"/>
	</g>
	<path id="path147-0-8-1-6-7-2-1-6-3" inkscape:connector-curvature="0" sodipodi:nodetypes="ccccccccccccccc" class="st1" d="
		M34,17.5c-3.4,0.1-4.9,3.9-2.4,6.9c0.4,0.4,0.4,0.7-0.3,0.3c-1.7-1.1-4.9-0.4-5.1,3.1c-0.2,4.3,5.7,5.5,6.9,1
		c0.1-0.5,0.4-0.5,0.4,0.2c-0.1,1.8-0.7,3.6-1.5,5.2c1.3,0,2.8,0,4,0c-0.8-1.7-1.4-3.4-1.5-5.2c-0.1-0.7,0.3-0.7,0.4-0.2
		c1.1,4.5,7.1,3.3,6.9-1c-0.2-3.5-3.4-4.2-5.1-3.1c-0.7,0.4-0.6,0.2-0.3-0.3C39,21.4,37.4,17.6,34,17.5C34.1,17.5,34.1,17.5,34,17.5
		L34,17.5z"/>
	<path id="path147-0-8-1-6-1-4-5-4-2" inkscape:connector-curvature="0" sodipodi:nodetypes="ccccccccccccccc" class="st1" d="
		M34,102.7c-3.4-0.1-4.9-3.9-2.4-6.9c0.4-0.4,0.4-0.7-0.3-0.3c-1.7,1.1-4.9,0.4-5.1-3.1c-0.2-4.3,5.7-5.5,6.9-1
		c0.1,0.5,0.4,0.5,0.4-0.2c-0.1-1.8-0.7-3.6-1.5-5.2c1.3,0,2.8,0,4,0c-0.8,1.7-1.4,3.4-1.5,5.2C34.5,92,34.9,92,35,91.5
		c1.1-4.5,7.1-3.3,6.9,1c-0.2,3.5-3.4,4.2-5.1,3.1c-0.7-0.4-0.6-0.2-0.3,0.3C39,98.8,37.4,102.6,34,102.7
		C34.1,102.7,34.1,102.7,34,102.7L34,102.7z"/>
	<path id="path147-6-9-8-7-0-5-4-9-1" inkscape:connector-curvature="0" sodipodi:nodetypes="ccccccccccccccc" class="st1" d="
		M66.6,96.6c1.4,0,2-1.6,1-2.9c-0.1-0.2-0.2-0.3,0.1-0.1c0.7,0.5,2,0.2,2-1.3c0.1-1.8-2.3-2.3-2.7-0.4c0,0.2-0.2,0.2-0.1-0.1
		c0-0.8,0.3-1.5,0.6-2.2c-0.5,0-1.1,0-1.6,0c0.3,0.7,0.5,1.4,0.6,2.2c0,0.3-0.1,0.3-0.1,0.1c-0.4-1.9-2.8-1.4-2.7,0.4
		c0.1,1.4,1.4,1.7,2,1.3c0.3-0.2,0.3-0.1,0.1,0.1C64.7,94.9,65.3,96.5,66.6,96.6C66.6,96.6,66.6,96.6,66.6,96.6L66.6,96.6z"/>
	<path id="path147-6-9-8-7-4-5-9-2-7" inkscape:connector-curvature="0" sodipodi:nodetypes="ccccccccccccccc" class="st1" d="
		M1.5,23.3c-1.4,0-2,1.6-1,2.9c0.1,0.2,0.2,0.3-0.1,0.1c-0.7-0.5-2-0.2-2,1.3c-0.1,1.8,2.3,2.3,2.7,0.4c0-0.2,0.2-0.2,0.1,0.1
		c0,0.8-0.3,1.5-0.6,2.2c0.5,0,1.1,0,1.6,0c-0.3-0.7-0.5-1.4-0.6-2.2c0-0.3,0.1-0.3,0.1-0.1c0.4,1.9,2.8,1.4,2.7-0.4
		c-0.1-1.4-1.4-1.7-2-1.3c-0.3,0.2-0.3,0.1-0.1-0.1C3.4,24.9,2.8,23.4,1.5,23.3C1.5,23.3,1.5,23.3,1.5,23.3L1.5,23.3z"/>
	<path id="path15-9-1-0-1" inkscape:connector-curvature="0" class="st1" d="M-2,22.2l0.1-0.7c0.2-2.2,0.6-2.9,3.3-5.2
		c1.3-1.1,1.7-1.6,1.8-2.3c0.2-1.5-1.1-1.9-2-2c-1.1,0-2.4,0.7-1.8,2.2l-1.2,0.4c-0.2-1.5,0-2.8,1.2-3.4c1.6-0.8,3.5-0.5,4.6,0.8
		c0.7,0.8,0.8,2,0.5,2.9c-1.1,2.3-4.7,3.3-4.9,6h4v-1.5h1.2v2.8L-2,22.2L-2,22.2z"/>
	<path id="path15-5-7-4-9-4" inkscape:connector-curvature="0" class="st1" d="M69.9,97.7l-0.1,0.7c-0.2,2.2-0.6,2.9-3.3,5.2
		c-1.3,1.1-1.7,1.6-1.8,2.3c-0.2,1.5,1.1,1.9,2,2c1.1,0,2.4-0.7,1.8-2.2l1.2-0.4c0.2,1.5,0,2.8-1.2,3.4c-1.6,0.8-3.5,0.5-4.6-0.8
		c-0.7-0.8-0.8-2-0.5-2.9c1.1-2.3,4.7-3.3,4.9-6h-4v1.5h-1.2v-2.8L69.9,97.7L69.9,97.7z"/>
</g>
</svg>
