<!-- Generator: Adobe Illustrator 19.2.0, SVG Export Plug-In  -->
<svg version="1.1"
	 xmlns="http://www.w3.org/2000/svg" xmlns:xlink="http://www.w3.org/1999/xlink" xmlns:a="http://ns.adobe.com/AdobeSVGViewerExtensions/3.0/"
	 x="0px" y="0px" width="78.1px" height="108.8px" viewBox="0 0 78.1 108.8" style="enable-background:new 0 0 78.1 108.8;"
	 xml:space="preserve">
<style type="text/css">
	.st0{fill:#FFFFFF;stroke:#010101;stroke-width:1.0006;}
	.st1{fill:#010101;}
</style>
<defs>
</defs>
<g id="C3" transform="translate(3.9868881,-5.5524942)">
	<g id="layer1-33-1-4-5-7" transform="matrix(0.99553774,0,0,0.99680134,732.71268,-1457.4607)" inkscape:label="5D">
		<path id="rect6355-6-85-2-7-5" class="st0" d="M-735.8,1468.2h70c2,0,3.7,1.7,3.7,3.7v100.7c0,2-1.7,3.7-3.7,3.7h-70
			c-2,0-3.7-1.7-3.7-3.7v-100.7C-739.5,1469.9-737.8,1468.2-735.8,1468.2z"/>
	</g>
	<path id="path147-0-8-1-6-7-2-5-9-2" inkscape:connector-curvature="0" sodipodi:nodetypes="ccccccccccccccc" class="st1" d="
		M35,17.5c-3.4,0.1-4.9,3.9-2.4,6.9c0.4,0.4,0.4,0.7-0.3,0.3c-1.7-1.1-4.9-0.4-5.1,3.1c-0.2,4.3,5.7,5.5,6.9,1
		c0.1-0.5,0.4-0.5,0.4,0.2c-0.1,1.8-0.7,3.6-1.5,5.2c1.3,0,2.8,0,4,0c-0.8-1.7-1.4-3.4-1.5-5.2c-0.1-0.7,0.3-0.7,0.4-0.2
		c1.1,4.5,7.1,3.3,6.9-1c-0.2-3.5-3.4-4.2-5.1-3.1c-0.7,0.4-0.6,0.2-0.3-0.3C40,21.4,38.4,17.6,35,17.5C35,17.5,35,17.5,35,17.5
		L35,17.5z"/>
	<path id="path147-0-8-1-6-1-4-3-4-3" inkscape:connector-curvature="0" sodipodi:nodetypes="ccccccccccccccc" class="st1" d="
		M35,102.7c-3.4-0.1-4.9-3.9-2.4-6.9c0.4-0.4,0.4-0.7-0.3-0.3c-1.7,1.1-4.9,0.4-5.1-3.1c-0.2-4.3,5.7-5.5,6.9-1
		c0.1,0.5,0.4,0.5,0.4-0.2c-0.1-1.8-0.7-3.6-1.5-5.2c1.3,0,2.8,0,4,0c-0.8,1.7-1.4,3.4-1.5,5.2c-0.1,0.7,0.3,0.7,0.4,0.2
		c1.1-4.5,7.1-3.3,6.9,1c-0.2,3.5-3.4,4.2-5.1,3.1c-0.7-0.4-0.6-0.2-0.3,0.3C40,98.8,38.4,102.6,35,102.7
		C35,102.7,35,102.7,35,102.7L35,102.7z"/>
	<path id="path147-0-8-1-6-1-1-0-4-8-8" inkscape:connector-curvature="0" sodipodi:nodetypes="ccccccccccccccc" class="st1" d="
		M35,51.8c-3.4,0.1-4.9,3.9-2.4,6.9c0.4,0.4,0.4,0.7-0.3,0.3c-1.7-1.1-4.9-0.4-5.1,3.1c-0.2,4.3,5.7,5.5,6.9,1
		c0.1-0.5,0.4-0.5,0.4,0.2c-0.1,1.8-0.7,3.6-1.5,5.2c1.3,0,2.8,0,4,0c-0.8-1.7-1.4-3.4-1.5-5.2c-0.1-0.7,0.3-0.7,0.4-0.2
		c1.1,4.5,7.1,3.3,6.9-1c-0.2-3.5-3.4-4.2-5.1-3.1c-0.7,0.4-0.6,0.2-0.3-0.3C40,55.7,38.4,51.9,35,51.8C35,51.8,35,51.8,35,51.8
		L35,51.8z"/>
	<path id="path147-6-9-8-7-0-5-5-1-4" inkscape:connector-curvature="0" sodipodi:nodetypes="ccccccccccccccc" class="st1" d="
		M67.6,96.6c1.4,0,2-1.6,1-2.9c-0.1-0.2-0.2-0.3,0.1-0.1c0.7,0.5,2,0.2,2-1.3c0.1-1.8-2.3-2.3-2.7-0.4c0,0.2-0.2,0.2-0.1-0.1
		c0-0.8,0.3-1.5,0.6-2.2c-0.5,0-1.1,0-1.6,0c0.3,0.7,0.5,1.4,0.6,2.2c0,0.3-0.1,0.3-0.1,0.1c-0.4-1.9-2.8-1.4-2.7,0.4
		c0.1,1.4,1.4,1.7,2,1.3c0.3-0.2,0.3-0.1,0.1,0.1C65.7,94.9,66.3,96.5,67.6,96.6C67.6,96.6,67.6,96.6,67.6,96.6L67.6,96.6z"/>
	<path id="path147-6-9-8-7-4-5-8-2-3" inkscape:connector-curvature="0" sodipodi:nodetypes="ccccccccccccccc" class="st1" d="
		M2.5,23.3c-1.4,0-2,1.6-1,2.9c0.1,0.2,0.2,0.3-0.1,0.1c-0.7-0.5-2-0.2-2,1.3c-0.1,1.8,2.3,2.3,2.7,0.4c0-0.2,0.2-0.2,0.1,0.1
		c0,0.8-0.3,1.5-0.6,2.2c0.5,0,1.1,0,1.6,0c-0.3-0.7-0.5-1.4-0.6-2.2c0-0.3,0.1-0.3,0.1-0.1c0.4,1.9,2.8,1.4,2.7-0.4
		c-0.1-1.4-1.4-1.7-2-1.3c-0.3,0.2-0.3,0.1-0.1-0.1C4.4,24.9,3.8,23.4,2.5,23.3C2.5,23.3,2.5,23.3,2.5,23.3L2.5,23.3z"/>
	<path id="path17-9-7-6-4" inkscape:connector-curvature="0" class="st1" d="M-1.2,19.7l0.9-0.6c0.8,1.2,1.6,2.1,2.9,1.9
		c2-0.1,2.8-2.2,2.4-3.7c-0.4-1.4-2-2.1-3.3-1.3C1.3,16.1,1,16.3,1,16.3c-0.1,0-0.4-0.6-0.4-0.8c0.9-1.3,3-3.5,3-3.5H0.2v1.5H-1
		v-2.7h6.4v0.9c0,0-1.7,1.8-2.3,2.8c1.4,0.1,2.5,0.9,2.9,2.3c0.2,0.7,0.1,2.4-0.2,3.2c-0.5,1.2-1.9,2.2-3.2,2.3
		C0.5,22.4-0.7,20.9-1.2,19.7L-1.2,19.7L-1.2,19.7z"/>
	<path id="path17-5-0-1-5-7" inkscape:connector-curvature="0" class="st1" d="M71.3,100.1l-0.9,0.6c-0.8-1.2-1.6-2.1-2.9-1.9
		c-2,0.1-2.8,2.2-2.4,3.7c0.4,1.4,2,2.1,3.3,1.3c0.3-0.2,0.6-0.3,0.7-0.3c0.1,0,0.4,0.6,0.4,0.8c-0.9,1.3-3,3.5-3,3.5h3.3v-1.5h1.3
		v2.7h-6.4v-0.9c0,0,1.7-1.8,2.3-2.8c-1.4-0.1-2.5-0.9-2.9-2.3c-0.2-0.7-0.1-2.4,0.2-3.2c0.5-1.2,1.9-2.2,3.2-2.3
		C69.6,97.5,70.8,99,71.3,100.1L71.3,100.1L71.3,100.1z"/>
</g>
</svg>
