<!-- Generator: Adobe Illustrator 19.2.0, SVG Export Plug-In  -->
<svg version="1.1"
	 xmlns="http://www.w3.org/2000/svg" xmlns:xlink="http://www.w3.org/1999/xlink" xmlns:a="http://ns.adobe.com/AdobeSVGViewerExtensions/3.0/"
	 x="0px" y="0px" width="78.1px" height="108.8px" viewBox="0 0 78.1 108.8" style="enable-background:new 0 0 78.1 108.8;"
	 xml:space="preserve">
<style type="text/css">
	.st0{fill:#FFFFFF;stroke:#010101;stroke-width:0.9967;}
	.st1{fill:#010101;}
</style>
<defs>
</defs>
<g id="C4" transform="matrix(0.99999718,0,0,1.000002,2.9940799,-5.5506344)">
	<path id="rect6355-6-85-3-72-9" class="st0" d="M1.2,6h69.7c2,0,3.7,1.7,3.7,3.7v100.4c0,2-1.7,3.7-3.7,3.7H1.2
		c-2,0-3.7-1.7-3.7-3.7V9.7C-2.5,7.7-0.8,6,1.2,6z"/>
	<path id="path147-0-8-1-6-13-2-06-7" inkscape:connector-curvature="0" sodipodi:nodetypes="ccccccccccccccc" class="st1" d="
		M53.9,17.5c-3.4,0.1-4.9,3.9-2.4,6.9c0.4,0.4,0.4,0.7-0.3,0.3c-1.7-1.1-4.9-0.4-5.1,3.1c-0.2,4.3,5.7,5.5,6.9,1
		c0.1-0.5,0.4-0.5,0.4,0.2c-0.1,1.8-0.7,3.6-1.5,5.2c1.3,0,2.8,0,4,0c-0.8-1.7-1.4-3.4-1.5-5.2c-0.1-0.7,0.3-0.7,0.4-0.2
		c1.1,4.5,7.1,3.3,6.9-1c-0.2-3.5-3.4-4.2-5.1-3.1c-0.7,0.4-0.6,0.2-0.3-0.3C58.8,21.4,57.3,17.6,53.9,17.5
		C53.9,17.5,53.9,17.5,53.9,17.5L53.9,17.5z"/>
	
		<path id="path147-0-8-1-6-75-2-83-35-3" inkscape:connector-curvature="0" inkscape:transform-center-x="-110.30866" inkscape:transform-center-y="0.35355339" sodipodi:nodetypes="ccccccccccccccc" class="st1" d="
		M18.2,17.5c-3.4,0.1-4.9,3.9-2.4,6.9c0.4,0.4,0.4,0.7-0.3,0.3c-1.7-1.1-4.9-0.4-5.1,3.1c-0.2,4.3,5.7,5.5,6.9,1
		c0.1-0.5,0.4-0.5,0.4,0.2c-0.1,1.8-0.7,3.6-1.5,5.2c1.3,0,2.8,0,4,0c-0.8-1.7-1.4-3.4-1.5-5.2c-0.1-0.7,0.3-0.7,0.4-0.2
		c1.1,4.5,7.1,3.3,6.9-1c-0.2-3.5-3.4-4.2-5.1-3.1c-0.7,0.4-0.6,0.2-0.3-0.3C23.1,21.4,21.6,17.6,18.2,17.5
		C18.2,17.5,18.2,17.5,18.2,17.5L18.2,17.5z"/>
	
		<path id="path147-0-8-1-6-7-5-5-7-77-6" inkscape:connector-curvature="0" sodipodi:nodetypes="ccccccccccccccc" class="st1" d="
		M53.9,102.7c-3.4-0.1-4.9-3.9-2.4-6.9c0.4-0.4,0.4-0.7-0.3-0.3c-1.7,1.1-4.9,0.4-5.1-3.1c-0.2-4.3,5.7-5.5,6.9-1
		c0.1,0.5,0.4,0.5,0.4-0.2c-0.1-1.8-0.7-3.6-1.5-5.2c1.3,0,2.8,0,4,0c-0.8,1.7-1.4,3.4-1.5,5.2c-0.1,0.7,0.3,0.7,0.4,0.2
		c1.1-4.5,7.1-3.3,6.9,1c-0.2,3.5-3.4,4.2-5.1,3.1c-0.7-0.4-0.6-0.2-0.3,0.3C58.8,98.8,57.3,102.6,53.9,102.7
		C53.9,102.7,53.9,102.7,53.9,102.7L53.9,102.7z"/>
	
		<path id="path147-0-8-1-6-75-6-1-2-08-0" inkscape:connector-curvature="0" inkscape:transform-center-x="-110.30866" inkscape:transform-center-y="-0.35355495" sodipodi:nodetypes="ccccccccccccccc" class="st1" d="
		M18.2,102.7c-3.4-0.1-4.9-3.9-2.4-6.9c0.4-0.4,0.4-0.7-0.3-0.3c-1.7,1.1-4.9,0.4-5.1-3.1c-0.2-4.3,5.7-5.5,6.9-1
		c0.1,0.5,0.4,0.5,0.4-0.2c-0.1-1.8-0.7-3.6-1.5-5.2c1.3,0,2.8,0,4,0c-0.8,1.7-1.4,3.4-1.5,5.2C18.6,92,19,92,19.1,91.5
		c1.1-4.5,7.1-3.3,6.9,1c-0.2,3.5-3.4,4.2-5.1,3.1c-0.7-0.4-0.6-0.2-0.3,0.3C23.1,98.8,21.6,102.6,18.2,102.7
		C18.2,102.7,18.2,102.7,18.2,102.7L18.2,102.7z"/>
	<path id="path147-6-9-8-7-0-5-6-17-9" inkscape:connector-curvature="0" sodipodi:nodetypes="ccccccccccccccc" class="st1" d="
		M68.6,96.6c1.4,0,2-1.6,1-2.9c-0.1-0.2-0.2-0.3,0.1-0.1c0.7,0.5,2,0.2,2-1.3c0.1-1.8-2.3-2.3-2.7-0.4c0,0.2-0.2,0.2-0.1-0.1
		c0-0.8,0.3-1.5,0.6-2.2c-0.5,0-1.1,0-1.6,0c0.3,0.7,0.5,1.4,0.6,2.2c0,0.3-0.1,0.3-0.1,0.1c-0.4-1.9-2.8-1.4-2.7,0.4
		c0.1,1.4,1.4,1.7,2,1.3c0.3-0.2,0.3-0.1,0.1,0.1C66.7,94.9,67.3,96.5,68.6,96.6C68.6,96.6,68.6,96.6,68.6,96.6L68.6,96.6z"/>
	<path id="path147-6-9-8-7-4-5-62-79-3" inkscape:connector-curvature="0" sodipodi:nodetypes="ccccccccccccccc" class="st1" d="
		M3.4,23.3c-1.4,0-2,1.6-1,2.9c0.1,0.2,0.2,0.3-0.1,0.1c-0.7-0.5-2-0.2-2,1.3c-0.1,1.8,2.3,2.3,2.7,0.4c0-0.2,0.2-0.2,0.1,0.1
		c0,0.8-0.3,1.5-0.6,2.2c0.5,0,1.1,0,1.6,0c-0.3-0.7-0.5-1.4-0.6-2.2c0-0.3,0.1-0.3,0.1-0.1c0.4,1.9,2.8,1.4,2.7-0.4
		c-0.1-1.4-1.4-1.7-2-1.3c-0.3,0.2-0.3,0.1-0.1-0.1C5.4,24.9,4.8,23.4,3.4,23.3C3.4,23.3,3.4,23.3,3.4,23.3L3.4,23.3z"/>
	<path id="path19-0-7-3" inkscape:connector-curvature="0" class="st1" d="M3.5,22.2v-1h0.9v-1.7h-4.5v-1.2l4.9-7.6l0.8,0v7.6H7
		v1.2H5.6l0,1.7h0.8v1L3.5,22.2L3.5,22.2z M4.4,13.6l-3.1,4.8h3.1V13.6z"/>
	<path id="path19-4-4-9-1" inkscape:connector-curvature="0" class="st1" d="M68.5,97.6v1h-0.9v1.7h4.5v1.2l-4.9,7.6l-0.8,0v-7.6
		h-1.4v-1.2h1.4l0-1.7h-0.8v-1L68.5,97.6L68.5,97.6z M67.6,106.3l3.1-4.8h-3.1V106.3z"/>
</g>
</svg>
