 <!-- Generator: Adobe Illustrator 19.2.0, SVG Export Plug-In  -->
<svg version="1.1"
	 xmlns="http://www.w3.org/2000/svg" xmlns:xlink="http://www.w3.org/1999/xlink" xmlns:a="http://ns.adobe.com/AdobeSVGViewerExtensions/3.0/"
	 x="0px" y="0px" width="78.1px" height="108.8px" viewBox="0 0 78.1 108.8" style="enable-background:new 0 0 78.1 108.8;"
	 xml:space="preserve">
<style type="text/css">
	.st0{fill:#FFFFFF;stroke:#010101;stroke-width:0.9967;}
	.st1{fill:#010101;}
</style>
<defs>
</defs>
<g id="C6" transform="matrix(0.99999718,0,0,1.000002,1.0020682,-5.5505123)">
	<path id="rect6355-6-85-3-2-3-6" class="st0" d="M3.2,6h69.7c2,0,3.7,1.7,3.7,3.7v100.4c0,2-1.7,3.7-3.7,3.7H3.2
		c-2,0-3.7-1.7-3.7-3.7V9.7C-0.5,7.7,1.1,6,3.2,6z"/>
	<path id="path147-0-8-1-6-13-2-5-7-1" inkscape:connector-curvature="0" sodipodi:nodetypes="ccccccccccccccc" class="st1" d="
		M55.9,17.5c-3.4,0.1-4.9,3.9-2.4,6.9c0.4,0.4,0.4,0.7-0.3,0.3c-1.7-1.1-4.9-0.4-5.1,3.1c-0.2,4.3,5.7,5.5,6.9,1
		c0.1-0.5,0.4-0.5,0.4,0.2c-0.1,1.8-0.7,3.6-1.5,5.2c1.3,0,2.8,0,4,0c-0.8-1.7-1.4-3.4-1.5-5.2c-0.1-0.7,0.3-0.7,0.4-0.2
		c1.1,4.5,7.1,3.3,6.9-1c-0.2-3.5-3.4-4.2-5.1-3.1c-0.7,0.4-0.6,0.2-0.3-0.3C60.8,21.4,59.3,17.6,55.9,17.5
		C55.9,17.5,55.9,17.5,55.9,17.5L55.9,17.5z"/>
	
		<path id="path147-0-8-1-6-75-2-83-8-8-7" inkscape:connector-curvature="0" inkscape:transform-center-x="-110.30866" inkscape:transform-center-y="0.35355339" sodipodi:nodetypes="ccccccccccccccc" class="st1" d="
		M20.2,17.5c-3.4,0.1-4.9,3.9-2.4,6.9c0.4,0.4,0.4,0.7-0.3,0.3c-1.7-1.1-4.9-0.4-5.1,3.1c-0.2,4.3,5.7,5.5,6.9,1
		c0.1-0.5,0.4-0.5,0.4,0.2c-0.1,1.8-0.7,3.6-1.5,5.2c1.3,0,2.8,0,4,0c-0.8-1.7-1.4-3.4-1.5-5.2c-0.1-0.7,0.3-0.7,0.4-0.2
		c1.1,4.5,7.1,3.3,6.9-1c-0.2-3.5-3.4-4.2-5.1-3.1c-0.7,0.4-0.6,0.2-0.3-0.3C25.1,21.4,23.5,17.6,20.2,17.5
		C20.2,17.5,20.2,17.5,20.2,17.5L20.2,17.5z"/>
	
		<path id="path147-0-8-1-6-7-5-5-7-8-7-8" inkscape:connector-curvature="0" sodipodi:nodetypes="ccccccccccccccc" class="st1" d="
		M55.9,102.7c-3.4-0.1-4.9-3.9-2.4-6.9c0.4-0.4,0.4-0.7-0.3-0.3c-1.7,1.1-4.9,0.4-5.1-3.1c-0.2-4.3,5.7-5.5,6.9-1
		c0.1,0.5,0.4,0.5,0.4-0.2c-0.1-1.8-0.7-3.6-1.5-5.2c1.3,0,2.8,0,4,0c-0.8,1.7-1.4,3.4-1.5,5.2c-0.1,0.7,0.3,0.7,0.4,0.2
		c1.1-4.5,7.1-3.3,6.9,1c-0.2,3.5-3.4,4.2-5.1,3.1c-0.7-0.4-0.6-0.2-0.3,0.3C60.8,98.8,59.3,102.6,55.9,102.7
		C55.9,102.7,55.9,102.7,55.9,102.7L55.9,102.7z"/>
	
		<path id="path147-0-8-1-6-75-6-1-2-0-6-8" inkscape:connector-curvature="0" inkscape:transform-center-x="-110.30866" inkscape:transform-center-y="-0.35355495" sodipodi:nodetypes="ccccccccccccccc" class="st1" d="
		M20.2,102.7c-3.4-0.1-4.9-3.9-2.4-6.9c0.4-0.4,0.4-0.7-0.3-0.3c-1.7,1.1-4.9,0.4-5.1-3.1c-0.2-4.3,5.7-5.5,6.9-1
		c0.1,0.5,0.4,0.5,0.4-0.2c-0.1-1.8-0.7-3.6-1.5-5.2c1.3,0,2.8,0,4,0c-0.8,1.7-1.4,3.4-1.5,5.2C20.6,92,21,92,21.1,91.5
		c1.1-4.5,7.1-3.3,6.9,1c-0.2,3.5-3.4,4.2-5.1,3.1c-0.7-0.4-0.6-0.2-0.3,0.3C25.1,98.8,23.5,102.6,20.2,102.7
		C20.2,102.7,20.2,102.7,20.2,102.7L20.2,102.7z"/>
	
		<path id="path147-0-8-1-6-7-5-7-3-0-9-6-4" inkscape:connector-curvature="0" sodipodi:nodetypes="ccccccccccccccc" class="st1" d="
		M55.9,51.8c-3.4,0.1-4.9,3.9-2.4,6.9c0.4,0.4,0.4,0.7-0.3,0.3c-1.7-1.1-4.9-0.4-5.1,3.1c-0.2,4.3,5.7,5.5,6.9,1
		c0.1-0.5,0.4-0.5,0.4,0.2c-0.1,1.8-0.7,3.6-1.5,5.2c1.3,0,2.8,0,4,0c-0.8-1.7-1.4-3.4-1.5-5.2c-0.1-0.7,0.3-0.7,0.4-0.2
		c1.1,4.5,7.1,3.3,6.9-1c-0.2-3.5-3.4-4.2-5.1-3.1c-0.7,0.4-0.6,0.2-0.3-0.3C60.8,55.7,59.3,51.9,55.9,51.8
		C55.9,51.8,55.9,51.8,55.9,51.8L55.9,51.8z"/>
	
		<path id="path147-0-8-1-6-75-6-6-5-3-0-0-2" inkscape:connector-curvature="0" inkscape:transform-center-x="-110.30866" inkscape:transform-center-y="0.35355651" sodipodi:nodetypes="ccccccccccccccc" class="st1" d="
		M20.2,51.8c-3.4,0.1-4.9,3.9-2.4,6.9c0.4,0.4,0.4,0.7-0.3,0.3c-1.7-1.1-4.9-0.4-5.1,3.1c-0.2,4.3,5.7,5.5,6.9,1
		c0.1-0.5,0.4-0.5,0.4,0.2c-0.1,1.8-0.7,3.6-1.5,5.2c1.3,0,2.8,0,4,0c-0.8-1.7-1.4-3.4-1.5-5.2c-0.1-0.7,0.3-0.7,0.4-0.2
		c1.1,4.5,7.1,3.3,6.9-1c-0.2-3.5-3.4-4.2-5.1-3.1c-0.7,0.4-0.6,0.2-0.3-0.3C25.1,55.7,23.5,51.9,20.2,51.8
		C20.2,51.8,20.2,51.8,20.2,51.8L20.2,51.8z"/>
	<path id="path147-6-9-8-7-0-5-6-4-2-8" inkscape:connector-curvature="0" sodipodi:nodetypes="ccccccccccccccc" class="st1" d="
		M70.6,96.6c1.4,0,2-1.6,1-2.9c-0.1-0.2-0.2-0.3,0.1-0.1c0.7,0.5,2,0.2,2-1.3c0.1-1.8-2.3-2.3-2.7-0.4c0,0.2-0.2,0.2-0.1-0.1
		c0-0.8,0.3-1.5,0.6-2.2c-0.5,0-1.1,0-1.6,0c0.3,0.7,0.5,1.4,0.6,2.2c0,0.3-0.1,0.3-0.1,0.1c-0.4-1.9-2.8-1.4-2.7,0.4
		c0.1,1.4,1.4,1.7,2,1.3c0.3-0.2,0.3-0.1,0.1,0.1C68.7,94.9,69.3,96.5,70.6,96.6C70.6,96.6,70.6,96.6,70.6,96.6L70.6,96.6z"/>
	
		<path id="path147-6-9-8-7-4-5-62-0-2-9" inkscape:connector-curvature="0" sodipodi:nodetypes="ccccccccccccccc" class="st1" d="
		M5.4,23.3c-1.4,0-2,1.6-1,2.9c0.1,0.2,0.2,0.3-0.1,0.1c-0.7-0.5-2-0.2-2,1.3c-0.1,1.8,2.3,2.3,2.7,0.4c0-0.2,0.2-0.2,0.1,0.1
		c0,0.8-0.3,1.5-0.6,2.2c0.5,0,1.1,0,1.6,0c-0.3-0.7-0.5-1.4-0.6-2.2c0-0.3,0.1-0.3,0.1-0.1c0.4,1.9,2.8,1.4,2.7-0.4
		c-0.1-1.4-1.4-1.7-2-1.3c-0.3,0.2-0.3,0.1-0.1-0.1C7.4,24.9,6.8,23.4,5.4,23.3C5.4,23.3,5.4,23.3,5.4,23.3L5.4,23.3z"/>
	<path id="path23-8-1-4" inkscape:connector-curvature="0" class="st1" d="M2.1,18.7c-0.1-1-0.1-3.4,0-4.2
		c0.4-2.2,1.2-3.3,2.6-3.6c1.4-0.3,3.4,0,3.8,1.9l-1.2,0c-0.6-1.3-2.2-0.9-3.1-0.4c-0.7,0.4-1,2.3-0.9,2.4c0,0,1.4-1,2.4-0.9
		C8,14.2,9,16.2,8.9,18.1c-0.1,2.3-0.8,4.1-3.2,4.2C3.4,22.2,2.3,20.9,2.1,18.7L2.1,18.7L2.1,18.7z M7.8,18.1c0-1.6-0.7-2.7-2-2.9
		C4.4,15.1,3,16.5,3.1,18C3.2,19.6,3.8,21,5.5,21C7.2,21,7.8,19.2,7.8,18.1L7.8,18.1L7.8,18.1z"/>
	<path id="path23-6-8-9-6" inkscape:connector-curvature="0" class="st1" d="M74,101.2c0.1,1,0.1,3.4,0,4.2
		c-0.4,2.2-1.2,3.3-2.6,3.6c-1.4,0.3-3.4,0-3.8-1.9l1.2,0c0.6,1.3,2.2,0.9,3.1,0.4c0.7-0.4,1-2.3,0.9-2.4c0,0-1.4,1-2.4,0.9
		c-2.3-0.2-3.2-2.2-3.2-4.1c0.1-2.3,0.8-4.1,3.2-4.2C72.7,97.7,73.7,99,74,101.2L74,101.2L74,101.2z M68.3,101.7
		c0,1.6,0.7,2.7,2,2.9c1.3,0.1,2.7-1.2,2.6-2.8c-0.1-1.6-0.7-2.9-2.3-2.9C68.8,98.9,68.3,100.6,68.3,101.7L68.3,101.7L68.3,101.7z"
		/>
</g>
</svg>
