 <!-- Generator: Adobe Illustrator 19.2.0, SVG Export Plug-In  -->
<svg version="1.1"
	 xmlns="http://www.w3.org/2000/svg" xmlns:xlink="http://www.w3.org/1999/xlink" xmlns:a="http://ns.adobe.com/AdobeSVGViewerExtensions/3.0/"
	 x="0px" y="0px" width="78.1px" height="108.8px" viewBox="0 0 78.1 108.8" style="enable-background:new 0 0 78.1 108.8;"
	 xml:space="preserve">
<style type="text/css">
	.st0{fill:#FFFFFF;stroke:#010101;stroke-width:0.9967;}
	.st1{fill:#010101;}
</style>
<defs>
</defs>
<g id="C7" transform="matrix(0.99999718,0,0,1.000002,0.0059402,-5.5505123)">
	<path id="rect6355-6-85-3-1-8-1" class="st0" d="M4.2,6h69.7c2,0,3.7,1.7,3.7,3.7v100.4c0,2-1.7,3.7-3.7,3.7H4.2
		c-2,0-3.7-1.7-3.7-3.7V9.7C0.5,7.7,2.1,6,4.2,6z"/>
	<path id="path147-0-8-1-6-13-2-0-1-5" inkscape:connector-curvature="0" sodipodi:nodetypes="ccccccccccccccc" class="st1" d="
		M56.9,17.5c-3.4,0.1-4.9,3.9-2.4,6.9c0.4,0.4,0.4,0.7-0.3,0.3c-1.7-1.1-4.9-0.4-5.1,3.1c-0.2,4.3,5.7,5.5,6.9,1
		c0.1-0.5,0.4-0.5,0.4,0.2c-0.1,1.8-0.7,3.6-1.5,5.2c1.3,0,2.8,0,4,0c-0.8-1.7-1.4-3.4-1.5-5.2c-0.1-0.7,0.3-0.7,0.4-0.2
		c1.1,4.5,7.1,3.3,6.9-1c-0.2-3.5-3.4-4.2-5.1-3.1c-0.7,0.4-0.6,0.2-0.3-0.3C61.8,21.4,60.3,17.6,56.9,17.5
		C56.9,17.5,56.9,17.5,56.9,17.5L56.9,17.5z"/>
	
		<path id="path147-0-8-1-6-75-2-83-2-0-7" inkscape:connector-curvature="0" inkscape:transform-center-x="-110.30866" inkscape:transform-center-y="0.35355339" sodipodi:nodetypes="ccccccccccccccc" class="st1" d="
		M21.2,17.5c-3.4,0.1-4.9,3.9-2.4,6.9c0.4,0.4,0.4,0.7-0.3,0.3c-1.7-1.1-4.9-0.4-5.1,3.1c-0.2,4.3,5.7,5.5,6.9,1
		c0.1-0.5,0.4-0.5,0.4,0.2c-0.1,1.8-0.7,3.6-1.5,5.2c1.3,0,2.8,0,4,0c-0.8-1.7-1.4-3.4-1.5-5.2c-0.1-0.7,0.3-0.7,0.4-0.2
		c1.1,4.5,7.1,3.3,6.9-1c-0.2-3.5-3.4-4.2-5.1-3.1c-0.7,0.4-0.6,0.2-0.3-0.3C26.1,21.4,24.5,17.6,21.2,17.5
		C21.2,17.5,21.2,17.5,21.2,17.5L21.2,17.5z"/>
	
		<path id="path147-0-8-1-6-7-5-5-7-7-7-6" inkscape:connector-curvature="0" sodipodi:nodetypes="ccccccccccccccc" class="st1" d="
		M56.9,102.7c-3.4-0.1-4.9-3.9-2.4-6.9c0.4-0.4,0.4-0.7-0.3-0.3c-1.7,1.1-4.9,0.4-5.1-3.1c-0.2-4.3,5.7-5.5,6.9-1
		c0.1,0.5,0.4,0.5,0.4-0.2c-0.1-1.8-0.7-3.6-1.5-5.2c1.3,0,2.8,0,4,0c-0.8,1.7-1.4,3.4-1.5,5.2c-0.1,0.7,0.3,0.7,0.4,0.2
		c1.1-4.5,7.1-3.3,6.9,1c-0.2,3.5-3.4,4.2-5.1,3.1c-0.7-0.4-0.6-0.2-0.3,0.3C61.8,98.8,60.3,102.6,56.9,102.7
		C56.9,102.7,56.9,102.7,56.9,102.7L56.9,102.7z"/>
	
		<path id="path147-0-8-1-6-75-6-1-2-9-1-9" inkscape:connector-curvature="0" inkscape:transform-center-x="-110.30866" inkscape:transform-center-y="-0.35355495" sodipodi:nodetypes="ccccccccccccccc" class="st1" d="
		M21.2,102.7c-3.4-0.1-4.9-3.9-2.4-6.9c0.4-0.4,0.4-0.7-0.3-0.3c-1.7,1.1-4.9,0.4-5.1-3.1c-0.2-4.3,5.7-5.5,6.9-1
		c0.1,0.5,0.4,0.5,0.4-0.2c-0.1-1.8-0.7-3.6-1.5-5.2c1.3,0,2.8,0,4,0c-0.8,1.7-1.4,3.4-1.5,5.2C21.6,92,22,92,22.1,91.5
		c1.1-4.5,7.1-3.3,6.9,1c-0.2,3.5-3.4,4.2-5.1,3.1c-0.7-0.4-0.6-0.2-0.3,0.3C26.1,98.8,24.5,102.6,21.2,102.7
		C21.2,102.7,21.2,102.7,21.2,102.7L21.2,102.7z"/>
	
		<path id="path147-0-8-1-6-2-00-7-2-3-4" inkscape:connector-curvature="0" sodipodi:nodetypes="ccccccccccccccc" class="st1" d="
		M39,34.6c-3.4,0.1-4.9,3.9-2.4,6.9c0.4,0.4,0.4,0.7-0.3,0.3c-1.7-1.1-4.9-0.4-5.1,3.1c-0.2,4.3,5.7,5.5,6.9,1
		c0.1-0.5,0.4-0.5,0.4,0.2c-0.1,1.8-0.7,3.6-1.5,5.2c1.3,0,2.8,0,4,0c-0.8-1.7-1.4-3.4-1.5-5.2c-0.1-0.7,0.3-0.7,0.4-0.2
		c1.1,4.5,7.1,3.3,6.9-1c-0.2-3.5-3.4-4.2-5.1-3.1c-0.7,0.4-0.6,0.2-0.3-0.3C43.9,38.5,42.4,34.7,39,34.6C39,34.6,39,34.6,39,34.6
		L39,34.6z"/>
	
		<path id="path147-0-8-1-6-7-5-7-3-0-1-7-4" inkscape:connector-curvature="0" sodipodi:nodetypes="ccccccccccccccc" class="st1" d="
		M56.9,51.8c-3.4,0.1-4.9,3.9-2.4,6.9c0.4,0.4,0.4,0.7-0.3,0.3c-1.7-1.1-4.9-0.4-5.1,3.1c-0.2,4.3,5.7,5.5,6.9,1
		c0.1-0.5,0.4-0.5,0.4,0.2c-0.1,1.8-0.7,3.6-1.5,5.2c1.3,0,2.8,0,4,0c-0.8-1.7-1.4-3.4-1.5-5.2c-0.1-0.7,0.3-0.7,0.4-0.2
		c1.1,4.5,7.1,3.3,6.9-1c-0.2-3.5-3.4-4.2-5.1-3.1c-0.7,0.4-0.6,0.2-0.3-0.3C61.8,55.7,60.3,51.9,56.9,51.8
		C56.9,51.8,56.9,51.8,56.9,51.8L56.9,51.8z"/>
	
		<path id="path147-0-8-1-6-75-6-6-5-3-9-6-0" inkscape:connector-curvature="0" inkscape:transform-center-x="-110.30866" inkscape:transform-center-y="0.35355651" sodipodi:nodetypes="ccccccccccccccc" class="st1" d="
		M21.2,51.8c-3.4,0.1-4.9,3.9-2.4,6.9c0.4,0.4,0.4,0.7-0.3,0.3c-1.7-1.1-4.9-0.4-5.1,3.1c-0.2,4.3,5.7,5.5,6.9,1
		c0.1-0.5,0.4-0.5,0.4,0.2c-0.1,1.8-0.7,3.6-1.5,5.2c1.3,0,2.8,0,4,0c-0.8-1.7-1.4-3.4-1.5-5.2c-0.1-0.7,0.3-0.7,0.4-0.2
		c1.1,4.5,7.1,3.3,6.9-1c-0.2-3.5-3.4-4.2-5.1-3.1c-0.7,0.4-0.6,0.2-0.3-0.3C26.1,55.7,24.5,51.9,21.2,51.8
		C21.2,51.8,21.2,51.8,21.2,51.8L21.2,51.8z"/>
	<path id="path147-6-9-8-7-0-5-6-8-4-3" inkscape:connector-curvature="0" sodipodi:nodetypes="ccccccccccccccc" class="st1" d="
		M71.6,96.6c1.4,0,2-1.6,1-2.9c-0.1-0.2-0.2-0.3,0.1-0.1c0.7,0.5,2,0.2,2-1.3c0.1-1.8-2.3-2.3-2.7-0.4c0,0.2-0.2,0.2-0.1-0.1
		c0-0.8,0.3-1.5,0.6-2.2c-0.5,0-1.1,0-1.6,0c0.3,0.7,0.5,1.4,0.6,2.2c0,0.3-0.1,0.3-0.1,0.1c-0.4-1.9-2.8-1.4-2.7,0.4
		c0.1,1.4,1.4,1.7,2,1.3c0.3-0.2,0.3-0.1,0.1,0.1C69.6,94.9,70.3,96.5,71.6,96.6C71.6,96.6,71.6,96.6,71.6,96.6L71.6,96.6z"/>
	
		<path id="path147-6-9-8-7-4-5-62-5-2-9" inkscape:connector-curvature="0" sodipodi:nodetypes="ccccccccccccccc" class="st1" d="
		M6.4,23.3c-1.4,0-2,1.6-1,2.9c0.1,0.2,0.2,0.3-0.1,0.1c-0.7-0.5-2-0.2-2,1.3c-0.1,1.8,2.3,2.3,2.7,0.4c0-0.2,0.2-0.2,0.1,0.1
		c0,0.8-0.3,1.5-0.6,2.2c0.5,0,1.1,0,1.6,0c-0.3-0.7-0.5-1.4-0.6-2.2c0-0.3,0.1-0.3,0.1-0.1c0.4,1.9,2.8,1.4,2.7-0.4
		c-0.1-1.4-1.4-1.7-2-1.3c-0.3,0.2-0.3,0.1-0.1-0.1C8.4,24.9,7.8,23.4,6.4,23.3L6.4,23.3L6.4,23.3z"/>
	<path id="path25-6-8-8" inkscape:connector-curvature="0" class="st1" d="M4.7,22.2c0.7-4,1.5-6.9,3.6-10.2H4.1v1.4H2.9v-2.6
		h6.2l0.8,1.2C7.7,14.5,5.7,22.4,6,22.2H4.7L4.7,22.2z"/>
	<path id="path25-7-7-3-9" inkscape:connector-curvature="0" class="st1" d="M73.4,97.6c-0.7,4-1.5,6.9-3.6,10.2H74v-1.4h1.1v2.6
		h-6.2l-0.8-1.2c2.2-2.4,4.3-10.3,3.9-10.2H73.4L73.4,97.6z"/>
</g>
</svg>
