<!-- Generator: Adobe Illustrator 19.2.0, SVG Export Plug-In  -->
<svg version="1.1"
	 xmlns="http://www.w3.org/2000/svg" xmlns:xlink="http://www.w3.org/1999/xlink" xmlns:a="http://ns.adobe.com/AdobeSVGViewerExtensions/3.0/"
	 x="0px" y="0px" width="78.1px" height="108.8px" viewBox="0 0 78.1 108.8" style="enable-background:new 0 0 78.1 108.8;"
	 xml:space="preserve">
<style type="text/css">
	.st0{fill:#FFFFFF;stroke:#010101;stroke-width:0.9967;}
	.st1{fill:#010101;}
</style>
<defs>
</defs>
<g id="C8" transform="matrix(0.99999718,0,0,1.000002,-0.9898215,-5.5505123)">
	<path id="rect6355-6-85-3-3-4-3" class="st0" d="M5.2,6h69.7c2,0,3.7,1.7,3.7,3.7v100.4c0,2-1.7,3.7-3.7,3.7H5.2
		c-2,0-3.7-1.7-3.7-3.7V9.7C1.5,7.7,3.1,6,5.2,6z"/>
	<path id="path147-0-8-1-6-13-2-2-3-8" inkscape:connector-curvature="0" sodipodi:nodetypes="ccccccccccccccc" class="st1" d="
		M57.9,17.5c-3.4,0.1-4.9,3.9-2.4,6.9c0.4,0.4,0.4,0.7-0.3,0.3c-1.7-1.1-4.9-0.4-5.1,3.1c-0.2,4.3,5.7,5.5,6.9,1
		c0.1-0.5,0.4-0.5,0.4,0.2c-0.1,1.8-0.7,3.6-1.5,5.2c1.3,0,2.8,0,4,0c-0.8-1.7-1.4-3.4-1.5-5.2c-0.1-0.7,0.3-0.7,0.4-0.2
		c1.1,4.5,7.1,3.3,6.9-1c-0.2-3.5-3.4-4.2-5.1-3.1c-0.7,0.4-0.6,0.2-0.3-0.3C62.8,21.4,61.3,17.6,57.9,17.5
		C57.9,17.5,57.9,17.5,57.9,17.5L57.9,17.5z"/>
	
		<path id="path147-0-8-1-6-75-2-83-9-8-9" inkscape:connector-curvature="0" inkscape:transform-center-x="-110.30866" inkscape:transform-center-y="0.35355339" sodipodi:nodetypes="ccccccccccccccc" class="st1" d="
		M22.1,17.5c-3.4,0.1-4.9,3.9-2.4,6.9c0.4,0.4,0.4,0.7-0.3,0.3c-1.7-1.1-4.9-0.4-5.1,3.1c-0.2,4.3,5.7,5.5,6.9,1
		c0.1-0.5,0.4-0.5,0.4,0.2c-0.1,1.8-0.7,3.6-1.5,5.2c1.3,0,2.8,0,4,0c-0.8-1.7-1.4-3.4-1.5-5.2c-0.1-0.7,0.3-0.7,0.4-0.2
		c1.1,4.5,7.1,3.3,6.9-1c-0.2-3.5-3.4-4.2-5.1-3.1c-0.7,0.4-0.6,0.2-0.3-0.3C27.1,21.4,25.5,17.6,22.1,17.5
		C22.1,17.5,22.1,17.5,22.1,17.5L22.1,17.5z"/>
	
		<path id="path147-0-8-1-6-7-5-5-7-62-3-0" inkscape:connector-curvature="0" sodipodi:nodetypes="ccccccccccccccc" class="st1" d="
		M57.9,102.7c-3.4-0.1-4.9-3.9-2.4-6.9c0.4-0.4,0.4-0.7-0.3-0.3c-1.7,1.1-4.9,0.4-5.1-3.1c-0.2-4.3,5.7-5.5,6.9-1
		c0.1,0.5,0.4,0.5,0.4-0.2c-0.1-1.8-0.7-3.6-1.5-5.2c1.3,0,2.8,0,4,0c-0.8,1.7-1.4,3.4-1.5,5.2c-0.1,0.7,0.3,0.7,0.4,0.2
		c1.1-4.5,7.1-3.3,6.9,1c-0.2,3.5-3.4,4.2-5.1,3.1c-0.7-0.4-0.6-0.2-0.3,0.3C62.8,98.8,61.3,102.6,57.9,102.7
		C57.9,102.7,57.9,102.7,57.9,102.7L57.9,102.7z"/>
	
		<path id="path147-0-8-1-6-75-6-1-2-41-4-5" inkscape:connector-curvature="0" inkscape:transform-center-x="-110.30866" inkscape:transform-center-y="-0.35355495" sodipodi:nodetypes="ccccccccccccccc" class="st1" d="
		M22.1,102.7c-3.4-0.1-4.9-3.9-2.4-6.9c0.4-0.4,0.4-0.7-0.3-0.3c-1.7,1.1-4.9,0.4-5.1-3.1c-0.2-4.3,5.7-5.5,6.9-1
		c0.1,0.5,0.4,0.5,0.4-0.2c-0.1-1.8-0.7-3.6-1.5-5.2c1.3,0,2.8,0,4,0c-0.8,1.7-1.4,3.4-1.5,5.2C22.6,92,23,92,23,91.5
		c1.1-4.5,7.1-3.3,6.9,1c-0.2,3.5-3.4,4.2-5.1,3.1c-0.7-0.4-0.6-0.2-0.3,0.3C27.1,98.8,25.5,102.6,22.1,102.7
		C22.1,102.7,22.1,102.7,22.1,102.7L22.1,102.7z"/>
	
		<path id="path147-0-8-1-6-2-00-7-5-5-3" inkscape:connector-curvature="0" sodipodi:nodetypes="ccccccccccccccc" class="st1" d="
		M40,34.6c-3.4,0.1-4.9,3.9-2.4,6.9c0.4,0.4,0.4,0.7-0.3,0.3c-1.7-1.1-4.9-0.4-5.1,3.1c-0.2,4.3,5.7,5.5,6.9,1
		c0.1-0.5,0.4-0.5,0.4,0.2c-0.1,1.8-0.7,3.6-1.5,5.2c1.3,0,2.8,0,4,0c-0.8-1.7-1.4-3.4-1.5-5.2c-0.1-0.7,0.3-0.7,0.4-0.2
		c1.1,4.5,7.1,3.3,6.9-1c-0.2-3.5-3.4-4.2-5.1-3.1c-0.7,0.4-0.6,0.2-0.3-0.3C44.9,38.5,43.4,34.7,40,34.6C40,34.6,40,34.6,40,34.6
		L40,34.6z"/>
	
		<path id="path147-0-8-1-6-7-5-7-3-0-4-4-6" inkscape:connector-curvature="0" sodipodi:nodetypes="ccccccccccccccc" class="st1" d="
		M57.9,51.8c-3.4,0.1-4.9,3.9-2.4,6.9c0.4,0.4,0.4,0.7-0.3,0.3c-1.7-1.1-4.9-0.4-5.1,3.1c-0.2,4.3,5.7,5.5,6.9,1
		c0.1-0.5,0.4-0.5,0.4,0.2c-0.1,1.8-0.7,3.6-1.5,5.2c1.3,0,2.8,0,4,0c-0.8-1.7-1.4-3.4-1.5-5.2c-0.1-0.7,0.3-0.7,0.4-0.2
		c1.1,4.5,7.1,3.3,6.9-1c-0.2-3.5-3.4-4.2-5.1-3.1c-0.7,0.4-0.6,0.2-0.3-0.3C62.8,55.7,61.3,51.9,57.9,51.8
		C57.9,51.8,57.9,51.8,57.9,51.8L57.9,51.8z"/>
	
		<path id="path147-0-8-1-6-75-6-6-5-3-2-4-8" inkscape:connector-curvature="0" inkscape:transform-center-x="-110.30866" inkscape:transform-center-y="0.35355651" sodipodi:nodetypes="ccccccccccccccc" class="st1" d="
		M22.1,51.8c-3.4,0.1-4.9,3.9-2.4,6.9c0.4,0.4,0.4,0.7-0.3,0.3c-1.7-1.1-4.9-0.4-5.1,3.1c-0.2,4.3,5.7,5.5,6.9,1
		c0.1-0.5,0.4-0.5,0.4,0.2c-0.1,1.8-0.7,3.6-1.5,5.2c1.3,0,2.8,0,4,0c-0.8-1.7-1.4-3.4-1.5-5.2c-0.1-0.7,0.3-0.7,0.4-0.2
		c1.1,4.5,7.1,3.3,6.9-1c-0.2-3.5-3.4-4.2-5.1-3.1c-0.7,0.4-0.6,0.2-0.3-0.3C27.1,55.7,25.5,51.9,22.1,51.8
		C22.1,51.8,22.1,51.8,22.1,51.8L22.1,51.8z"/>
	
		<path id="path147-0-8-1-6-2-0-8-6-42-9-6" inkscape:connector-curvature="0" sodipodi:nodetypes="ccccccccccccccc" class="st1" d="
		M40,85.5c-3.4-0.1-4.9-3.9-2.4-6.9c0.4-0.4,0.4-0.7-0.3-0.3c-1.7,1.1-4.9,0.4-5.1-3.1c-0.2-4.3,5.7-5.5,6.9-1
		c0.1,0.5,0.4,0.5,0.4-0.2c-0.1-1.8-0.7-3.6-1.5-5.2c1.3,0,2.8,0,4,0c-0.8,1.7-1.4,3.4-1.5,5.2c-0.1,0.7,0.3,0.7,0.4,0.2
		c1.1-4.5,7.1-3.3,6.9,1c-0.2,3.5-3.4,4.2-5.1,3.1c-0.7-0.4-0.6-0.2-0.3,0.3C44.9,81.6,43.4,85.5,40,85.5C40,85.5,40,85.5,40,85.5
		L40,85.5z"/>
	<path id="path147-6-9-8-7-0-5-6-1-6-9" inkscape:connector-curvature="0" sodipodi:nodetypes="ccccccccccccccc" class="st1" d="
		M72.6,96.6c1.4,0,2-1.6,1-2.9c-0.1-0.2-0.2-0.3,0.1-0.1c0.7,0.5,2,0.2,2-1.3c0.1-1.8-2.3-2.3-2.7-0.4c0,0.2-0.2,0.2-0.1-0.1
		c0-0.8,0.3-1.5,0.6-2.2c-0.5,0-1.1,0-1.6,0c0.3,0.7,0.5,1.4,0.6,2.2c0,0.3-0.1,0.3-0.1,0.1c-0.4-1.9-2.8-1.4-2.7,0.4
		c0.1,1.4,1.4,1.7,2,1.3c0.3-0.2,0.3-0.1,0.1,0.1C70.6,94.9,71.3,96.5,72.6,96.6L72.6,96.6L72.6,96.6z"/>
	
		<path id="path147-6-9-8-7-4-5-62-4-0-0" inkscape:connector-curvature="0" sodipodi:nodetypes="ccccccccccccccc" class="st1" d="
		M7.4,23.3c-1.4,0-2,1.6-1,2.9c0.1,0.2,0.2,0.3-0.1,0.1c-0.7-0.5-2-0.2-2,1.3c-0.1,1.8,2.3,2.3,2.7,0.4c0-0.2,0.2-0.2,0.1,0.1
		c0,0.8-0.3,1.5-0.6,2.2c0.5,0,1.1,0,1.6,0c-0.3-0.7-0.5-1.4-0.6-2.2c0-0.3,0.1-0.3,0.1-0.1c0.4,1.9,2.8,1.4,2.7-0.4
		c-0.1-1.4-1.4-1.7-2-1.3c-0.3,0.2-0.3,0.1-0.1-0.1C9.4,24.9,8.8,23.4,7.4,23.3L7.4,23.3L7.4,23.3z"/>
	<path id="path27-3-3-2" inkscape:connector-curvature="0" class="st1" d="M3.7,18.9c0.1-1.5,0.6-2.1,1.7-2.9
		c-0.9-0.6-1.2-1.6-1.2-2.3c0.2-1.9,1.6-2.9,3.3-2.8c1.6,0,3,1.3,3.1,2.7c0.1,1.2-0.3,1.8-1.1,2.4c1,0.9,1.7,1.4,1.6,2.9
		c0,1.5-1.3,3.3-3.5,3.4C5.4,22.3,3.7,20.4,3.7,18.9L3.7,18.9L3.7,18.9z M10,18.9c0.1-1.4-1.1-2.3-2.5-2.3c-1.3,0-2.5,1.1-2.5,2.4
		c0,1.3,1.6,2.1,2.6,2.1C8.7,21,9.9,20.1,10,18.9L10,18.9z M9.5,13.9c0-1.2-1-2-2.2-2c-1,0-2,0.8-2,1.8c0,1.2,1.2,1.8,2.2,1.9
		C8.5,15.6,9.5,14.8,9.5,13.9L9.5,13.9z"/>
	<path id="path27-0-0-5-0" inkscape:connector-curvature="0" class="st1" d="M68.9,101c0.1,1.5,0.6,2.1,1.7,2.9
		c-0.9,0.6-1.2,1.6-1.2,2.3c0.2,1.9,1.6,2.9,3.3,2.8c1.6,0,3-1.3,3.1-2.7c0.1-1.2-0.3-1.8-1.1-2.4c1-0.9,1.7-1.4,1.6-2.9
		c0-1.5-1.3-3.3-3.5-3.4C70.5,97.6,68.9,99.5,68.9,101L68.9,101L68.9,101z M75.1,101c0.1,1.4-1.1,2.3-2.5,2.3
		c-1.3,0-2.5-1.1-2.5-2.4c0-1.3,1.6-2.1,2.6-2.1C73.9,98.9,75.1,99.8,75.1,101L75.1,101L75.1,101z M74.7,105.9c0,1.2-1,2-2.2,2
		c-1,0-2-0.8-2-1.8c0-1.2,1.2-1.8,2.2-1.9C73.6,104.3,74.7,105.1,74.7,105.9L74.7,105.9z"/>
</g>
</svg>
