 <!-- Generator: Adobe Illustrator 19.2.0, SVG Export Plug-In  -->
<svg version="1.1"
	 xmlns="http://www.w3.org/2000/svg" xmlns:xlink="http://www.w3.org/1999/xlink" xmlns:a="http://ns.adobe.com/AdobeSVGViewerExtensions/3.0/"
	 x="0px" y="0px" width="78.1px" height="108.8px" viewBox="0 0 78.1 108.8" style="enable-background:new 0 0 78.1 108.8;"
	 xml:space="preserve">
<style type="text/css">
	.st0{fill:#FFFFFF;stroke:#010101;stroke-width:0.9967;}
	.st1{fill:#010101;}
</style>
<defs>
</defs>
<g id="C9" transform="matrix(0.99999718,0,0,1.000002,-1.9858274,-5.5505123)">
	<path id="rect6355-6-85-3-78-4-6" class="st0" d="M6.2,6h69.7c2,0,3.7,1.7,3.7,3.7v100.4c0,2-1.7,3.7-3.7,3.7H6.2
		c-2,0-3.7-1.7-3.7-3.7V9.7C2.5,7.7,4.1,6,6.2,6z"/>
	<path id="path147-0-8-1-6-13-2-9-8-8" inkscape:connector-curvature="0" sodipodi:nodetypes="ccccccccccccccc" class="st1" d="
		M58.9,17.5c-3.4,0.1-4.9,3.9-2.4,6.9c0.4,0.4,0.4,0.7-0.3,0.3c-1.7-1.1-4.9-0.4-5.1,3.1c-0.2,4.3,5.7,5.5,6.9,1
		c0.1-0.5,0.4-0.5,0.4,0.2c-0.1,1.8-0.7,3.6-1.5,5.2c1.3,0,2.8,0,4,0c-0.8-1.7-1.4-3.4-1.5-5.2c-0.1-0.7,0.3-0.7,0.4-0.2
		c1.1,4.5,7.1,3.3,6.9-1c-0.2-3.5-3.4-4.2-5.1-3.1c-0.7,0.4-0.6,0.2-0.3-0.3C63.8,21.4,62.3,17.6,58.9,17.5
		C58.9,17.5,58.9,17.5,58.9,17.5L58.9,17.5z"/>
	
		<path id="path147-0-8-1-6-75-2-83-3-5-0" inkscape:connector-curvature="0" inkscape:transform-center-x="-110.30866" inkscape:transform-center-y="0.35355339" sodipodi:nodetypes="ccccccccccccccc" class="st1" d="
		M23.1,17.5c-3.4,0.1-4.9,3.9-2.4,6.9c0.4,0.4,0.4,0.7-0.3,0.3c-1.7-1.1-4.9-0.4-5.1,3.1c-0.2,4.3,5.7,5.5,6.9,1
		c0.1-0.5,0.4-0.5,0.4,0.2c-0.1,1.8-0.7,3.6-1.5,5.2c1.3,0,2.8,0,4,0c-0.8-1.7-1.4-3.4-1.5-5.2c-0.1-0.7,0.3-0.7,0.4-0.2
		c1.1,4.5,7.1,3.3,6.9-1c-0.2-3.5-3.4-4.2-5.1-3.1c-0.7,0.4-0.6,0.2-0.3-0.3C28.1,21.4,26.5,17.6,23.1,17.5
		C23.1,17.5,23.1,17.5,23.1,17.5L23.1,17.5z"/>
	
		<path id="path147-0-8-1-6-7-5-5-7-63-0-4" inkscape:connector-curvature="0" sodipodi:nodetypes="ccccccccccccccc" class="st1" d="
		M58.9,102.7c-3.4-0.1-4.9-3.9-2.4-6.9c0.4-0.4,0.4-0.7-0.3-0.3c-1.7,1.1-4.9,0.4-5.1-3.1c-0.2-4.3,5.7-5.5,6.9-1
		c0.1,0.5,0.4,0.5,0.4-0.2c-0.1-1.8-0.7-3.6-1.5-5.2c1.3,0,2.8,0,4,0c-0.8,1.7-1.4,3.4-1.5,5.2c-0.1,0.7,0.3,0.7,0.4,0.2
		c1.1-4.5,7.1-3.3,6.9,1c-0.2,3.5-3.4,4.2-5.1,3.1c-0.7-0.4-0.6-0.2-0.3,0.3C63.8,98.8,62.3,102.6,58.9,102.7
		C58.9,102.7,58.9,102.7,58.9,102.7L58.9,102.7z"/>
	
		<path id="path147-0-8-1-6-75-6-1-2-46-5-0" inkscape:connector-curvature="0" inkscape:transform-center-x="-110.30866" inkscape:transform-center-y="-0.35355495" sodipodi:nodetypes="ccccccccccccccc" class="st1" d="
		M23.1,102.7c-3.4-0.1-4.9-3.9-2.4-6.9c0.4-0.4,0.4-0.7-0.3-0.3c-1.7,1.1-4.9,0.4-5.1-3.1c-0.2-4.3,5.7-5.5,6.9-1
		c0.1,0.5,0.4,0.5,0.4-0.2c-0.1-1.8-0.7-3.6-1.5-5.2c1.3,0,2.8,0,4,0c-0.8,1.7-1.4,3.4-1.5,5.2C23.6,92,24,92,24,91.5
		c1.1-4.5,7.1-3.3,6.9,1c-0.2,3.5-3.4,4.2-5.1,3.1c-0.7-0.4-0.6-0.2-0.3,0.3C28.1,98.8,26.5,102.6,23.1,102.7
		C23.1,102.7,23.1,102.7,23.1,102.7L23.1,102.7z"/>
	
		<path id="path147-0-8-1-6-1-1-0-5-61-2-0" inkscape:connector-curvature="0" sodipodi:nodetypes="ccccccccccccccc" class="st1" d="
		M41,51.8c-3.4,0.1-4.9,3.9-2.4,6.9c0.4,0.4,0.4,0.7-0.3,0.3c-1.7-1.1-4.9-0.4-5.1,3.1c-0.2,4.3,5.7,5.5,6.9,1
		c0.1-0.5,0.4-0.5,0.4,0.2c-0.1,1.8-0.7,3.6-1.5,5.2c1.3,0,2.8,0,4,0c-0.8-1.7-1.4-3.4-1.5-5.2c-0.1-0.7,0.3-0.7,0.4-0.2
		c1.1,4.5,7.1,3.3,6.9-1c-0.2-3.5-3.4-4.2-5.1-3.1c-0.7,0.4-0.6,0.2-0.3-0.3C45.9,55.7,44.4,51.9,41,51.8C41,51.8,41,51.8,41,51.8
		L41,51.8z"/>
	<path id="path147-6-9-8-7-0-5-6-5-2-8" inkscape:connector-curvature="0" sodipodi:nodetypes="ccccccccccccccc" class="st1" d="
		M73.6,96.6c1.4,0,2-1.6,1-2.9c-0.1-0.2-0.2-0.3,0.1-0.1c0.7,0.5,2,0.2,2-1.3c0.1-1.8-2.3-2.3-2.7-0.4c0,0.2-0.2,0.2-0.1-0.1
		c0-0.8,0.3-1.5,0.6-2.2c-0.5,0-1.1,0-1.6,0c0.3,0.7,0.5,1.4,0.6,2.2c0,0.3-0.1,0.3-0.1,0.1c-0.4-1.9-2.8-1.4-2.7,0.4
		c0.1,1.4,1.4,1.7,2,1.3c0.3-0.2,0.3-0.1,0.1,0.1C71.6,94.9,72.2,96.5,73.6,96.6L73.6,96.6L73.6,96.6z"/>
	
		<path id="path147-0-8-1-6-75-2-9-77-4-4-2" inkscape:connector-curvature="0" inkscape:transform-center-x="-110.30866" inkscape:transform-center-y="0.35355339" sodipodi:nodetypes="ccccccccccccccc" class="st1" d="
		M23.1,40.4c-3.4,0.1-4.9,3.9-2.4,6.9c0.4,0.4,0.4,0.7-0.3,0.3c-1.7-1.1-4.9-0.4-5.1,3.1c-0.2,4.3,5.7,5.5,6.9,1
		c0.1-0.5,0.4-0.5,0.4,0.2c-0.1,1.8-0.7,3.6-1.5,5.2c1.3,0,2.8,0,4,0c-0.8-1.7-1.4-3.4-1.5-5.2C23.6,51,24,51,24,51.5
		c1.1,4.5,7.1,3.3,6.9-1c-0.2-3.5-3.4-4.2-5.1-3.1c-0.7,0.4-0.6,0.2-0.3-0.3C28.1,44.2,26.5,40.4,23.1,40.4
		C23.1,40.4,23.1,40.4,23.1,40.4L23.1,40.4z"/>
	
		<path id="path147-0-8-1-6-75-2-8-0-6-4-4" inkscape:connector-curvature="0" inkscape:transform-center-x="-110.30866" inkscape:transform-center-y="-0.35355495" sodipodi:nodetypes="ccccccccccccccc" class="st1" d="
		M23.1,79.8c-3.4-0.1-4.9-3.9-2.4-6.9c0.4-0.4,0.4-0.7-0.3-0.3c-1.7,1.1-4.9,0.4-5.1-3.1c-0.2-4.3,5.7-5.5,6.9-1
		c0.1,0.5,0.4,0.5,0.4-0.2c-0.1-1.8-0.7-3.6-1.5-5.2c1.3,0,2.8,0,4,0c-0.8,1.7-1.4,3.4-1.5,5.2c-0.1,0.7,0.3,0.7,0.4,0.2
		c1.1-4.5,7.1-3.3,6.9,1c-0.2,3.5-3.4,4.2-5.1,3.1c-0.7-0.4-0.6-0.2-0.3,0.3C28.1,75.9,26.5,79.7,23.1,79.8
		C23.1,79.8,23.1,79.8,23.1,79.8L23.1,79.8z"/>
	
		<path id="path147-0-8-1-6-75-2-9-7-1-36-2-4" inkscape:connector-curvature="0" inkscape:transform-center-x="-110.30866" inkscape:transform-center-y="0.35355339" sodipodi:nodetypes="ccccccccccccccc" class="st1" d="
		M58.9,40.4c-3.4,0.1-4.9,3.9-2.4,6.9c0.4,0.4,0.4,0.7-0.3,0.3c-1.7-1.1-4.9-0.4-5.1,3.1c-0.2,4.3,5.7,5.5,6.9,1
		c0.1-0.5,0.4-0.5,0.4,0.2c-0.1,1.8-0.7,3.6-1.5,5.2c1.3,0,2.8,0,4,0c-0.8-1.7-1.4-3.4-1.5-5.2c-0.1-0.7,0.3-0.7,0.4-0.2
		c1.1,4.5,7.1,3.3,6.9-1c-0.2-3.5-3.4-4.2-5.1-3.1c-0.7,0.4-0.6,0.2-0.3-0.3C63.8,44.2,62.3,40.4,58.9,40.4
		C58.9,40.4,58.9,40.4,58.9,40.4L58.9,40.4z"/>
	
		<path id="path147-0-8-1-6-75-2-8-5-1-55-5-4" inkscape:connector-curvature="0" inkscape:transform-center-x="-110.30866" inkscape:transform-center-y="-0.35355495" sodipodi:nodetypes="ccccccccccccccc" class="st1" d="
		M58.9,79.8c-3.4-0.1-4.9-3.9-2.4-6.9c0.4-0.4,0.4-0.7-0.3-0.3c-1.7,1.1-4.9,0.4-5.1-3.1c-0.2-4.3,5.7-5.5,6.9-1
		c0.1,0.5,0.4,0.5,0.4-0.2c-0.1-1.8-0.7-3.6-1.5-5.2c1.3,0,2.8,0,4,0c-0.8,1.7-1.4,3.4-1.5,5.2c-0.1,0.7,0.3,0.7,0.4,0.2
		c1.1-4.5,7.1-3.3,6.9,1c-0.2,3.5-3.4,4.2-5.1,3.1c-0.7-0.4-0.6-0.2-0.3,0.3C63.8,75.9,62.3,79.7,58.9,79.8
		C58.9,79.8,58.9,79.8,58.9,79.8L58.9,79.8z"/>
	
		<path id="path147-6-9-8-7-4-5-62-7-8-4" inkscape:connector-curvature="0" sodipodi:nodetypes="ccccccccccccccc" class="st1" d="
		M8.4,23.3c-1.4,0-2,1.6-1,2.9c0.1,0.2,0.2,0.3-0.1,0.1c-0.7-0.5-2-0.2-2,1.3c-0.1,1.8,2.3,2.3,2.7,0.4c0-0.2,0.2-0.2,0.1,0.1
		c0,0.8-0.3,1.5-0.6,2.2c0.5,0,1.1,0,1.6,0c-0.3-0.7-0.5-1.4-0.6-2.2c0-0.3,0.1-0.3,0.1-0.1c0.4,1.9,2.8,1.4,2.7-0.4
		c-0.1-1.4-1.4-1.7-2-1.3c-0.3,0.2-0.3,0.1-0.1-0.1C10.4,24.9,9.8,23.4,8.4,23.3L8.4,23.3L8.4,23.3z"/>
	<path id="path29-2-3-4" inkscape:connector-curvature="0" class="st1" d="M5.2,20l1-0.3c0.4,1.1,1.2,1.4,2,1.3
		c1.5-0.1,2-1.8,2.1-3.3c-0.6,0.6-1.5,0.9-2.2,0.9c-2.4-0.1-3-2.1-3-4.1C5.1,12.8,5.8,11.6,7,11c0.6-0.3,2.1-0.3,2.7,0.1
		c1.5,0.8,2,2.1,1.9,5.3c0,2.6-0.6,5.7-3.4,5.8C6.7,22.4,5.4,21.2,5.2,20L5.2,20L5.2,20z M9.3,17.1c0.5-0.3,0.8-0.6,1-1
		c0.2-0.4,0.2-0.5,0.2-1.3c-0.1-1.9-1.1-3-2.6-2.8c-0.8,0.1-1.3,0.6-1.5,1.4c-0.5,1.6,0.1,3.4,1.2,3.8C8.2,17.5,8.9,17.4,9.3,17.1
		L9.3,17.1z"/>
	<path id="path29-6-1-3-7" inkscape:connector-curvature="0" class="st1" d="M76.8,99.8l-1,0.3c-0.4-1.1-1.2-1.4-2-1.3
		c-1.5,0.1-2,1.8-2.1,3.3c0.6-0.6,1.5-0.9,2.2-0.9c2.4,0.1,3,2.1,3,4.1c0.1,1.7-0.6,2.9-1.8,3.5c-0.6,0.3-2.1,0.3-2.7-0.1
		c-1.5-0.8-2-2.1-1.9-5.3c0-2.6,0.6-5.7,3.4-5.8C75.4,97.4,76.6,98.7,76.8,99.8L76.8,99.8L76.8,99.8z M72.7,102.7
		c-0.5,0.3-0.8,0.6-1,1c-0.2,0.4-0.2,0.5-0.2,1.3c0.1,1.9,1.1,3,2.6,2.8c0.8-0.1,1.3-0.6,1.5-1.4c0.5-1.6-0.1-3.4-1.2-3.8
		C73.9,102.4,73.1,102.5,72.7,102.7L72.7,102.7z"/>
</g>
</svg>
