<!-- Generator: Adobe Illustrator 19.2.0, SVG Export Plug-In  -->
<svg version="1.1"
	 xmlns="http://www.w3.org/2000/svg" xmlns:xlink="http://www.w3.org/1999/xlink" xmlns:a="http://ns.adobe.com/AdobeSVGViewerExtensions/3.0/"
	 x="0px" y="0px" width="78.1px" height="108.8px" viewBox="0 0 78.1 108.8" style="enable-background:new 0 0 78.1 108.8;"
	 xml:space="preserve">
<style type="text/css">
	.st0{fill:#FFFFFF;stroke:#010101;stroke-width:1.0006;}
	.st1{fill:#010101;}
</style>
<defs>
</defs>
<g id="S1" transform="matrix(0.99553774,0,0,0.99680134,138.38974,79.60164)">
	<path id="rect6355-6-85-62-9-7" class="st0" d="M-134.8-79.4h70c2,0,3.7,1.7,3.7,3.7V25.1c0,2-1.7,3.7-3.7,3.7h-70
		c-2,0-3.7-1.7-3.7-3.7V-75.7C-138.5-77.7-136.8-79.4-134.8-79.4z"/>
	<path id="path153-0-1-2-5-5-5-3-4" inkscape:connector-curvature="0" sodipodi:nodetypes="cccccccccccc" class="st1" d="
		M-132.5-62c-1.5,1.9-3.1,3-3.1,4.5c0,0.5,0.3,1.3,1.2,1.5c0.6,0.1,1.4-0.3,1.4-1.2c0-0.2,0.2-0.2,0.2,0.1c0,0.7-0.3,1.5-0.7,2.1
		c0.7,0,1.3,0,2,0c-0.4-0.6-0.7-1.4-0.7-2.1c0-0.2,0.2-0.2,0.2-0.1c0,0.9,0.8,1.3,1.4,1.2c0.9-0.2,1.2-1,1.2-1.5
		C-129.4-59-131-60.1-132.5-62z"/>
	<path id="path153-0-1-2-5-6-5-9-1-9" inkscape:connector-curvature="0" sodipodi:nodetypes="cccccccccccc" class="st1" d="
		M-67.1,11.4c-1.5-1.9-3.1-3-3.1-4.5c0-0.5,0.3-1.3,1.2-1.5c0.6-0.1,1.4,0.3,1.4,1.2c0,0.2,0.2,0.2,0.2-0.1c0-0.7-0.3-1.5-0.7-2.1
		c0.7,0,1.3,0,2,0c-0.4,0.6-0.7,1.4-0.7,2.1c0,0.2,0.2,0.2,0.2,0.1c0-0.9,0.8-1.3,1.4-1.2c0.9,0.2,1.2,1,1.2,1.5
		C-64,8.5-65.6,9.5-67.1,11.4L-67.1,11.4z"/>
	<path id="path153-6-3-1-6-92-7-2-9-8" inkscape:connector-curvature="0" sodipodi:nodetypes="cccccccccccc" class="st1" d="
		M-99.8-33.6c-3.2,4.6-6.6,7.2-6.7,10.7c0,1.2,0.6,3.1,2.6,3.5c1.3,0.2,3-0.8,3-2.9c0-0.4,0.4-0.4,0.4,0.2c-0.1,1.6-0.6,3.6-1.5,5.1
		c1.4,0,2.8,0,4.2,0c-0.9-1.6-1.4-3.5-1.5-5.1c0-0.6,0.4-0.6,0.4-0.2c0,2.1,1.8,3.1,3,2.9c2-0.4,2.6-2.3,2.6-3.5
		C-93.2-26.4-96.6-29.1-99.8-33.6z"/>
	<path id="path41-4-9-2" inkscape:connector-curvature="0" class="st1" d="M-136-63.1v-1h0.9l2-10.5h1.1l2.2,10.5h0.8v1h-2.6v-1
		h0.7l-0.3-1.6h-2.6l-0.2,1.6h0.7v1H-136L-136-63.1z M-131.4-66.8l-1.1-5.6l-1.1,5.6H-131.4z"/>
	<path id="path41-4-2-4-0" inkscape:connector-curvature="0" class="st1" d="M-70.6,12.5v1h0.9l2,10.5h1.1l2.2-10.5h0.8v-1h-2.6
		v1h0.7l-0.3,1.6h-2.6l-0.2-1.6h0.7v-1H-70.6L-70.6,12.5z M-65.9,16.3l-1.1,5.6l-1.1-5.6H-65.9L-65.9,16.3z"/>
</g>
</svg>
