<!-- Generator: Adobe Illustrator 19.2.0, SVG Export Plug-In  -->
<svg version="1.1"
	 xmlns="http://www.w3.org/2000/svg" xmlns:xlink="http://www.w3.org/1999/xlink" xmlns:a="http://ns.adobe.com/AdobeSVGViewerExtensions/3.0/"
	 x="0px" y="0px" width="78.1px" height="108.8px" viewBox="0 0 78.1 108.8" style="enable-background:new 0 0 78.1 108.8;"
	 xml:space="preserve">
<style type="text/css">
	.st0{fill:#FFFFFF;stroke:#010101;stroke-width:1.0006;}
	.st1{fill:#010101;}
</style>
<defs>
</defs>
<g id="S10" transform="matrix(0.99553774,0,0,0.99680134,-405.44958,79.60161)">
	<g id="g8587-4-9" transform="translate(-4.1467285e-5,2.9626465e-5)">
		<path id="rect7263-6-4" class="st0" d="M411.5-79.4h70c2,0,3.7,1.7,3.7,3.7V25.1c0,2-1.7,3.7-3.7,3.7h-70c-2,0-3.7-1.7-3.7-3.7
			V-75.7C407.8-77.7,409.4-79.4,411.5-79.4z"/>
		<path id="path7293-3-2" inkscape:connector-curvature="0" sodipodi:nodetypes="cccccccccccc" class="st1" d="M428.5-68
			c-3.2,4.6-6.6,7.2-6.7,10.7c0,1.2,0.6,3.1,2.6,3.5c1.3,0.2,3-0.8,3-2.9c0-0.4,0.4-0.4,0.4,0.2c-0.1,1.6-0.6,3.6-1.5,5.1
			c1.4,0,2.8,0,4.2,0c-0.9-1.6-1.4-3.5-1.5-5.1c0-0.6,0.4-0.6,0.4-0.2c0,2.1,1.8,3.1,3,2.9c2-0.4,2.6-2.3,2.6-3.5
			C435.1-60.8,431.7-63.5,428.5-68z"/>
		<path id="path7295-4-8" inkscape:connector-curvature="0" sodipodi:nodetypes="cccccccccccc" class="st1" d="M413.7-62
			c-1.5,1.9-3.1,3-3.1,4.5c0,0.5,0.3,1.3,1.2,1.5c0.6,0.1,1.4-0.3,1.4-1.2c0-0.2,0.2-0.2,0.2,0.1c0,0.7-0.3,1.5-0.7,2.1
			c0.7,0,1.3,0,2,0c-0.4-0.6-0.7-1.4-0.7-2.1c0-0.2,0.2-0.2,0.2-0.1c0,0.9,0.8,1.3,1.4,1.2c0.9-0.2,1.2-1,1.2-1.5
			C416.8-59,415.2-60.1,413.7-62L413.7-62z"/>
		<path id="path7297-5-1" inkscape:connector-curvature="0" sodipodi:nodetypes="cccccccccccc" class="st1" d="M428.5-5.5
			c-3.2-4.6-6.6-7.2-6.7-10.7c0-1.2,0.6-3.1,2.6-3.5c1.3-0.2,3,0.8,3,2.9c0,0.4,0.4,0.4,0.4-0.2c-0.1-1.6-0.6-3.6-1.5-5.1
			c1.4,0,2.8,0,4.2,0c-0.9,1.6-1.4,3.5-1.5,5.1c0,0.6,0.4,0.6,0.4,0.2c0-2.1,1.8-3.1,3-2.9c2,0.4,2.6,2.3,2.6,3.5
			C435.1-12.7,431.7-10.1,428.5-5.5z"/>
		<path id="path7299-3-5" inkscape:connector-curvature="0" sodipodi:nodetypes="cccccccccccc" class="st1" d="M479.2,11.4
			c-1.5-1.9-3.1-3-3.1-4.5c0-0.5,0.3-1.3,1.2-1.5c0.6-0.1,1.4,0.3,1.4,1.2c0,0.2,0.2,0.2,0.2-0.1c0-0.7-0.3-1.5-0.7-2.1
			c0.7,0,1.3,0,2,0c-0.4,0.6-0.7,1.4-0.7,2.1c0,0.2,0.2,0.2,0.2,0.1c0-0.9,0.8-1.3,1.4-1.2c0.9,0.2,1.2,1,1.2,1.5
			C482.3,8.5,480.7,9.5,479.2,11.4L479.2,11.4z"/>
		<path id="path7301-4-0" inkscape:connector-curvature="0" sodipodi:nodetypes="cccccccccccc" class="st1" d="M464.4-68
			c-3.2,4.6-6.6,7.2-6.7,10.7c0,1.2,0.6,3.1,2.6,3.5c1.3,0.2,3-0.8,3-2.9c0-0.4,0.4-0.4,0.4,0.2c-0.1,1.6-0.6,3.6-1.5,5.1
			c1.4,0,2.8,0,4.2,0c-0.9-1.6-1.4-3.5-1.5-5.1c0-0.6,0.4-0.6,0.4-0.2c0,2.1,1.8,3.1,3,2.9c2-0.4,2.6-2.3,2.6-3.5
			C471-60.8,467.6-63.5,464.4-68z"/>
		<path id="path7303-7-8" inkscape:connector-curvature="0" sodipodi:nodetypes="cccccccccccc" class="st1" d="M428.5-45.1
			c-3.2,4.6-6.6,7.2-6.7,10.7c0,1.2,0.6,3.1,2.6,3.5c1.3,0.2,3-0.8,3-2.9c0-0.4,0.4-0.4,0.4,0.2c-0.1,1.6-0.6,3.6-1.5,5.1
			c1.4,0,2.8,0,4.2,0c-0.9-1.6-1.4-3.5-1.5-5.1c0-0.6,0.4-0.6,0.4-0.2c0,2.1,1.8,3.1,3,2.9c2-0.4,2.6-2.3,2.6-3.5
			C435.1-37.9,431.7-40.5,428.5-45.1z"/>
		<path id="path7305-6-7" inkscape:connector-curvature="0" sodipodi:nodetypes="cccccccccccc" class="st1" d="M446.5-53.2
			c-3.2,4.6-6.6,7.2-6.7,10.7c0,1.2,0.6,3.1,2.6,3.5c1.3,0.2,3-0.8,3-2.9c0-0.4,0.4-0.4,0.4,0.2c-0.1,1.6-0.6,3.6-1.5,5.1
			c1.4,0,2.8,0,4.2,0c-0.9-1.6-1.4-3.5-1.5-5.1c0-0.6,0.4-0.6,0.4-0.2c0,2.1,1.8,3.1,3,2.9c2-0.4,2.6-2.3,2.6-3.5
			C453.1-46,449.7-48.7,446.5-53.2z"/>
		<path id="path7309-8-5" inkscape:connector-curvature="0" sodipodi:nodetypes="cccccccccccc" class="st1" d="M464.4-45.1
			c-3.2,4.6-6.6,7.2-6.7,10.7c0,1.2,0.6,3.1,2.6,3.5c1.3,0.2,3-0.8,3-2.9c0-0.4,0.4-0.4,0.4,0.2c-0.1,1.6-0.6,3.6-1.5,5.1
			c1.4,0,2.8,0,4.2,0c-0.9-1.6-1.4-3.5-1.5-5.1c0-0.6,0.4-0.6,0.4-0.2c0,2.1,1.8,3.1,3,2.9c2-0.4,2.6-2.3,2.6-3.5
			C471-37.9,467.6-40.5,464.4-45.1z"/>
		<path id="path7313-6-8" inkscape:connector-curvature="0" sodipodi:nodetypes="cccccccccccc" class="st1" d="M428.5,17.4
			c-3.2-4.6-6.6-7.2-6.7-10.7c0-1.2,0.6-3.1,2.6-3.5c1.3-0.2,3,0.8,3,2.9c0,0.4,0.4,0.4,0.4-0.2c-0.1-1.6-0.6-3.6-1.5-5.1
			c1.4,0,2.8,0,4.2,0c-0.9,1.6-1.4,3.5-1.5,5.1c0,0.6,0.4,0.6,0.4,0.2c0-2.1,1.8-3.1,3-2.9c2,0.4,2.6,2.3,2.6,3.5
			C435.1,10.2,431.7,12.9,428.5,17.4L428.5,17.4z"/>
		<path id="path7315-7-3" inkscape:connector-curvature="0" sodipodi:nodetypes="cccccccccccc" class="st1" d="M464.4,17.4
			c-3.2-4.6-6.6-7.2-6.7-10.7c0-1.2,0.6-3.1,2.6-3.5c1.3-0.2,3,0.8,3,2.9c0,0.4,0.4,0.4,0.4-0.2c-0.1-1.6-0.6-3.6-1.5-5.1
			c1.4,0,2.8,0,4.2,0c-0.9,1.6-1.4,3.5-1.5,5.1c0,0.6,0.4,0.6,0.4,0.2c0-2.1,1.8-3.1,3-2.9c2,0.4,2.6,2.3,2.6,3.5
			C471,10.2,467.6,12.9,464.4,17.4L464.4,17.4z"/>
		<path id="path7317-0-2" inkscape:connector-curvature="0" sodipodi:nodetypes="cccccccccccc" class="st1" d="M446.5,2.7
			c-3.2-4.6-6.6-7.2-6.7-10.7c0-1.2,0.6-3.1,2.6-3.5c1.3-0.2,3,0.8,3,2.9c0,0.4,0.4,0.4,0.4-0.2c-0.1-1.6-0.6-3.6-1.5-5.1
			c1.4,0,2.8,0,4.2,0c-0.9,1.6-1.4,3.5-1.5,5.1c0,0.6,0.4,0.6,0.4,0.2c0-2.1,1.8-3.1,3-2.9c2,0.4,2.6,2.3,2.6,3.5
			C453.1-4.5,449.7-1.9,446.5,2.7z"/>
		<path id="path7319-5-6" inkscape:connector-curvature="0" sodipodi:nodetypes="cccccccccccc" class="st1" d="M464.4-5.5
			c-3.2-4.6-6.6-7.2-6.7-10.7c0-1.2,0.6-3.1,2.6-3.5c1.3-0.2,3,0.8,3,2.9c0,0.4,0.4,0.4,0.4-0.2c-0.1-1.6-0.6-3.6-1.5-5.1
			c1.4,0,2.8,0,4.2,0c-0.9,1.6-1.4,3.5-1.5,5.1c0,0.6,0.4,0.6,0.4,0.2c0-2.1,1.8-3.1,3-2.9c2,0.4,2.6,2.3,2.6,3.5
			C471-12.7,467.6-10.1,464.4-5.5z"/>
		<path id="path31-5-4-7" inkscape:connector-curvature="0" class="st1" d="M410.3-63.1v-11.4h1.1v11.4H410.3z"/>
		<path id="path33-4-6-8" inkscape:connector-curvature="0" class="st1" d="M414.7-74.6c-1.1,0-1.9,1-1.9,2.2v7.1
			c0,1.2,0.9,2.2,1.9,2.2h0.6c1.1,0,1.9-1,1.9-2.2v-7.1c0-1.2-0.9-2.2-1.9-2.2H414.7z M415-73.5c0.6,0,1.1,0.5,1.1,1.1v7.2
			c0,0.6-0.5,1.1-1.1,1.1s-1.1-0.5-1.1-1.1v-7.2C413.8-73,414.4-73.5,415-73.5L415-73.5z"/>
		<g id="g8583-6-9" transform="matrix(-1,0,0,1,6929.1386,0)">
			<path id="path31-5-5-6-7" inkscape:connector-curvature="0" class="st1" d="M6446.5,12.5V24h1.1V12.5H6446.5z"/>
			<path id="path33-4-3-7-9" inkscape:connector-curvature="0" class="st1" d="M6450.9,24c-1.1,0-1.9-1-1.9-2.2v-7.1
				c0-1.2,0.9-2.2,1.9-2.2h0.6c1.1,0,1.9,1,1.9,2.2v7.1c0,1.2-0.9,2.2-1.9,2.2H6450.9z M6451.2,22.9c0.6,0,1.1-0.5,1.1-1.1v-7.2
				c0-0.6-0.5-1.1-1.1-1.1c-0.6,0-1.1,0.5-1.1,1.1v7.2C6450,22.4,6450.5,22.9,6451.2,22.9L6451.2,22.9z"/>
		</g>
	</g>
</g>
</svg>
