<!-- Generator: Adobe Illustrator 19.2.0, SVG Export Plug-In  -->
<svg version="1.1"
	 xmlns="http://www.w3.org/2000/svg" xmlns:xlink="http://www.w3.org/1999/xlink" xmlns:a="http://ns.adobe.com/AdobeSVGViewerExtensions/3.0/"
	 x="0px" y="0px" width="78.1px" height="108.8px" viewBox="0 0 78.1 108.8" style="enable-background:new 0 0 78.1 108.8;"
	 xml:space="preserve">
<style type="text/css">
	.st0{fill:#FFFFFF;stroke:#010101;stroke-width:1.0006;}
	.st1{fill:#010101;}
</style>
<defs>
</defs>
<g id="S2" transform="matrix(0.99553774,0,0,0.99680134,77.963108,79.60164)">
	<path id="rect6716-2-0" class="st0" d="M-74.1-79.4h70c2,0,3.7,1.7,3.7,3.7V25.1c0,2-1.7,3.7-3.7,3.7h-70c-2,0-3.7-1.7-3.7-3.7
		V-75.7C-77.8-77.7-76.2-79.4-74.1-79.4z"/>
	<path id="path6748-4-0" inkscape:connector-curvature="0" sodipodi:nodetypes="cccccccccccc" class="st1" d="M-71.8-62
		c-1.5,1.9-3.1,3-3.1,4.5c0,0.5,0.3,1.3,1.2,1.5c0.6,0.1,1.4-0.3,1.4-1.2c0-0.2,0.2-0.2,0.2,0.1c0,0.7-0.3,1.5-0.7,2.1
		c0.7,0,1.3,0,2,0c-0.4-0.6-0.7-1.4-0.7-2.1c0-0.2,0.2-0.2,0.2-0.1c0,0.9,0.8,1.3,1.4,1.2c0.9-0.2,1.2-1,1.2-1.5
		C-68.7-59-70.3-60.1-71.8-62L-71.8-62z"/>
	<path id="path6752-9-1" inkscape:connector-curvature="0" sodipodi:nodetypes="cccccccccccc" class="st1" d="M-6.4,11.4
		c-1.5-1.9-3.1-3-3.1-4.5c0-0.5,0.3-1.3,1.2-1.5c0.6-0.1,1.4,0.3,1.4,1.2c0,0.2,0.2,0.2,0.2-0.1c0-0.7-0.3-1.5-0.7-2.1
		c0.7,0,1.3,0,2,0C-5.8,5.2-6,6-6.1,6.6c0,0.2,0.2,0.2,0.2,0.1c0-0.9,0.8-1.3,1.4-1.2c0.9,0.2,1.2,1,1.2,1.5
		C-3.3,8.5-4.9,9.5-6.4,11.4L-6.4,11.4z"/>
	<path id="path6760-2-4" inkscape:connector-curvature="0" sodipodi:nodetypes="cccccccccccc" class="st1" d="M-39.1-68
		c-3.2,4.6-6.6,7.2-6.7,10.7c0,1.2,0.6,3.1,2.6,3.5c1.3,0.2,3-0.8,3-2.9c0-0.4,0.4-0.4,0.4,0.2c-0.1,1.6-0.6,3.6-1.5,5.1
		c1.4,0,2.8,0,4.2,0c-0.9-1.6-1.4-3.5-1.5-5.1c0-0.6,0.4-0.6,0.4-0.2c0,2.1,1.8,3.1,3,2.9c2-0.4,2.6-2.3,2.6-3.5
		C-32.5-60.8-35.9-63.5-39.1-68L-39.1-68z"/>
	<path id="path6774-6-2" inkscape:connector-curvature="0" sodipodi:nodetypes="cccccccccccc" class="st1" d="M-39.1,17.4
		c-3.2-4.6-6.6-7.2-6.7-10.7c0-1.2,0.6-3.1,2.6-3.5c1.3-0.2,3,0.8,3,2.9c0,0.4,0.4,0.4,0.4-0.2c-0.1-1.6-0.6-3.6-1.5-5.1
		c1.4,0,2.8,0,4.2,0c-0.9,1.6-1.4,3.5-1.5,5.1c0,0.6,0.4,0.6,0.4,0.2c0-2.1,1.8-3.1,3-2.9c2,0.4,2.6,2.3,2.6,3.5
		C-32.5,10.2-35.9,12.9-39.1,17.4L-39.1,17.4z"/>
	<path id="path15-3-8-9" inkscape:connector-curvature="0" class="st1" d="M-75.1-63.1l0.1-0.7c0.2-2.2,0.6-2.9,3.3-5.2
		c1.3-1.1,1.7-1.6,1.8-2.3c0.2-1.5-1.1-2-2-2c-1.1,0-2.4,0.7-1.8,2.2l-1.2,0.4c-0.3-1.5,0-2.8,1.2-3.5c1.6-0.8,3.6-0.5,4.6,0.8
		c0.7,0.8,0.8,2,0.5,2.9c-1.1,2.3-4.7,3.4-5,6.1h4v-1.5h1.2v2.8L-75.1-63.1L-75.1-63.1z"/>
	<path id="path15-3-5-1-4" inkscape:connector-curvature="0" class="st1" d="M-3.1,12.6l-0.1,0.7c-0.2,2.2-0.6,2.9-3.3,5.2
		c-1.3,1.1-1.7,1.6-1.8,2.3c-0.2,1.5,1.1,2,2,2c1.1,0,2.4-0.7,1.8-2.2l1.2-0.4c0.3,1.5,0,2.8-1.2,3.5C-6,24.3-8,24-9,22.8
		c-0.7-0.8-0.8-2-0.5-2.9c1.1-2.3,4.7-3.4,5-6.1h-4v1.5h-1.2v-2.8L-3.1,12.6L-3.1,12.6z"/>
</g>
</svg>
