<!-- Generator: Adobe Illustrator 19.2.0, SVG Export Plug-In  -->
<svg version="1.1"
	 xmlns="http://www.w3.org/2000/svg" xmlns:xlink="http://www.w3.org/1999/xlink" xmlns:a="http://ns.adobe.com/AdobeSVGViewerExtensions/3.0/"
	 x="0px" y="0px" width="78.1px" height="108.8px" viewBox="0 0 78.1 108.8" style="enable-background:new 0 0 78.1 108.8;"
	 xml:space="preserve">
<style type="text/css">
	.st0{fill:#FFFFFF;stroke:#010101;stroke-width:1.0006;}
	.st1{fill:#010101;}
</style>
<defs>
</defs>
<g id="S3" transform="matrix(0.99553774,0,0,0.99680134,17.536569,79.60164)">
	<path id="rect6784-5-9" class="st0" d="M-13.4-79.4h70c2,0,3.7,1.7,3.7,3.7V25.1c0,2-1.7,3.7-3.7,3.7h-70c-2,0-3.7-1.7-3.7-3.7
		V-75.7C-17.1-77.7-15.5-79.4-13.4-79.4z"/>
	<path id="path6816-2-4" inkscape:connector-curvature="0" sodipodi:nodetypes="cccccccccccc" class="st1" d="M-11.1-62
		c-1.5,1.9-3.1,3-3.1,4.5c0,0.5,0.3,1.3,1.2,1.5c0.6,0.1,1.4-0.3,1.4-1.2c0-0.2,0.2-0.2,0.2,0.1c0,0.7-0.3,1.5-0.7,2.1
		c0.7,0,1.3,0,2,0c-0.4-0.6-0.7-1.4-0.7-2.1c0-0.2,0.2-0.2,0.2-0.1c0,0.9,0.8,1.3,1.4,1.2c0.9-0.2,1.2-1,1.2-1.5
		C-8-59-9.6-60.1-11.1-62L-11.1-62z"/>
	<path id="path6820-0-2" inkscape:connector-curvature="0" sodipodi:nodetypes="cccccccccccc" class="st1" d="M54.3,11.4
		c-1.5-1.9-3.1-3-3.1-4.5c0-0.5,0.3-1.3,1.2-1.5c0.6-0.1,1.4,0.3,1.4,1.2c0,0.2,0.2,0.2,0.2-0.1c0-0.7-0.3-1.5-0.7-2.1
		c0.7,0,1.3,0,2,0c-0.4,0.6-0.7,1.4-0.7,2.1c0,0.2,0.2,0.2,0.2,0.1c0-0.9,0.8-1.3,1.4-1.2c0.9,0.2,1.2,1,1.2,1.5
		C57.4,8.5,55.8,9.5,54.3,11.4L54.3,11.4z"/>
	<path id="path6828-8-3" inkscape:connector-curvature="0" sodipodi:nodetypes="cccccccccccc" class="st1" d="M21.6-68
		c-3.2,4.6-6.6,7.2-6.7,10.7c0,1.2,0.6,3.1,2.6,3.5c1.3,0.2,3-0.8,3-2.9c0-0.4,0.4-0.4,0.4,0.2c-0.1,1.6-0.6,3.6-1.5,5.1
		c1.4,0,2.8,0,4.2,0c-0.9-1.6-1.4-3.5-1.5-5.1c0-0.6,0.4-0.6,0.4-0.2c0,2.1,1.8,3.1,3,2.9c2-0.4,2.6-2.3,2.6-3.5
		C28.2-60.8,24.8-63.5,21.6-68L21.6-68z"/>
	<path id="path6842-0-7" inkscape:connector-curvature="0" sodipodi:nodetypes="cccccccccccc" class="st1" d="M21.6,17.4
		c-3.2-4.6-6.6-7.2-6.7-10.7c0-1.2,0.6-3.1,2.6-3.5c1.3-0.2,3,0.8,3,2.9c0,0.4,0.4,0.4,0.4-0.2c-0.1-1.6-0.6-3.6-1.5-5.1
		c1.4,0,2.8,0,4.2,0c-0.9,1.6-1.4,3.5-1.5,5.1c0,0.6,0.4,0.6,0.4,0.2c0-2.1,1.8-3.1,3-2.9c2,0.4,2.6,2.3,2.6,3.5
		C28.2,10.2,24.8,12.9,21.6,17.4L21.6,17.4z"/>
	<path id="path6844-7-0" inkscape:connector-curvature="0" sodipodi:nodetypes="cccccccccccc" class="st1" d="M21.6-33.6
		c-3.2,4.6-6.6,7.2-6.7,10.7c0,1.2,0.6,3.1,2.6,3.5c1.3,0.2,3-0.8,3-2.9c0-0.4,0.4-0.4,0.4,0.2c-0.1,1.6-0.6,3.6-1.5,5.1
		c1.4,0,2.8,0,4.2,0c-0.9-1.6-1.4-3.5-1.5-5.1c0-0.6,0.4-0.6,0.4-0.2c0,2.1,1.8,3.1,3,2.9c2-0.4,2.6-2.3,2.6-3.5
		C28.2-26.4,24.8-29.1,21.6-33.6L21.6-33.6z"/>
	<path id="path17-9-11-4" inkscape:connector-curvature="0" class="st1" d="M-14.9-65.6l0.9-0.6c0.8,1.2,1.6,2.1,2.9,1.9
		c2-0.1,2.8-2.2,2.4-3.7c-0.4-1.4-2-2.1-3.3-1.3c-0.3,0.2-0.6,0.3-0.7,0.3c-0.1,0-0.4-0.6-0.4-0.8c0.9-1.3,3-3.5,3-3.5h-3.3v1.5
		h-1.3v-2.7h6.4v0.9c0,0-1.7,1.8-2.3,2.8c1.4,0.1,2.5,0.9,2.9,2.3c0.2,0.7,0.1,2.4-0.2,3.2c-0.5,1.2-1.9,2.2-3.2,2.3
		C-13.1-63-14.3-64.5-14.9-65.6L-14.9-65.6L-14.9-65.6z"/>
	<path id="path17-9-1-0-8" inkscape:connector-curvature="0" class="st1" d="M58,15l-0.9,0.6c-0.8-1.2-1.6-2.1-2.9-1.9
		c-2,0.1-2.8,2.2-2.4,3.7c0.4,1.4,2,2.1,3.3,1.3c0.3-0.2,0.6-0.3,0.7-0.3c0.1,0,0.4,0.6,0.4,0.8c-0.9,1.3-3,3.5-3,3.5h3.3v-1.5h1.3
		V24h-6.4v-0.9c0,0,1.7-1.8,2.3-2.8c-1.4-0.1-2.5-0.9-2.9-2.3c-0.2-0.7-0.1-2.4,0.2-3.2c0.5-1.2,1.9-2.2,3.2-2.3
		C56.3,12.4,57.5,13.9,58,15L58,15z"/>
</g>
</svg>
 