<!-- Generator: Adobe Illustrator 19.2.0, SVG Export Plug-In  -->
<svg version="1.1"
	 xmlns="http://www.w3.org/2000/svg" xmlns:xlink="http://www.w3.org/1999/xlink" xmlns:a="http://ns.adobe.com/AdobeSVGViewerExtensions/3.0/"
	 x="0px" y="0px" width="78.1px" height="126.2px" viewBox="0 0 78.1 126.2" style="enable-background:new 0 0 78.1 126.2;"
	 xml:space="preserve">
<style type="text/css">
	.st0{fill:#FFFFFF;stroke:#010101;stroke-width:1.0006;}
	.st1{fill:#010101;}
</style>
<defs>
</defs>
<g id="S4" transform="matrix(0.99553774,0,0,0.99680134,-42.89003,79.60164)">
	<g id="g8473-4-9">
		<path id="rect6852-0-4" class="st0" d="M47.3-61.9h70c2,0,3.7,1.7,3.7,3.7V42.5c0,2-1.7,3.7-3.7,3.7h-70c-2,0-3.7-1.7-3.7-3.7
			V-58.2C43.6-60.2,45.2-61.9,47.3-61.9z"/>
		<path id="path6882-1-0" inkscape:connector-curvature="0" sodipodi:nodetypes="cccccccccccc" class="st1" d="M64.3-50.6
			c-3.2,4.6-6.6,7.2-6.7,10.7c0,1.2,0.6,3.1,2.6,3.5c1.3,0.2,3-0.8,3-2.9c0-0.4,0.4-0.4,0.4,0.2c-0.1,1.6-0.6,3.6-1.5,5.1
			c1.4,0,2.8,0,4.2,0C65.6-35.5,65-37.4,65-39c0-0.6,0.4-0.6,0.4-0.2c0,2.1,1.8,3.1,3,2.9c2-0.4,2.6-2.3,2.6-3.5
			C71-43.4,67.5-46,64.3-50.6L64.3-50.6z"/>
		<path id="path6884-6-5" inkscape:connector-curvature="0" sodipodi:nodetypes="cccccccccccc" class="st1" d="M49.6-44.6
			c-1.5,1.9-3.1,3-3.1,4.5c0,0.5,0.3,1.3,1.2,1.5c0.6,0.1,1.4-0.3,1.4-1.2c0-0.2,0.2-0.2,0.2,0.1c0,0.7-0.3,1.5-0.7,2.1
			c0.7,0,1.3,0,2,0c-0.4-0.6-0.7-1.4-0.7-2.1c0-0.2,0.2-0.2,0.2-0.1c0,0.9,0.8,1.3,1.4,1.2c0.9-0.2,1.2-1,1.2-1.5
			C52.6-41.6,51.1-42.7,49.6-44.6L49.6-44.6z"/>
		<path id="path6888-1-5" inkscape:connector-curvature="0" sodipodi:nodetypes="cccccccccccc" class="st1" d="M115,28.9
			c-1.5-1.9-3.1-3-3.1-4.5c0-0.5,0.3-1.3,1.2-1.5c0.6-0.1,1.4,0.3,1.4,1.2c0,0.2,0.2,0.2,0.2-0.1c0-0.7-0.3-1.5-0.7-2.1
			c0.7,0,1.3,0,2,0c-0.4,0.6-0.7,1.4-0.7,2.1c0,0.2,0.2,0.2,0.2,0.1c0-0.9,0.8-1.3,1.4-1.2c0.9,0.2,1.2,1,1.2,1.5
			C118.1,25.9,116.5,27,115,28.9L115,28.9z"/>
		<path id="path6890-4-9" inkscape:connector-curvature="0" sodipodi:nodetypes="cccccccccccc" class="st1" d="M100.2-50.6
			c-3.2,4.6-6.6,7.2-6.7,10.7c0,1.2,0.6,3.1,2.6,3.5c1.3,0.2,3-0.8,3-2.9c0-0.4,0.4-0.4,0.4,0.2c-0.1,1.6-0.6,3.6-1.5,5.1
			c1.4,0,2.8,0,4.2,0c-0.9-1.6-1.4-3.5-1.5-5.1c0-0.6,0.4-0.6,0.4-0.2c0,2.1,1.8,3.1,3,2.9c2-0.4,2.6-2.3,2.6-3.5
			C106.9-43.4,103.4-46,100.2-50.6L100.2-50.6z"/>
		<path id="path6902-7-5" inkscape:connector-curvature="0" sodipodi:nodetypes="cccccccccccc" class="st1" d="M64.3,34.9
			c-3.2-4.6-6.6-7.2-6.7-10.7c0-1.2,0.6-3.1,2.6-3.5c1.3-0.2,3,0.8,3,2.9c0,0.4,0.4,0.4,0.4-0.2c-0.1-1.6-0.6-3.6-1.5-5.1
			c1.4,0,2.8,0,4.2,0c-0.9,1.6-1.4,3.5-1.5,5.1c0,0.6,0.4,0.6,0.4,0.2c0-2.1,1.8-3.1,3-2.9c2,0.4,2.6,2.3,2.6,3.5
			C71,27.7,67.5,30.3,64.3,34.9L64.3,34.9z"/>
		<path id="path6904-9-7" inkscape:connector-curvature="0" sodipodi:nodetypes="cccccccccccc" class="st1" d="M100.2,34.9
			c-3.2-4.6-6.6-7.2-6.7-10.7c0-1.2,0.6-3.1,2.6-3.5c1.3-0.2,3,0.8,3,2.9c0,0.4,0.4,0.4,0.4-0.2c-0.1-1.6-0.6-3.6-1.5-5.1
			c1.4,0,2.8,0,4.2,0c-0.9,1.6-1.4,3.5-1.5,5.1c0,0.6,0.4,0.6,0.4,0.2c0-2.1,1.8-3.1,3-2.9c2,0.4,2.6,2.3,2.6,3.5
			C106.9,27.7,103.4,30.3,100.2,34.9L100.2,34.9z"/>
		<path id="path19-08-0-9" inkscape:connector-curvature="0" class="st1" d="M49.6-45.7v-1h0.9v-1.7H46v-1.2l4.9-7.6l0.8,0v7.6
			h1.4v1.2h-1.4l0,1.7h0.8v1L49.6-45.7L49.6-45.7z M50.5-54.3l-3.1,4.8h3.1V-54.3z"/>
		<path id="path19-08-1-1-4" inkscape:connector-curvature="0" class="st1" d="M114.9,30v1H114v1.7h4.6v1.2l-4.9,7.6l-0.8,0v-7.6
			h-1.4v-1.2h1.4l0-1.7h-0.8v-1L114.9,30L114.9,30z M114,38.7l3.1-4.8H114V38.7z"/>
	</g>
</g>
<path id="rect9870-7-0" class="st0" d="M77.6,0c0,2-1.7,3.7-3.7,3.7H4.2C2.2,3.7,0.5,2,0.5,0"/>
</svg>
