<!-- Generator: Adobe Illustrator 19.2.0, SVG Export Plug-In  -->
<svg version="1.1"
	 xmlns="http://www.w3.org/2000/svg" xmlns:xlink="http://www.w3.org/1999/xlink" xmlns:a="http://ns.adobe.com/AdobeSVGViewerExtensions/3.0/"
	 x="0px" y="0px" width="78.1px" height="108.8px" viewBox="0 0 78.1 108.8" style="enable-background:new 0 0 78.1 108.8;"
	 xml:space="preserve">
<style type="text/css">
	.st0{fill:#FFFFFF;stroke:#010101;stroke-width:1.0006;}
	.st1{fill:#010101;}
</style>
<defs>
</defs>
<g id="S5" transform="matrix(0.99553774,0,0,0.99680134,-103.31667,79.601599)">
	<g id="g8459-0-4" transform="matrix(-1,0,0,-1,3489.2901,-631.00533)">
		<path id="rect6920-5-5" class="st0" d="M3311.3-659.8h70c2,0,3.7,1.7,3.7,3.7v100.7c0,2-1.7,3.7-3.7,3.7h-70
			c-2,0-3.7-1.7-3.7-3.7v-100.7C3307.6-658.1,3309.3-659.8,3311.3-659.8z"/>
		<path id="path6950-9-9" inkscape:connector-curvature="0" sodipodi:nodetypes="cccccccccccc" class="st1" d="M3328.4-648.4
			c-3.2,4.6-6.6,7.2-6.7,10.7c0,1.2,0.6,3.1,2.6,3.5c1.3,0.2,3-0.8,3-2.9c0-0.4,0.4-0.4,0.4,0.2c-0.1,1.6-0.6,3.6-1.5,5.1
			c1.4,0,2.8,0,4.2,0c-0.9-1.6-1.4-3.5-1.5-5.1c0-0.6,0.4-0.6,0.4-0.2c0,2.1,1.8,3.1,3,2.9c2-0.4,2.6-2.3,2.6-3.5
			C3335-641.3,3331.5-643.9,3328.4-648.4L3328.4-648.4z"/>
		<path id="path6952-6-0" inkscape:connector-curvature="0" sodipodi:nodetypes="cccccccccccc" class="st1" d="M3313.6-642.5
			c-1.5,1.9-3.1,3-3.1,4.5c0,0.5,0.3,1.3,1.2,1.5c0.6,0.1,1.4-0.3,1.4-1.2c0-0.2,0.2-0.2,0.2,0.1c0,0.7-0.3,1.5-0.7,2.1
			c0.7,0,1.3,0,2,0c-0.4-0.6-0.7-1.4-0.7-2.1c0-0.2,0.2-0.2,0.2-0.1c0,0.9,0.8,1.3,1.4,1.2c0.9-0.2,1.2-1,1.2-1.5
			C3316.7-639.5,3315.1-640.5,3313.6-642.5L3313.6-642.5z"/>
		<path id="path6956-5-0" inkscape:connector-curvature="0" sodipodi:nodetypes="cccccccccccc" class="st1" d="M3379-569
			c-1.5-1.9-3.1-3-3.1-4.5c0-0.5,0.3-1.3,1.2-1.5c0.6-0.1,1.4,0.3,1.4,1.2c0,0.2,0.2,0.2,0.2-0.1c0-0.7-0.3-1.5-0.7-2.1
			c0.7,0,1.3,0,2,0c-0.4,0.6-0.7,1.4-0.7,2.1c0,0.2,0.2,0.2,0.2,0.1c0-0.9,0.8-1.3,1.4-1.2c0.9,0.2,1.2,1,1.2,1.5
			C3382.1-572,3380.5-570.9,3379-569L3379-569z"/>
		<path id="path6958-4-1" inkscape:connector-curvature="0" sodipodi:nodetypes="cccccccccccc" class="st1" d="M3364.3-648.4
			c-3.2,4.6-6.6,7.2-6.7,10.7c0,1.2,0.6,3.1,2.6,3.5c1.3,0.2,3-0.8,3-2.9c0-0.4,0.4-0.4,0.4,0.2c-0.1,1.6-0.6,3.6-1.5,5.1
			c1.4,0,2.8,0,4.2,0c-0.9-1.6-1.4-3.5-1.5-5.1c0-0.6,0.4-0.6,0.4-0.2c0,2.1,1.8,3.1,3,2.9c2-0.4,2.6-2.3,2.6-3.5
			C3370.9-641.3,3367.5-643.9,3364.3-648.4L3364.3-648.4z"/>
		<path id="path6970-5-5" inkscape:connector-curvature="0" sodipodi:nodetypes="cccccccccccc" class="st1" d="M3328.4-563
			c-3.2-4.6-6.6-7.2-6.7-10.7c0-1.2,0.6-3.1,2.6-3.5c1.3-0.2,3,0.8,3,2.9c0,0.4,0.4,0.4,0.4-0.2c-0.1-1.6-0.6-3.6-1.5-5.1
			c1.4,0,2.8,0,4.2,0c-0.9,1.6-1.4,3.5-1.5,5.1c0,0.6,0.4,0.6,0.4,0.2c0-2.1,1.8-3.1,3-2.9c2,0.4,2.6,2.3,2.6,3.5
			C3335-570.2,3331.5-567.6,3328.4-563L3328.4-563z"/>
		<path id="path6972-5-8" inkscape:connector-curvature="0" sodipodi:nodetypes="cccccccccccc" class="st1" d="M3364.3-563
			c-3.2-4.6-6.6-7.2-6.7-10.7c0-1.2,0.6-3.1,2.6-3.5c1.3-0.2,3,0.8,3,2.9c0,0.4,0.4,0.4,0.4-0.2c-0.1-1.6-0.6-3.6-1.5-5.1
			c1.4,0,2.8,0,4.2,0c-0.9,1.6-1.4,3.5-1.5,5.1c0,0.6,0.4,0.6,0.4,0.2c0-2.1,1.8-3.1,3-2.9c2,0.4,2.6,2.3,2.6,3.5
			C3370.9-570.2,3367.5-567.6,3364.3-563L3364.3-563z"/>
		<path id="path6980-6-3" inkscape:connector-curvature="0" sodipodi:nodetypes="cccccccccccc" class="st1" d="M3346.3-614
			c-3.2,4.6-6.6,7.2-6.7,10.7c0,1.2,0.6,3.1,2.6,3.5c1.3,0.2,3-0.8,3-2.9c0-0.4,0.4-0.4,0.4,0.2c-0.1,1.6-0.6,3.6-1.5,5.1
			c1.4,0,2.8,0,4.2,0c-0.9-1.6-1.4-3.5-1.5-5.1c0-0.6,0.4-0.6,0.4-0.2c0,2.1,1.8,3.1,3,2.9c2-0.4,2.6-2.3,2.6-3.5
			C3352.9-606.8,3349.5-609.5,3346.3-614L3346.3-614z"/>
		<path id="path21-4-5-5" inkscape:connector-curvature="0" class="st1" d="M3310-646.5l1.1,0c0.2,0.7,0.7,1.4,1.3,1.6
			c1.8,0.4,3-0.6,3.4-1.8c0.5-1.4,0-3.5-1.3-4.2c-1-0.6-2.6-0.1-3.3,1.2l-0.8-0.5l0.4-4.8h5.1v1.1h-4.2l-0.1,2
			c0.9-0.6,2.3-0.6,3.2-0.2c1.7,0.8,2.5,2.7,2.2,4.9c-0.5,2.2-1.5,3.4-3.7,3.6C3310.8-643.5,3309.9-645.3,3310-646.5L3310-646.5
			L3310-646.5z"/>
		<path id="path21-4-9-2-8" inkscape:connector-curvature="0" class="st1" d="M3382.6-564.9l-1.1,0c-0.2-0.7-0.7-1.4-1.3-1.6
			c-1.8-0.4-3,0.6-3.4,1.8c-0.5,1.4,0,3.5,1.3,4.2c1,0.6,2.6,0.1,3.3-1.2l0.8,0.5l-0.4,4.8h-5.1v-1.1h4.2l0.1-2
			c-0.9,0.6-2.3,0.6-3.2,0.2c-1.7-0.8-2.5-2.7-2.2-4.9c0.5-2.2,1.5-3.4,3.7-3.6C3381.8-567.9,3382.7-566.1,3382.6-564.9
			L3382.6-564.9L3382.6-564.9z"/>
	</g>
</g>
</svg>
