<!-- Generator: Adobe Illustrator 19.2.0, SVG Export Plug-In  -->
<svg version="1.1"
	 xmlns="http://www.w3.org/2000/svg" xmlns:xlink="http://www.w3.org/1999/xlink" xmlns:a="http://ns.adobe.com/AdobeSVGViewerExtensions/3.0/"
	 x="0px" y="0px" width="78.1px" height="108.8px" viewBox="0 0 78.1 108.8" style="enable-background:new 0 0 78.1 108.8;"
	 xml:space="preserve">
<style type="text/css">
	.st0{fill:#FFFFFF;stroke:#010101;stroke-width:1.0006;}
	.st1{fill:#010101;}
</style>
<defs>
</defs>
<g id="S6" transform="matrix(0.99553774,0,0,0.99680134,-163.74334,79.60164)">
	<path id="rect6988-1-0" class="st0" d="M168.7-79.4h70c2,0,3.7,1.7,3.7,3.7V25.1c0,2-1.7,3.7-3.7,3.7h-70c-2,0-3.7-1.7-3.7-3.7
		V-75.7C165-77.7,166.6-79.4,168.7-79.4z"/>
	<path id="path7018-7-4" inkscape:connector-curvature="0" sodipodi:nodetypes="cccccccccccc" class="st1" d="M185.7-68
		c-3.2,4.6-6.6,7.2-6.7,10.7c0,1.2,0.6,3.1,2.6,3.5c1.3,0.2,3-0.8,3-2.9c0-0.4,0.4-0.4,0.4,0.2c-0.1,1.6-0.6,3.6-1.5,5.1
		c1.4,0,2.8,0,4.2,0c-0.9-1.6-1.4-3.5-1.5-5.1c0-0.6,0.4-0.6,0.4-0.2c0,2.1,1.8,3.1,3,2.9c2-0.4,2.6-2.3,2.6-3.5
		C192.4-60.8,188.9-63.5,185.7-68L185.7-68z"/>
	<path id="path7020-0-8" inkscape:connector-curvature="0" sodipodi:nodetypes="cccccccccccc" class="st1" d="M171-62
		c-1.5,1.9-3.1,3-3.1,4.5c0,0.5,0.3,1.3,1.2,1.5c0.6,0.1,1.4-0.3,1.4-1.2c0-0.2,0.2-0.2,0.2,0.1c0,0.7-0.3,1.5-0.7,2.1
		c0.7,0,1.3,0,2,0c-0.4-0.6-0.7-1.4-0.7-2.1c0-0.2,0.2-0.2,0.2-0.1c0,0.9,0.8,1.3,1.4,1.2c0.9-0.2,1.2-1,1.2-1.5
		C174-59,172.4-60.1,171-62L171-62z"/>
	<path id="path7024-7-1" inkscape:connector-curvature="0" sodipodi:nodetypes="cccccccccccc" class="st1" d="M236.4,11.4
		c-1.5-1.9-3.1-3-3.1-4.5c0-0.5,0.3-1.3,1.2-1.5c0.6-0.1,1.4,0.3,1.4,1.2c0,0.2,0.2,0.2,0.2-0.1c0-0.7-0.3-1.5-0.7-2.1
		c0.7,0,1.3,0,2,0c-0.4,0.6-0.7,1.4-0.7,2.1c0,0.2,0.2,0.2,0.2,0.1c0-0.9,0.8-1.3,1.4-1.2c0.9,0.2,1.2,1,1.2,1.5
		C239.5,8.5,237.9,9.5,236.4,11.4L236.4,11.4z"/>
	<path id="path7026-2-6" inkscape:connector-curvature="0" sodipodi:nodetypes="cccccccccccc" class="st1" d="M221.6-68
		c-3.2,4.6-6.6,7.2-6.7,10.7c0,1.2,0.6,3.1,2.6,3.5c1.3,0.2,3-0.8,3-2.9c0-0.4,0.4-0.4,0.4,0.2c-0.1,1.6-0.6,3.6-1.5,5.1
		c1.4,0,2.8,0,4.2,0c-0.9-1.6-1.4-3.5-1.5-5.1c0-0.6,0.4-0.6,0.4-0.2c0,2.1,1.8,3.1,3,2.9c2-0.4,2.6-2.3,2.6-3.5
		C228.3-60.8,224.8-63.5,221.6-68z"/>
	<path id="path7036-9-6" inkscape:connector-curvature="0" sodipodi:nodetypes="cccccccccccc" class="st1" d="M185.7-33.6
		c-3.2,4.6-6.6,7.2-6.7,10.7c0,1.2,0.6,3.1,2.6,3.5c1.3,0.2,3-0.8,3-2.9c0-0.4,0.4-0.4,0.4,0.2c-0.1,1.6-0.6,3.6-1.5,5.1
		c1.4,0,2.8,0,4.2,0c-0.9-1.6-1.4-3.5-1.5-5.1c0-0.6,0.4-0.6,0.4-0.2c0,2.1,1.8,3.1,3,2.9c2-0.4,2.6-2.3,2.6-3.5
		C192.4-26.4,188.9-29.1,185.7-33.6L185.7-33.6z"/>
	<path id="path7038-9-6" inkscape:connector-curvature="0" sodipodi:nodetypes="cccccccccccc" class="st1" d="M185.7,17.4
		c-3.2-4.6-6.6-7.2-6.7-10.7c0-1.2,0.6-3.1,2.6-3.5c1.3-0.2,3,0.8,3,2.9c0,0.4,0.4,0.4,0.4-0.2c-0.1-1.6-0.6-3.6-1.5-5.1
		c1.4,0,2.8,0,4.2,0c-0.9,1.6-1.4,3.5-1.5,5.1c0,0.6,0.4,0.6,0.4,0.2c0-2.1,1.8-3.1,3-2.9c2,0.4,2.6,2.3,2.6,3.5
		C192.4,10.2,188.9,12.9,185.7,17.4L185.7,17.4z"/>
	<path id="path7040-0-9" inkscape:connector-curvature="0" sodipodi:nodetypes="cccccccccccc" class="st1" d="M221.6,17.4
		c-3.2-4.6-6.6-7.2-6.7-10.7c0-1.2,0.6-3.1,2.6-3.5c1.3-0.2,3,0.8,3,2.9c0,0.4,0.4,0.4,0.4-0.2c-0.1-1.6-0.6-3.6-1.5-5.1
		c1.4,0,2.8,0,4.2,0c-0.9,1.6-1.4,3.5-1.5,5.1c0,0.6,0.4,0.6,0.4,0.2c0-2.1,1.8-3.1,3-2.9c2,0.4,2.6,2.3,2.6,3.5
		C228.3,10.2,224.8,12.9,221.6,17.4L221.6,17.4z"/>
	<path id="path7050-2-9" inkscape:connector-curvature="0" sodipodi:nodetypes="cccccccccccc" class="st1" d="M221.6-33.6
		c-3.2,4.6-6.6,7.2-6.7,10.7c0,1.2,0.6,3.1,2.6,3.5c1.3,0.2,3-0.8,3-2.9c0-0.4,0.4-0.4,0.4,0.2c-0.1,1.6-0.6,3.6-1.5,5.1
		c1.4,0,2.8,0,4.2,0c-0.9-1.6-1.4-3.5-1.5-5.1c0-0.6,0.4-0.6,0.4-0.2c0,2.1,1.8,3.1,3,2.9c2-0.4,2.6-2.3,2.6-3.5
		C228.3-26.4,224.8-29.1,221.6-33.6z"/>
	<path id="path23-1-9-8" inkscape:connector-curvature="0" class="st1" d="M167.6-66.6c-0.1-1-0.1-3.5,0-4.2
		c0.4-2.3,1.2-3.3,2.7-3.6c1.4-0.3,3.4,0,3.8,1.9l-1.2,0c-0.6-1.3-2.2-0.9-3.1-0.4c-0.7,0.4-1,2.3-0.9,2.4c0,0,1.4-1,2.4-0.9
		c2.3,0.2,3.2,2.2,3.2,4.1c-0.1,2.3-0.8,4.1-3.2,4.2C168.9-63.2,167.8-64.5,167.6-66.6L167.6-66.6L167.6-66.6z M173.3-67.2
		c0-1.6-0.7-2.7-2-2.9c-1.3-0.1-2.7,1.2-2.6,2.8c0.1,1.6,0.7,3,2.4,3C172.7-64.4,173.3-66.1,173.3-67.2L173.3-67.2L173.3-67.2z"/>
	<path id="path23-1-5-6-4" inkscape:connector-curvature="0" class="st1" d="M239.8,16.1c0.1,1,0.1,3.5,0,4.2
		c-0.4,2.3-1.2,3.3-2.7,3.6c-1.4,0.3-3.4,0-3.8-1.9l1.2,0c0.6,1.3,2.2,0.9,3.1,0.4c0.7-0.4,1-2.3,0.9-2.4c0,0-1.4,1-2.4,0.9
		c-2.3-0.2-3.2-2.2-3.2-4.1c0.1-2.3,0.8-4.1,3.2-4.2C238.5,12.6,239.6,13.9,239.8,16.1L239.8,16.1L239.8,16.1z M234.1,16.7
		c0,1.6,0.7,2.7,2,2.9c1.3,0.1,2.7-1.2,2.6-2.8c-0.1-1.6-0.7-3-2.4-3C234.6,13.8,234.1,15.5,234.1,16.7L234.1,16.7z"/>
</g>
</svg>
