<!-- Generator: Adobe Illustrator 19.2.0, SVG Export Plug-In  -->
<svg version="1.1"
	 xmlns="http://www.w3.org/2000/svg" xmlns:xlink="http://www.w3.org/1999/xlink" xmlns:a="http://ns.adobe.com/AdobeSVGViewerExtensions/3.0/"
	 x="0px" y="0px" width="78.1px" height="108.8px" viewBox="0 0 78.1 108.8" style="enable-background:new 0 0 78.1 108.8;"
	 xml:space="preserve">
<style type="text/css">
	.st0{fill:#FFFFFF;stroke:#010101;stroke-width:1.0006;}
	.st1{fill:#010101;}
</style>
<defs>
</defs>
<g id="S7" transform="matrix(0.99553774,0,0,0.99680134,-224.16988,79.60164)">
	<path id="rect7056-4-2" class="st0" d="M229.4-79.4h70c2,0,3.7,1.7,3.7,3.7V25.1c0,2-1.7,3.7-3.7,3.7h-70c-2,0-3.7-1.7-3.7-3.7
		V-75.7C225.7-77.7,227.3-79.4,229.4-79.4z"/>
	<path id="path7086-8-0" inkscape:connector-curvature="0" sodipodi:nodetypes="cccccccccccc" class="st1" d="M246.4-68
		c-3.2,4.6-6.6,7.2-6.7,10.7c0,1.2,0.6,3.1,2.6,3.5c1.3,0.2,3-0.8,3-2.9c0-0.4,0.4-0.4,0.4,0.2c-0.1,1.6-0.6,3.6-1.5,5.1
		c1.4,0,2.8,0,4.2,0c-0.9-1.6-1.4-3.5-1.5-5.1c0-0.6,0.4-0.6,0.4-0.2c0,2.1,1.8,3.1,3,2.9c2-0.4,2.6-2.3,2.6-3.5
		C253.1-60.8,249.6-63.5,246.4-68z"/>
	<path id="path7088-9-3" inkscape:connector-curvature="0" sodipodi:nodetypes="cccccccccccc" class="st1" d="M231.6-62
		c-1.5,1.9-3.1,3-3.1,4.5c0,0.5,0.3,1.3,1.2,1.5c0.6,0.1,1.4-0.3,1.4-1.2c0-0.2,0.2-0.2,0.2,0.1c0,0.7-0.3,1.5-0.7,2.1
		c0.7,0,1.3,0,2,0c-0.4-0.6-0.7-1.4-0.7-2.1c0-0.2,0.2-0.2,0.2-0.1c0,0.9,0.8,1.3,1.4,1.2c0.9-0.2,1.2-1,1.2-1.5
		C234.7-59,233.1-60.1,231.6-62L231.6-62z"/>
	<path id="path7092-7-0" inkscape:connector-curvature="0" sodipodi:nodetypes="cccccccccccc" class="st1" d="M297.1,11.4
		c-1.5-1.9-3.1-3-3.1-4.5c0-0.5,0.3-1.3,1.2-1.5c0.6-0.1,1.4,0.3,1.4,1.2c0,0.2,0.2,0.2,0.2-0.1c0-0.7-0.3-1.5-0.7-2.1
		c0.7,0,1.3,0,2,0c-0.4,0.6-0.7,1.4-0.7,2.1c0,0.2,0.2,0.2,0.2,0.1c0-0.9,0.8-1.3,1.4-1.2c0.9,0.2,1.2,1,1.2,1.5
		C300.2,8.5,298.6,9.5,297.1,11.4L297.1,11.4z"/>
	<path id="path7094-3-5" inkscape:connector-curvature="0" sodipodi:nodetypes="cccccccccccc" class="st1" d="M282.3-68
		c-3.2,4.6-6.6,7.2-6.7,10.7c0,1.2,0.6,3.1,2.6,3.5c1.3,0.2,3-0.8,3-2.9c0-0.4,0.4-0.4,0.4,0.2c-0.1,1.6-0.6,3.6-1.5,5.1
		c1.4,0,2.8,0,4.2,0c-0.9-1.6-1.4-3.5-1.5-5.1c0-0.6,0.4-0.6,0.4-0.2c0,2.1,1.8,3.1,3,2.9c2-0.4,2.6-2.3,2.6-3.5
		C289-60.8,285.5-63.5,282.3-68z"/>
	<path id="path7098-7-3" inkscape:connector-curvature="0" sodipodi:nodetypes="cccccccccccc" class="st1" d="M264.4-50.8
		c-3.2,4.6-6.6,7.2-6.7,10.7c0,1.2,0.6,3.1,2.6,3.5c1.3,0.2,3-0.8,3-2.9c0-0.4,0.4-0.4,0.4,0.2c-0.1,1.6-0.6,3.6-1.5,5.1
		c1.4,0,2.8,0,4.2,0c-0.9-1.6-1.4-3.5-1.5-5.1c0-0.6,0.4-0.6,0.4-0.2c0,2.1,1.8,3.1,3,2.9c2-0.4,2.6-2.3,2.6-3.5
		C271-43.6,267.6-46.3,264.4-50.8z"/>
	<path id="path7105-0-7" inkscape:connector-curvature="0" sodipodi:nodetypes="cccccccccccc" class="st1" d="M246.4-33.6
		c-3.2,4.6-6.6,7.2-6.7,10.7c0,1.2,0.6,3.1,2.6,3.5c1.3,0.2,3-0.8,3-2.9c0-0.4,0.4-0.4,0.4,0.2c-0.1,1.6-0.6,3.6-1.5,5.1
		c1.4,0,2.8,0,4.2,0c-0.9-1.6-1.4-3.5-1.5-5.1c0-0.6,0.4-0.6,0.4-0.2c0,2.1,1.8,3.1,3,2.9c2-0.4,2.6-2.3,2.6-3.5
		C253.1-26.4,249.6-29.1,246.4-33.6z"/>
	<path id="path7107-6-3" inkscape:connector-curvature="0" sodipodi:nodetypes="cccccccccccc" class="st1" d="M246.4,17.4
		c-3.2-4.6-6.6-7.2-6.7-10.7c0-1.2,0.6-3.1,2.6-3.5c1.3-0.2,3,0.8,3,2.9c0,0.4,0.4,0.4,0.4-0.2c-0.1-1.6-0.6-3.6-1.5-5.1
		c1.4,0,2.8,0,4.2,0c-0.9,1.6-1.4,3.5-1.5,5.1c0,0.6,0.4,0.6,0.4,0.2c0-2.1,1.8-3.1,3-2.9c2,0.4,2.6,2.3,2.6,3.5
		C253.1,10.2,249.6,12.9,246.4,17.4L246.4,17.4z"/>
	<path id="path7109-5-0" inkscape:connector-curvature="0" sodipodi:nodetypes="cccccccccccc" class="st1" d="M282.3,17.4
		c-3.2-4.6-6.6-7.2-6.7-10.7c0-1.2,0.6-3.1,2.6-3.5c1.3-0.2,3,0.8,3,2.9c0,0.4,0.4,0.4,0.4-0.2c-0.1-1.6-0.6-3.6-1.5-5.1
		c1.4,0,2.8,0,4.2,0c-0.9,1.6-1.4,3.5-1.5,5.1c0,0.6,0.4,0.6,0.4,0.2c0-2.1,1.8-3.1,3-2.9c2,0.4,2.6,2.3,2.6,3.5
		C289,10.2,285.5,12.9,282.3,17.4L282.3,17.4z"/>
	<path id="path7119-1-9" inkscape:connector-curvature="0" sodipodi:nodetypes="cccccccccccc" class="st1" d="M282.3-33.6
		c-3.2,4.6-6.6,7.2-6.7,10.7c0,1.2,0.6,3.1,2.6,3.5c1.3,0.2,3-0.8,3-2.9c0-0.4,0.4-0.4,0.4,0.2c-0.1,1.6-0.6,3.6-1.5,5.1
		c1.4,0,2.8,0,4.2,0c-0.9-1.6-1.4-3.5-1.5-5.1c0-0.6,0.4-0.6,0.4-0.2c0,2.1,1.8,3.1,3,2.9c2-0.4,2.6-2.3,2.6-3.5
		C289-26.4,285.5-29.1,282.3-33.6z"/>
	<path id="path25-4-6-4" inkscape:connector-curvature="0" class="st1" d="M229.9-63.1c0.8-4,1.6-7,3.7-10.2h-4.3v1.4h-1.1v-2.6
		h6.3l0.8,1.2c-2.2,2.4-4.3,10.3-3.9,10.2H229.9L229.9-63.1z"/>
	<path id="path25-4-1-9-1" inkscape:connector-curvature="0" class="st1" d="M298.9,12.5c-0.8,4-1.6,7-3.7,10.2h4.3v-1.4h1.1V24
		h-6.3l-0.8-1.2c2.2-2.4,4.3-10.3,3.9-10.2H298.9z"/>
</g>
</svg>
