<!-- Generator: Adobe Illustrator 19.2.0, SVG Export Plug-In  -->
<svg version="1.1"
	 xmlns="http://www.w3.org/2000/svg" xmlns:xlink="http://www.w3.org/1999/xlink" xmlns:a="http://ns.adobe.com/AdobeSVGViewerExtensions/3.0/"
	 x="0px" y="0px" width="78.1px" height="108.8px" viewBox="0 0 78.1 108.8" style="enable-background:new 0 0 78.1 108.8;"
	 xml:space="preserve">
<style type="text/css">
	.st0{fill:#FFFFFF;stroke:#010101;stroke-width:1.0006;}
	.st1{fill:#010101;}
</style>
<defs>
</defs>
<g id="S8" transform="matrix(0.99553774,0,0,0.99680134,-284.59654,79.60164)">
	<path id="rect7125-2-7" class="st0" d="M290.1-79.4h70c2,0,3.7,1.7,3.7,3.7V25.1c0,2-1.7,3.7-3.7,3.7h-70c-2,0-3.7-1.7-3.7-3.7
		V-75.7C286.4-77.7,288-79.4,290.1-79.4z"/>
	<path id="path7155-4-0" inkscape:connector-curvature="0" sodipodi:nodetypes="cccccccccccc" class="st1" d="M307.1-68
		c-3.2,4.6-6.6,7.2-6.7,10.7c0,1.2,0.6,3.1,2.6,3.5c1.3,0.2,3-0.8,3-2.9c0-0.4,0.4-0.4,0.4,0.2c-0.1,1.6-0.6,3.6-1.5,5.1
		c1.4,0,2.8,0,4.2,0c-0.9-1.6-1.4-3.5-1.5-5.1c0-0.6,0.4-0.6,0.4-0.2c0,2.1,1.8,3.1,3,2.9c2-0.4,2.6-2.3,2.6-3.5
		C313.8-60.8,310.3-63.5,307.1-68z"/>
	<path id="path7157-2-9" inkscape:connector-curvature="0" sodipodi:nodetypes="cccccccccccc" class="st1" d="M292.3-62
		c-1.5,1.9-3.1,3-3.1,4.5c0,0.5,0.3,1.3,1.2,1.5c0.6,0.1,1.4-0.3,1.4-1.2c0-0.2,0.2-0.2,0.2,0.1c0,0.7-0.3,1.5-0.7,2.1
		c0.7,0,1.3,0,2,0c-0.4-0.6-0.7-1.4-0.7-2.1c0-0.2,0.2-0.2,0.2-0.1c0,0.9,0.8,1.3,1.4,1.2c0.9-0.2,1.2-1,1.2-1.5
		C295.4-59,293.8-60.1,292.3-62L292.3-62z"/>
	<path id="path7162-7-0" inkscape:connector-curvature="0" sodipodi:nodetypes="cccccccccccc" class="st1" d="M357.8,11.4
		c-1.5-1.9-3.1-3-3.1-4.5c0-0.5,0.3-1.3,1.2-1.5c0.6-0.1,1.4,0.3,1.4,1.2c0,0.2,0.2,0.2,0.2-0.1c0-0.7-0.3-1.5-0.7-2.1
		c0.7,0,1.3,0,2,0c-0.4,0.6-0.7,1.4-0.7,2.1c0,0.2,0.2,0.2,0.2,0.1c0-0.9,0.8-1.3,1.4-1.2c0.9,0.2,1.2,1,1.2,1.5
		C360.9,8.5,359.3,9.5,357.8,11.4L357.8,11.4z"/>
	<path id="path7164-8-3" inkscape:connector-curvature="0" sodipodi:nodetypes="cccccccccccc" class="st1" d="M343-68
		c-3.2,4.6-6.6,7.2-6.7,10.7c0,1.2,0.6,3.1,2.6,3.5c1.3,0.2,3-0.8,3-2.9c0-0.4,0.4-0.4,0.4,0.2c-0.1,1.6-0.6,3.6-1.5,5.1
		c1.4,0,2.8,0,4.2,0c-0.9-1.6-1.4-3.5-1.5-5.1c0-0.6,0.4-0.6,0.4-0.2c0,2.1,1.8,3.1,3,2.9c2-0.4,2.6-2.3,2.6-3.5
		C349.7-60.8,346.2-63.5,343-68z"/>
	<path id="path7168-3-2" inkscape:connector-curvature="0" sodipodi:nodetypes="cccccccccccc" class="st1" d="M325.1-50.8
		c-3.2,4.6-6.6,7.2-6.7,10.7c0,1.2,0.6,3.1,2.6,3.5c1.3,0.2,3-0.8,3-2.9c0-0.4,0.4-0.4,0.4,0.2c-0.1,1.6-0.6,3.6-1.5,5.1
		c1.4,0,2.8,0,4.2,0c-0.9-1.6-1.4-3.5-1.5-5.1c0-0.6,0.4-0.6,0.4-0.2c0,2.1,1.8,3.1,3,2.9c2-0.4,2.6-2.3,2.6-3.5
		C331.7-43.6,328.3-46.3,325.1-50.8z"/>
	<path id="path7174-5-0" inkscape:connector-curvature="0" sodipodi:nodetypes="cccccccccccc" class="st1" d="M307.1-33.6
		c-3.2,4.6-6.6,7.2-6.7,10.7c0,1.2,0.6,3.1,2.6,3.5c1.3,0.2,3-0.8,3-2.9c0-0.4,0.4-0.4,0.4,0.2c-0.1,1.6-0.6,3.6-1.5,5.1
		c1.4,0,2.8,0,4.2,0c-0.9-1.6-1.4-3.5-1.5-5.1c0-0.6,0.4-0.6,0.4-0.2c0,2.1,1.8,3.1,3,2.9c2-0.4,2.6-2.3,2.6-3.5
		C313.8-26.4,310.3-29.1,307.1-33.6z"/>
	<path id="path7176-7-0" inkscape:connector-curvature="0" sodipodi:nodetypes="cccccccccccc" class="st1" d="M307.1,17.4
		c-3.2-4.6-6.6-7.2-6.7-10.7c0-1.2,0.6-3.1,2.6-3.5c1.3-0.2,3,0.8,3,2.9c0,0.4,0.4,0.4,0.4-0.2c-0.1-1.6-0.6-3.6-1.5-5.1
		c1.4,0,2.8,0,4.2,0c-0.9,1.6-1.4,3.5-1.5,5.1c0,0.6,0.4,0.6,0.4,0.2c0-2.1,1.8-3.1,3-2.9c2,0.4,2.6,2.3,2.6,3.5
		C313.8,10.2,310.3,12.9,307.1,17.4L307.1,17.4z"/>
	<path id="path7178-9-4" inkscape:connector-curvature="0" sodipodi:nodetypes="cccccccccccc" class="st1" d="M343,17.4
		c-3.2-4.6-6.6-7.2-6.7-10.7c0-1.2,0.6-3.1,2.6-3.5c1.3-0.2,3,0.8,3,2.9c0,0.4,0.4,0.4,0.4-0.2c-0.1-1.6-0.6-3.6-1.5-5.1
		c1.4,0,2.8,0,4.2,0c-0.9,1.6-1.4,3.5-1.5,5.1c0,0.6,0.4,0.6,0.4,0.2c0-2.1,1.8-3.1,3-2.9c2,0.4,2.6,2.3,2.6,3.5
		C349.7,10.2,346.2,12.9,343,17.4L343,17.4z"/>
	<path id="path7180-5-1" inkscape:connector-curvature="0" sodipodi:nodetypes="cccccccccccc" class="st1" d="M325.1,0.2
		c-3.2-4.6-6.6-7.2-6.7-10.7c0-1.2,0.6-3.1,2.6-3.5c1.3-0.2,3,0.8,3,2.9c0,0.4,0.4,0.4,0.4-0.2c-0.1-1.6-0.6-3.6-1.5-5.1
		c1.4,0,2.8,0,4.2,0c-0.9,1.6-1.4,3.5-1.5,5.1c0,0.6,0.4,0.6,0.4,0.2c0-2.1,1.8-3.1,3-2.9c2,0.4,2.6,2.3,2.6,3.5
		C331.7-7,328.3-4.3,325.1,0.2z"/>
	<path id="path7189-7-7" inkscape:connector-curvature="0" sodipodi:nodetypes="cccccccccccc" class="st1" d="M343-33.6
		c-3.2,4.6-6.6,7.2-6.7,10.7c0,1.2,0.6,3.1,2.6,3.5c1.3,0.2,3-0.8,3-2.9c0-0.4,0.4-0.4,0.4,0.2c-0.1,1.6-0.6,3.6-1.5,5.1
		c1.4,0,2.8,0,4.2,0c-0.9-1.6-1.4-3.5-1.5-5.1c0-0.6,0.4-0.6,0.4-0.2c0,2.1,1.8,3.1,3,2.9c2-0.4,2.6-2.3,2.6-3.5
		C349.7-26.4,346.2-29.1,343-33.6z"/>
	<path id="path27-43-30-7" inkscape:connector-curvature="0" class="st1" d="M288.6-66.5c0.1-1.5,0.6-2.1,1.7-2.9
		c-0.9-0.6-1.2-1.6-1.2-2.3c0.2-1.9,1.7-2.9,3.3-2.8c1.6,0,3,1.3,3.1,2.7c0.1,1.2-0.3,1.8-1.1,2.4c1,0.9,1.7,1.4,1.6,2.9
		c0,1.5-1.3,3.3-3.6,3.4C290.3-63.1,288.6-64.9,288.6-66.5L288.6-66.5L288.6-66.5z M294.9-66.5c0.1-1.4-1.1-2.3-2.5-2.3
		c-1.4,0-2.6,1.1-2.6,2.4c0,1.3,1.6,2.1,2.6,2.1C293.6-64.3,294.8-65.3,294.9-66.5L294.9-66.5z M294.4-71.4c0-1.2-1.1-2-2.2-2
		c-1,0-2,0.8-2,1.8c0,1.2,1.2,1.8,2.2,1.9C293.4-69.8,294.4-70.5,294.4-71.4L294.4-71.4L294.4-71.4z"/>
	<path id="path27-43-3-4-8" inkscape:connector-curvature="0" class="st1" d="M354.1,15.9c0.1,1.5,0.6,2.1,1.7,2.9
		c-0.9,0.6-1.2,1.6-1.2,2.3c0.2,1.9,1.7,2.9,3.3,2.8c1.6,0,3-1.3,3.1-2.7c0.1-1.2-0.3-1.8-1.1-2.4c1-0.9,1.7-1.4,1.6-2.9
		c0-1.5-1.3-3.3-3.6-3.4C355.7,12.5,354,14.3,354.1,15.9L354.1,15.9L354.1,15.9z M360.4,15.9c0.1,1.4-1.1,2.3-2.5,2.3
		c-1.4,0-2.6-1.1-2.6-2.4c0-1.3,1.6-2.1,2.6-2.1C359.1,13.8,360.3,14.7,360.4,15.9L360.4,15.9z M359.9,20.9c0,1.2-1.1,2-2.2,2
		c-1,0-2-0.8-2-1.8c0-1.2,1.2-1.8,2.2-1.9C358.8,19.2,359.9,20,359.9,20.9L359.9,20.9L359.9,20.9z"/>
</g>
</svg>
 