<!-- Generator: Adobe Illustrator 19.2.0, SVG Export Plug-In  -->
<svg version="1.1"
	 xmlns="http://www.w3.org/2000/svg" xmlns:xlink="http://www.w3.org/1999/xlink" xmlns:a="http://ns.adobe.com/AdobeSVGViewerExtensions/3.0/"
	 x="0px" y="0px" width="78.1px" height="108.8px" viewBox="0 0 78.1 108.8" style="enable-background:new 0 0 78.1 108.8;"
	 xml:space="preserve">
<style type="text/css">
	.st0{fill:#FFFFFF;stroke:#010101;stroke-width:1.0006;}
	.st1{fill:#010101;}
</style>
<defs>
</defs>
<g id="S9" transform="matrix(0.99553774,0,0,0.99680134,-345.02296,79.60164)">
	<path id="rect7195-8-7" class="st0" d="M350.8-79.4h70c2,0,3.7,1.7,3.7,3.7V25.1c0,2-1.7,3.7-3.7,3.7h-70c-2,0-3.7-1.7-3.7-3.7
		V-75.7C347.1-77.7,348.7-79.4,350.8-79.4z"/>
	<path id="path7225-5-2" inkscape:connector-curvature="0" sodipodi:nodetypes="cccccccccccc" class="st1" d="M367.8-68
		c-3.2,4.6-6.6,7.2-6.7,10.7c0,1.2,0.6,3.1,2.6,3.5c1.3,0.2,3-0.8,3-2.9c0-0.4,0.4-0.4,0.4,0.2c-0.1,1.6-0.6,3.6-1.5,5.1
		c1.4,0,2.8,0,4.2,0c-0.9-1.6-1.4-3.5-1.5-5.1c0-0.6,0.4-0.6,0.4-0.2c0,2.1,1.8,3.1,3,2.9c2-0.4,2.6-2.3,2.6-3.5
		C374.4-60.8,371-63.5,367.8-68z"/>
	<path id="path7227-2-8" inkscape:connector-curvature="0" sodipodi:nodetypes="cccccccccccc" class="st1" d="M353-62
		c-1.5,1.9-3.1,3-3.1,4.5c0,0.5,0.3,1.3,1.2,1.5c0.6,0.1,1.4-0.3,1.4-1.2c0-0.2,0.2-0.2,0.2,0.1c0,0.7-0.3,1.5-0.7,2.1
		c0.7,0,1.3,0,2,0c-0.4-0.6-0.7-1.4-0.7-2.1c0-0.2,0.2-0.2,0.2-0.1c0,0.9,0.8,1.3,1.4,1.2c0.9-0.2,1.2-1,1.2-1.5
		C356.1-59,354.5-60.1,353-62L353-62z"/>
	<path id="path7229-4-8" inkscape:connector-curvature="0" sodipodi:nodetypes="cccccccccccc" class="st1" d="M367.8-5.5
		c-3.2-4.6-6.6-7.2-6.7-10.7c0-1.2,0.6-3.1,2.6-3.5c1.3-0.2,3,0.8,3,2.9c0,0.4,0.4,0.4,0.4-0.2c-0.1-1.6-0.6-3.6-1.5-5.1
		c1.4,0,2.8,0,4.2,0c-0.9,1.6-1.4,3.5-1.5,5.1c0,0.6,0.4,0.6,0.4,0.2c0-2.1,1.8-3.1,3-2.9c2,0.4,2.6,2.3,2.6,3.5
		C374.4-12.7,371-10.1,367.8-5.5z"/>
	<path id="path7231-7-8" inkscape:connector-curvature="0" sodipodi:nodetypes="cccccccccccc" class="st1" d="M418.5,11.4
		c-1.5-1.9-3.1-3-3.1-4.5c0-0.5,0.3-1.3,1.2-1.5c0.6-0.1,1.4,0.3,1.4,1.2c0,0.2,0.2,0.2,0.2-0.1c0-0.7-0.3-1.5-0.7-2.1
		c0.7,0,1.3,0,2,0c-0.4,0.6-0.7,1.4-0.7,2.1c0,0.2,0.2,0.2,0.2,0.1c0-0.9,0.8-1.3,1.4-1.2c0.9,0.2,1.2,1,1.2,1.5
		C421.6,8.5,420,9.5,418.5,11.4L418.5,11.4z"/>
	<path id="path7233-8-9" inkscape:connector-curvature="0" sodipodi:nodetypes="cccccccccccc" class="st1" d="M403.7-68
		c-3.2,4.6-6.6,7.2-6.7,10.7c0,1.2,0.6,3.1,2.6,3.5c1.3,0.2,3-0.8,3-2.9c0-0.4,0.4-0.4,0.4,0.2c-0.1,1.6-0.6,3.6-1.5,5.1
		c1.4,0,2.8,0,4.2,0c-0.9-1.6-1.4-3.5-1.5-5.1c0-0.6,0.4-0.6,0.4-0.2c0,2.1,1.8,3.1,3,2.9c2-0.4,2.6-2.3,2.6-3.5
		C410.4-60.8,406.9-63.5,403.7-68z"/>
	<path id="path7235-9-4" inkscape:connector-curvature="0" sodipodi:nodetypes="cccccccccccc" class="st1" d="M367.8-45.1
		c-3.2,4.6-6.6,7.2-6.7,10.7c0,1.2,0.6,3.1,2.6,3.5c1.3,0.2,3-0.8,3-2.9c0-0.4,0.4-0.4,0.4,0.2c-0.1,1.6-0.6,3.6-1.5,5.1
		c1.4,0,2.8,0,4.2,0c-0.9-1.6-1.4-3.5-1.5-5.1c0-0.6,0.4-0.6,0.4-0.2c0,2.1,1.8,3.1,3,2.9c2-0.4,2.6-2.3,2.6-3.5
		C374.4-37.9,371-40.5,367.8-45.1z"/>
	<path id="path7241-7-2" inkscape:connector-curvature="0" sodipodi:nodetypes="cccccccccccc" class="st1" d="M403.7-45.1
		c-3.2,4.6-6.6,7.2-6.7,10.7c0,1.2,0.6,3.1,2.6,3.5c1.3,0.2,3-0.8,3-2.9c0-0.4,0.4-0.4,0.4,0.2c-0.1,1.6-0.6,3.6-1.5,5.1
		c1.4,0,2.8,0,4.2,0c-0.9-1.6-1.4-3.5-1.5-5.1c0-0.6,0.4-0.6,0.4-0.2c0,2.1,1.8,3.1,3,2.9c2-0.4,2.6-2.3,2.6-3.5
		C410.4-37.9,406.9-40.5,403.7-45.1z"/>
	<path id="path7245-1-6" inkscape:connector-curvature="0" sodipodi:nodetypes="cccccccccccc" class="st1" d="M367.8,17.4
		c-3.2-4.6-6.6-7.2-6.7-10.7c0-1.2,0.6-3.1,2.6-3.5c1.3-0.2,3,0.8,3,2.9c0,0.4,0.4,0.4,0.4-0.2c-0.1-1.6-0.6-3.6-1.5-5.1
		c1.4,0,2.8,0,4.2,0c-0.9,1.6-1.4,3.5-1.5,5.1c0,0.6,0.4,0.6,0.4,0.2c0-2.1,1.8-3.1,3-2.9c2,0.4,2.6,2.3,2.6,3.5
		C374.4,10.2,371,12.9,367.8,17.4L367.8,17.4z"/>
	<path id="path7247-0-6" inkscape:connector-curvature="0" sodipodi:nodetypes="cccccccccccc" class="st1" d="M403.7,17.4
		c-3.2-4.6-6.6-7.2-6.7-10.7c0-1.2,0.6-3.1,2.6-3.5c1.3-0.2,3,0.8,3,2.9c0,0.4,0.4,0.4,0.4-0.2c-0.1-1.6-0.6-3.6-1.5-5.1
		c1.4,0,2.8,0,4.2,0c-0.9,1.6-1.4,3.5-1.5,5.1c0,0.6,0.4,0.6,0.4,0.2c0-2.1,1.8-3.1,3-2.9c2,0.4,2.6,2.3,2.6,3.5
		C410.4,10.2,406.9,12.9,403.7,17.4L403.7,17.4z"/>
	<path id="path7251-3-6" inkscape:connector-curvature="0" sodipodi:nodetypes="cccccccccccc" class="st1" d="M403.7-5.5
		c-3.2-4.6-6.6-7.2-6.7-10.7c0-1.2,0.6-3.1,2.6-3.5c1.3-0.2,3,0.8,3,2.9c0,0.4,0.4,0.4,0.4-0.2c-0.1-1.6-0.6-3.6-1.5-5.1
		c1.4,0,2.8,0,4.2,0c-0.9,1.6-1.4,3.5-1.5,5.1c0,0.6,0.4,0.6,0.4,0.2c0-2.1,1.8-3.1,3-2.9c2,0.4,2.6,2.3,2.6,3.5
		C410.4-12.7,406.9-10.1,403.7-5.5z"/>
	<path id="path7255-7-8" inkscape:connector-curvature="0" sodipodi:nodetypes="cccccccccccc" class="st1" d="M385.8-33.6
		c-3.2,4.6-6.6,7.2-6.7,10.7c0,1.2,0.6,3.1,2.6,3.5c1.3,0.2,3-0.8,3-2.9c0-0.4,0.4-0.4,0.4,0.2c-0.1,1.6-0.6,3.6-1.5,5.1
		c1.4,0,2.8,0,4.2,0c-0.9-1.6-1.4-3.5-1.5-5.1c0-0.6,0.4-0.6,0.4-0.2c0,2.1,1.8,3.1,3,2.9c2-0.4,2.6-2.3,2.6-3.5
		C392.4-26.4,389-29.1,385.8-33.6z"/>
	<path id="path29-33-4-4" inkscape:connector-curvature="0" class="st1" d="M349.8-65.3l1-0.3c0.4,1.1,1.2,1.4,2,1.3
		c1.5-0.1,2-1.8,2.1-3.3c-0.6,0.6-1.5,0.9-2.2,0.9c-2.4-0.1-3-2.1-3.1-4.1c-0.1-1.7,0.6-2.9,1.8-3.5c0.6-0.3,2.1-0.3,2.8,0.1
		c1.5,0.8,2,2.1,1.9,5.4c0,2.6-0.6,5.7-3.4,5.8C351.3-62.9,350-64.2,349.8-65.3L349.8-65.3L349.8-65.3z M354-68.2
		c0.5-0.3,0.8-0.6,1-1c0.2-0.4,0.2-0.5,0.2-1.3c-0.1-1.9-1.1-3-2.6-2.8c-0.8,0.1-1.3,0.6-1.5,1.4c-0.5,1.6,0.1,3.4,1.2,3.8
		C352.8-67.9,353.6-68,354-68.2L354-68.2z"/>
	<path id="path29-33-3-8-6" inkscape:connector-curvature="0" class="st1" d="M421.7,14.7l-1,0.3c-0.4-1.1-1.2-1.4-2-1.3
		c-1.5,0.1-2,1.8-2.1,3.3c0.6-0.6,1.5-0.9,2.2-0.9c2.4,0.1,3,2.1,3.1,4.1c0.1,1.7-0.6,2.9-1.8,3.5c-0.6,0.3-2.1,0.3-2.8-0.1
		c-1.5-0.8-2-2.1-1.9-5.4c0-2.6,0.6-5.7,3.4-5.8C420.3,12.3,421.5,13.6,421.7,14.7L421.7,14.7L421.7,14.7z M417.6,17.6
		c-0.5,0.3-0.8,0.6-1,1c-0.2,0.4-0.2,0.5-0.2,1.3c0.1,1.9,1.1,3,2.6,2.8c0.8-0.1,1.3-0.6,1.5-1.4c0.5-1.6-0.1-3.4-1.2-3.8
		C418.8,17.3,418,17.4,417.6,17.6L417.6,17.6z"/>
</g>
</svg>
