<!-- Generator: Adobe Illustrator 19.2.0, SVG Export Plug-In  -->
<svg version="1.1"
	 xmlns="http://www.w3.org/2000/svg" xmlns:xlink="http://www.w3.org/1999/xlink" xmlns:a="http://ns.adobe.com/AdobeSVGViewerExtensions/3.0/"
	 x="0px" y="0px" width="78.1px" height="108.8px" viewBox="0 0 78.1 108.8" style="enable-background:new 0 0 78.1 108.8;"
	 xml:space="preserve">
<style type="text/css">
	.st0{fill:#FFFFFF;stroke:#010101;stroke-width:1.0006;}
	.st1{fill:#D31F26;}
</style>
<defs>
</defs>
<g id="H1" transform="matrix(0.99553774,0,0,0.99680134,32.088628,318.48631)">
	<g id="g9664-0-2" transform="translate(178.95278,-1434.2756)" inkscape:label="5D">
		<path id="rect9666-2-2" class="st0" d="M-207,1115.3h70c2,0,3.7,1.7,3.7,3.7v100.7c0,2-1.7,3.7-3.7,3.7h-70
			c-2,0-3.7-1.7-3.7-3.7V1119C-210.7,1116.9-209,1115.3-207,1115.3z"/>
	</g>
	<g id="g9684-3-0" transform="translate(439.38585,-1064)">
	</g>
	<g id="g9690-5-6" transform="translate(465.9774,-1083.9055)">
	</g>
	<path id="path9698-0-0" inkscape:connector-curvature="0" sodipodi:nodetypes="cccscsccc" class="st1" d="M-25.8-294.7
		c0,0-0.8-1.1-1.8-2.4c-0.7-0.9-1.3-1.8-1.3-2.6c-0.1-0.9,0.5-1.9,1.5-1.9c1,0,1.4,0.7,1.6,1.3c0.2-0.6,0.6-1.4,1.6-1.3
		c1,0,1.6,1,1.5,1.9c-0.1,0.8-0.6,1.8-1.3,2.6C-25-295.8-25.8-294.7-25.8-294.7z"/>
	<path id="path9700-3-2" inkscape:connector-curvature="0" sodipodi:nodetypes="cccscsccc" class="st1" d="M39.7-235.1
		c0,0-0.8,1.1-1.8,2.4c-0.7,0.9-1.3,1.8-1.3,2.6c-0.1,0.9,0.5,1.9,1.5,1.9c1,0,1.4-0.7,1.6-1.3c0.2,0.6,0.6,1.4,1.6,1.3
		c1,0,1.6-1,1.5-1.9c-0.1-0.8-0.6-1.8-1.3-2.6C40.5-234,39.7-235.1,39.7-235.1z"/>
	<path id="path9714-6-6" inkscape:connector-curvature="0" sodipodi:nodetypes="cccscsccc" class="st1" d="M7-256.6
		c0,0-1.6-2.7-3.8-5.8c-1.5-2.1-2.6-4.4-2.7-6.3c-0.1-2.2,1.1-4.5,3.2-4.6c2.1-0.1,3,1.7,3.3,3.2c0.4-1.5,1.2-3.3,3.3-3.2
		c2.1,0.1,3.3,2.3,3.2,4.6c-0.1,1.9-1.3,4.2-2.7,6.3C8.6-259.3,7-256.6,7-256.6z"/>
	<path id="path41-87-8-3-9" inkscape:connector-curvature="0" class="st1" d="M-29.3-302.8v-1h0.9l2-10.5h1.1l2.2,10.5h0.8v1
		h-2.6v-1h0.7l-0.3-1.6H-27l-0.2,1.6h0.7v1L-29.3-302.8L-29.3-302.8z M-24.6-306.5l-1.1-5.6l-1.1,5.6H-24.6z"/>
	<path id="path41-8-5-1-8-7" inkscape:connector-curvature="0" class="st1" d="M36.2-227.1v1h0.9l2,10.5h1.1l2.2-10.5h0.8v-1
		h-2.6v1h0.7l-0.3,1.6h-2.6l-0.2-1.6H39v-1H36.2L36.2-227.1z M40.8-223.4l-1.1,5.6l-1.1-5.6H40.8L40.8-223.4z"/>
</g>
</svg>
