<!-- Generator: Adobe Illustrator 19.2.0, SVG Export Plug-In  -->
<svg version="1.1"
	 xmlns="http://www.w3.org/2000/svg" xmlns:xlink="http://www.w3.org/1999/xlink" xmlns:a="http://ns.adobe.com/AdobeSVGViewerExtensions/3.0/"
	 x="0px" y="0px" width="78.1px" height="108.8px" viewBox="0 0 78.1 108.8" style="enable-background:new 0 0 78.1 108.8;"
	 xml:space="preserve">
<style type="text/css">
	.st0{fill:#FFFFFF;stroke:#010101;stroke-width:1.0006;}
	.st1{fill:#D31F26;}
</style>
<defs>
</defs>
<g id="H10" transform="matrix(0.99553774,0,0,0.99680134,-159.99209,318.48631)">
	<g id="g10276-9-9" transform="translate(2751.5683,-1434.2756)" inkscape:label="5D">
		<path id="rect10278-0-6" class="st0" d="M-2586.7,1115.3h70c2,0,3.7,1.7,3.7,3.7v100.7c0,2-1.7,3.7-3.7,3.7h-70
			c-2,0-3.7-1.7-3.7-3.7V1119C-2590.4,1116.9-2588.7,1115.3-2586.7,1115.3z"/>
	</g>
	<g id="g10296-8-7" transform="translate(3012.0013,-1064)">
	</g>
	<g id="g10302-2-0" transform="translate(3038.5929,-1083.9055)">
	</g>
	<path id="path10308-5-1" inkscape:connector-curvature="0" sodipodi:nodetypes="cccscsccc" class="st1" d="M182-268.1
		c0,0-1.6-2.7-3.8-5.8c-1.5-2.1-2.6-4.4-2.7-6.3c-0.1-2.2,1.1-4.5,3.2-4.6c2.1-0.1,3,1.7,3.3,3.2c0.4-1.5,1.2-3.3,3.3-3.2
		c2.1,0.1,3.3,2.3,3.2,4.6c-0.1,1.9-1.3,4.2-2.7,6.3C183.6-270.7,182-268.1,182-268.1z"/>
	<path id="path10310-7-8" inkscape:connector-curvature="0" sodipodi:nodetypes="cccscsccc" class="st1" d="M167.2-294.7
		c0,0-0.8-1.1-1.8-2.4c-0.7-0.9-1.3-1.8-1.3-2.6c-0.1-0.9,0.5-1.9,1.5-1.9c1,0,1.4,0.7,1.6,1.3c0.2-0.6,0.6-1.4,1.6-1.3
		c1,0,1.6,1,1.5,1.9c-0.1,0.8-0.6,1.8-1.3,2.6C168-295.8,167.2-294.7,167.2-294.7z"/>
	<path id="path10312-3-5" inkscape:connector-curvature="0" sodipodi:nodetypes="cccscsccc" class="st1" d="M232.7-235.1
		c0,0-0.8,1.1-1.8,2.4c-0.7,0.9-1.3,1.8-1.3,2.6c-0.1,0.9,0.5,1.9,1.5,1.9c1,0,1.4-0.7,1.6-1.3c0.2,0.6,0.6,1.4,1.6,1.3
		c1,0,1.6-1,1.5-1.9c-0.1-0.8-0.6-1.8-1.3-2.6C233.4-234,232.7-235.1,232.7-235.1z"/>
	<path id="path10314-8-8" inkscape:connector-curvature="0" sodipodi:nodetypes="cccscsccc" class="st1" d="M199.9-276.2
		c0,0-1.6-2.7-3.8-5.8c-1.5-2.1-2.6-4.4-2.7-6.3c-0.1-2.2,1.1-4.5,3.2-4.6c2.1-0.1,3,1.7,3.3,3.2c0.4-1.5,1.2-3.3,3.3-3.2
		c2.1,0.1,3.3,2.3,3.2,4.6c-0.1,1.9-1.3,4.2-2.7,6.3C201.5-278.9,199.9-276.2,199.9-276.2z"/>
	<path id="path10318-3-7" inkscape:connector-curvature="0" sodipodi:nodetypes="cccscsccc" class="st1" d="M182-291
		c0,0-1.6-2.7-3.8-5.8c-1.5-2.1-2.6-4.4-2.7-6.3c-0.1-2.2,1.1-4.5,3.2-4.6c2.1-0.1,3,1.7,3.3,3.2c0.4-1.5,1.2-3.3,3.3-3.2
		c2.1,0.1,3.3,2.3,3.2,4.6c-0.1,1.9-1.3,4.2-2.7,6.3C183.6-293.7,182-291,182-291z"/>
	<path id="path10322-4-6" inkscape:connector-curvature="0" sodipodi:nodetypes="cccscsccc" class="st1" d="M217.9-268.1
		c0,0-1.6-2.7-3.8-5.8c-1.5-2.1-2.6-4.4-2.7-6.3c-0.1-2.2,1.1-4.5,3.2-4.6c2.1-0.1,3,1.7,3.3,3.2c0.4-1.5,1.2-3.3,3.3-3.2
		c2.1,0.1,3.3,2.3,3.2,4.6c-0.1,1.9-1.3,4.2-2.7,6.3C219.5-270.7,217.9-268.1,217.9-268.1z"/>
	<path id="path10324-9-8" inkscape:connector-curvature="0" sodipodi:nodetypes="cccscsccc" class="st1" d="M217.9-291
		c0,0-1.6-2.7-3.8-5.8c-1.5-2.1-2.6-4.4-2.7-6.3c-0.1-2.2,1.1-4.5,3.2-4.6c2.1-0.1,3,1.7,3.3,3.2c0.4-1.5,1.2-3.3,3.3-3.2
		c2.1,0.1,3.3,2.3,3.2,4.6c-0.1,1.9-1.3,4.2-2.7,6.3C219.5-293.7,217.9-291,217.9-291z"/>
	<path id="path10332-8-6" inkscape:connector-curvature="0" sodipodi:nodetypes="cccscsccc" class="st1" d="M199.9-253.6
		c0,0-1.6,2.7-3.8,5.8c-1.5,2.1-2.6,4.4-2.7,6.3c-0.1,2.2,1.1,4.5,3.2,4.6c2.1,0.1,3-1.7,3.3-3.2c0.4,1.5,1.2,3.3,3.3,3.2
		c2.1-0.1,3.3-2.3,3.2-4.6c-0.1-1.9-1.3-4.2-2.7-6.3C201.5-251,199.9-253.6,199.9-253.6z"/>
	<path id="path10334-5-0" inkscape:connector-curvature="0" sodipodi:nodetypes="cccscsccc" class="st1" d="M217.9-261.8
		c0,0-1.6,2.7-3.8,5.8c-1.5,2.1-2.6,4.4-2.7,6.3c-0.1,2.2,1.1,4.5,3.2,4.6c2.1,0.1,3-1.7,3.3-3.2c0.4,1.5,1.2,3.3,3.3,3.2
		c2.1-0.1,3.3-2.3,3.2-4.6c-0.1-1.9-1.3-4.2-2.7-6.3C219.5-259.1,217.9-261.8,217.9-261.8z"/>
	<path id="path10336-3-5" inkscape:connector-curvature="0" sodipodi:nodetypes="cccscsccc" class="st1" d="M182-261.8
		c0,0-1.6,2.7-3.8,5.8c-1.5,2.1-2.6,4.4-2.7,6.3c-0.1,2.2,1.1,4.5,3.2,4.6c2.1,0.1,3-1.7,3.3-3.2c0.4,1.5,1.2,3.3,3.3,3.2
		c2.1-0.1,3.3-2.3,3.2-4.6c-0.1-1.9-1.3-4.2-2.7-6.3C183.6-259.1,182-261.8,182-261.8z"/>
	<path id="path10338-2-9" inkscape:connector-curvature="0" sodipodi:nodetypes="cccscsccc" class="st1" d="M217.9-238.9
		c0,0-1.6,2.7-3.8,5.8c-1.5,2.1-2.6,4.4-2.7,6.3c-0.1,2.2,1.1,4.5,3.2,4.6c2.1,0.1,3-1.7,3.3-3.2c0.4,1.5,1.2,3.3,3.3,3.2
		c2.1-0.1,3.3-2.3,3.2-4.6c-0.1-1.9-1.3-4.2-2.7-6.3C219.5-236.2,217.9-238.9,217.9-238.9z"/>
	<path id="path10340-9-7" inkscape:connector-curvature="0" sodipodi:nodetypes="cccscsccc" class="st1" d="M182-238.9
		c0,0-1.6,2.7-3.8,5.8c-1.5,2.1-2.6,4.4-2.7,6.3c-0.1,2.2,1.1,4.5,3.2,4.6c2.1,0.1,3-1.7,3.3-3.2c0.4,1.5,1.2,3.3,3.3,3.2
		c2.1-0.1,3.3-2.3,3.2-4.6c-0.1-1.9-1.3-4.2-2.7-6.3C183.6-236.2,182-238.9,182-238.9z"/>
	<g id="g7724-24-8-9-7" transform="matrix(1,0,0,0.9999803,1980.6157,-1572.2811)">
		<g id="g8345-9-7-5-1">
			<path id="path31-8-2-9-8" inkscape:connector-curvature="0" class="st1" d="M-1816.9,1269.5v-11.4h1.1v11.4H-1816.9z"/>
			<path id="path33-2-3-1-6" inkscape:connector-curvature="0" class="st1" d="M-1812.5,1258.1c-1.1,0-1.9,1-1.9,2.2v7.1
				c0,1.2,0.9,2.2,1.9,2.2h0.6c1.1,0,1.9-1,1.9-2.2v-7.1c0-1.2-0.9-2.2-1.9-2.2H-1812.5z M-1812.2,1259.2c0.6,0,1.1,0.5,1.1,1.1v7.2
				c0,0.6-0.5,1.1-1.1,1.1c-0.6,0-1.1-0.5-1.1-1.1v-7.2C-1813.3,1259.7-1812.8,1259.2-1812.2,1259.2L-1812.2,1259.2z"/>
		</g>
	</g>
	<g id="g7724-2-5-0-2-7" transform="matrix(-1,0,0,-0.9999803,4261.3055,-244.23701)">
		<g id="g8345-5-0-9-6-9">
			<g id="g10963-5-1" transform="translate(-5.30767,-0.32920043)">
				<path id="path31-1-3-2-1-5" inkscape:connector-curvature="0" class="st1" d="M4030.5-16.8v-11.4h1.1v11.4H4030.5z"/>
				<path id="path33-5-5-3-3-1" inkscape:connector-curvature="0" class="st1" d="M4034.9-28.2c-1.1,0-1.9,1-1.9,2.2v7.1
					c0,1.2,0.9,2.2,1.9,2.2h0.6c1.1,0,1.9-1,1.9-2.2V-26c0-1.2-0.9-2.2-1.9-2.2H4034.9z M4035.2-27.2c0.6,0,1.1,0.5,1.1,1.1v7.2
					c0,0.6-0.5,1.1-1.1,1.1c-0.6,0-1.1-0.5-1.1-1.1v-7.2C4034.1-26.7,4034.6-27.2,4035.2-27.2L4035.2-27.2z"/>
			</g>
		</g>
	</g>
</g>
</svg>
