<!-- Generator: Adobe Illustrator 19.2.0, SVG Export Plug-In  -->
<svg version="1.1"
	 xmlns="http://www.w3.org/2000/svg" xmlns:xlink="http://www.w3.org/1999/xlink" xmlns:a="http://ns.adobe.com/AdobeSVGViewerExtensions/3.0/"
	 x="0px" y="0px" width="78.1px" height="108.8px" viewBox="0 0 78.1 108.8" style="enable-background:new 0 0 78.1 108.8;"
	 xml:space="preserve">
<style type="text/css">
	.st0{fill:#FFFFFF;stroke:#010101;stroke-width:1.0006;}
	.st1{fill:#D31F26;}
</style>
<defs>
</defs>
<g id="H2" transform="matrix(0.99553774,0,0,0.99680134,10.746305,318.48631)">
	<g id="g9732-9-3" transform="translate(464.79897,-1434.2756)" inkscape:label="5D">
		<path id="rect9734-4-5" class="st0" d="M-471.4,1115.3h70c2,0,3.7,1.7,3.7,3.7v100.7c0,2-1.7,3.7-3.7,3.7h-70
			c-2,0-3.7-1.7-3.7-3.7V1119C-475.1,1116.9-473.4,1115.3-471.4,1115.3z"/>
	</g>
	<g id="g9752-8-0" transform="translate(725.23204,-1064)">
	</g>
	<g id="g9758-0-6" transform="translate(751.82359,-1083.9055)">
	</g>
	<path id="path9766-0-8" inkscape:connector-curvature="0" sodipodi:nodetypes="cccscsccc" class="st1" d="M-4.3-294.7
		c0,0-0.8-1.1-1.8-2.4c-0.7-0.9-1.3-1.8-1.3-2.6c-0.1-0.9,0.5-1.9,1.5-1.9c1,0,1.4,0.7,1.6,1.3c0.2-0.6,0.6-1.4,1.6-1.3
		c1,0,1.6,1,1.5,1.9c-0.1,0.8-0.6,1.8-1.3,2.6C-3.5-295.8-4.3-294.7-4.3-294.7z"/>
	<path id="path9768-3-3" inkscape:connector-curvature="0" sodipodi:nodetypes="cccscsccc" class="st1" d="M61.1-235.1
		c0,0-0.8,1.1-1.8,2.4c-0.7,0.9-1.3,1.8-1.3,2.6c-0.1,0.9,0.5,1.9,1.5,1.9c1,0,1.4-0.7,1.6-1.3c0.2,0.6,0.6,1.4,1.6,1.3
		c1,0,1.6-1,1.5-1.9c-0.1-0.8-0.6-1.8-1.3-2.6C61.9-234,61.1-235.1,61.1-235.1z"/>
	<path id="path9772-1-7" inkscape:connector-curvature="0" sodipodi:nodetypes="cccscsccc" class="st1" d="M28.4-291
		c0,0-1.6-2.7-3.8-5.8c-1.5-2.1-2.6-4.4-2.7-6.3c-0.1-2.2,1.1-4.5,3.2-4.6c2.1-0.1,3,1.7,3.3,3.2c0.4-1.5,1.2-3.3,3.3-3.2
		c2.1,0.1,3.3,2.3,3.2,4.6c-0.1,1.9-1.3,4.2-2.7,6.3C30-293.7,28.4-291,28.4-291z"/>
	<path id="path9786-2-1" inkscape:connector-curvature="0" sodipodi:nodetypes="cccscsccc" class="st1" d="M28.4-238.9
		c0,0-1.6,2.7-3.8,5.8c-1.5,2.1-2.6,4.4-2.7,6.3c-0.1,2.2,1.1,4.5,3.2,4.6c2.1,0.1,3-1.7,3.3-3.2c0.4,1.5,1.2,3.3,3.3,3.2
		c2.1-0.1,3.3-2.3,3.2-4.6c-0.1-1.9-1.3-4.2-2.7-6.3C30-236.2,28.4-238.9,28.4-238.9z"/>
	<path id="path15-34-0-0-4" inkscape:connector-curvature="0" class="st1" d="M-7.6-302.8l0.1-0.7c0.2-2.2,0.6-2.9,3.3-5.2
		c1.3-1.1,1.7-1.6,1.8-2.3c0.2-1.5-1.1-2-2-2c-1.1,0-2.4,0.7-1.8,2.2l-1.2,0.4c-0.3-1.5,0-2.8,1.2-3.5c1.6-0.8,3.6-0.5,4.6,0.8
		c0.7,0.8,0.8,2,0.5,2.9c-1.1,2.3-4.7,3.4-5,6.1h4v-1.5h1.2v2.8L-7.6-302.8L-7.6-302.8z"/>
	<path id="path15-5-4-5-2-7" inkscape:connector-curvature="0" class="st1" d="M64.4-227.1l-0.1,0.7c-0.2,2.2-0.6,2.9-3.3,5.2
		c-1.3,1.1-1.7,1.6-1.8,2.3c-0.2,1.5,1.1,2,2,2c1.1,0,2.4-0.7,1.8-2.2l1.2-0.4c0.3,1.5,0,2.8-1.2,3.5c-1.6,0.8-3.6,0.5-4.6-0.8
		c-0.7-0.8-0.8-2-0.5-2.9c1.1-2.3,4.7-3.4,5-6.1h-4v1.5h-1.2v-2.8L64.4-227.1L64.4-227.1z"/>
</g>
</svg>
