<!-- Generator: Adobe Illustrator 19.2.0, SVG Export Plug-In  -->
<svg version="1.1"
	 xmlns="http://www.w3.org/2000/svg" xmlns:xlink="http://www.w3.org/1999/xlink" xmlns:a="http://ns.adobe.com/AdobeSVGViewerExtensions/3.0/"
	 x="0px" y="0px" width="78.1px" height="108.8px" viewBox="0 0 78.1 108.8" style="enable-background:new 0 0 78.1 108.8;"
	 xml:space="preserve">
<style type="text/css">
	.st0{fill:#FFFFFF;stroke:#010101;stroke-width:1.0006;}
	.st1{fill:#D31F26;}
</style>
<defs>
</defs>
<g id="H4" transform="matrix(0.99553774,0,0,0.99680134,-31.938292,318.48631)">
	<g id="g9868-8-1" transform="translate(1036.4913,-1434.2756)" inkscape:label="5D">
		<path id="rect9870-7-0" class="st0" d="M-1000.2,1115.3h70c2,0,3.7,1.7,3.7,3.7v100.7c0,2-1.7,3.7-3.7,3.7h-70
			c-2,0-3.7-1.7-3.7-3.7V1119C-1003.9,1116.9-1002.2,1115.3-1000.2,1115.3z"/>
	</g>
	<g id="g9888-2-1" transform="translate(1296.9243,-1064)">
	</g>
	<g id="g9894-0-0" transform="translate(1323.5159,-1083.9055)">
	</g>
	<path id="path9902-6-7" inkscape:connector-curvature="0" class="st1" d="M38.6-294.7c0,0-0.8-1.1-1.8-2.4
		c-0.7-0.9-1.3-1.8-1.3-2.6c-0.1-0.9,0.5-1.9,1.5-1.9c1,0,1.4,0.7,1.6,1.3c0.2-0.6,0.6-1.4,1.6-1.3c1,0,1.6,1,1.5,1.9
		c-0.1,0.8-0.6,1.8-1.3,2.6C39.3-295.8,38.6-294.7,38.6-294.7z"/>
	<path id="path9904-6-0" inkscape:connector-curvature="0" class="st1" d="M104-235.1c0,0-0.8,1.1-1.8,2.4
		c-0.7,0.9-1.3,1.8-1.3,2.6c-0.1,0.9,0.5,1.9,1.5,1.9c1,0,1.4-0.7,1.6-1.3c0.2,0.6,0.6,1.4,1.6,1.3c1,0,1.6-1,1.5-1.9
		c-0.1-0.8-0.6-1.8-1.3-2.6C104.8-234,104-235.1,104-235.1z"/>
	<path id="path9910-2-6" inkscape:connector-curvature="0" class="st1" d="M53.3-291c0,0-1.6-2.7-3.8-5.8
		c-1.5-2.1-2.6-4.4-2.7-6.3c-0.1-2.2,1.1-4.5,3.2-4.6c2.1-0.1,3,1.7,3.3,3.2c0.4-1.5,1.2-3.3,3.3-3.2c2.1,0.1,3.3,2.3,3.2,4.6
		c-0.1,1.9-1.3,4.2-2.7,6.3C55-293.7,53.3-291,53.3-291z"/>
	<path id="path9916-8-0" inkscape:connector-curvature="0" class="st1" d="M89.2-291c0,0-1.6-2.7-3.8-5.8
		c-1.5-2.1-2.6-4.4-2.7-6.3c-0.1-2.2,1.1-4.5,3.2-4.6c2.1-0.1,3,1.7,3.3,3.2c0.4-1.5,1.2-3.3,3.3-3.2c2.1,0.1,3.3,2.3,3.2,4.6
		c-0.1,1.9-1.3,4.2-2.7,6.3C90.9-293.7,89.2-291,89.2-291z"/>
	<path id="path9930-7-9" inkscape:connector-curvature="0" class="st1" d="M89.2-238.9c0,0-1.6,2.7-3.8,5.8
		c-1.5,2.1-2.6,4.4-2.7,6.3c-0.1,2.2,1.1,4.5,3.2,4.6c2.1,0.1,3-1.7,3.3-3.2c0.4,1.5,1.2,3.3,3.3,3.2c2.1-0.1,3.3-2.3,3.2-4.6
		c-0.1-1.9-1.3-4.2-2.7-6.3C90.9-236.2,89.2-238.9,89.2-238.9z"/>
	<path id="path9932-9-8" inkscape:connector-curvature="0" class="st1" d="M53.3-238.9c0,0-1.6,2.7-3.8,5.8
		c-1.5,2.1-2.6,4.4-2.7,6.3c-0.1,2.2,1.1,4.5,3.2,4.6c2.1,0.1,3-1.7,3.3-3.2c0.4,1.5,1.2,3.3,3.3,3.2c2.1-0.1,3.3-2.3,3.2-4.6
		c-0.1-1.9-1.3-4.2-2.7-6.3C55-236.2,53.3-238.9,53.3-238.9z"/>
	<path id="path19-3-8-2-9" inkscape:connector-curvature="0" class="st1" d="M38.6-302.8v-1h0.9v-1.7H35v-1.2l4.9-7.6l0.8,0v7.6
		h1.4v1.2h-1.4l0,1.7h0.8v1L38.6-302.8L38.6-302.8z M39.5-311.4l-3.1,4.8h3.1V-311.4z"/>
	<path id="path19-4-46-0-1-9" inkscape:connector-curvature="0" class="st1" d="M103.9-227.1v1H103v1.7h4.6v1.2l-4.9,7.6l-0.8,0
		v-7.6h-1.4v-1.2h1.4l0-1.7h-0.8v-1L103.9-227.1L103.9-227.1z M103-218.5l3.1-4.8H103V-218.5z"/>
</g>
</svg>
