<!-- Generator: Adobe Illustrator 19.2.0, SVG Export Plug-In  -->
<svg version="1.1"
	 xmlns="http://www.w3.org/2000/svg" xmlns:xlink="http://www.w3.org/1999/xlink" xmlns:a="http://ns.adobe.com/AdobeSVGViewerExtensions/3.0/"
	 x="0px" y="0px" width="78.1px" height="126.2px" viewBox="0 0 78.1 126.2" style="enable-background:new 0 0 78.1 126.2;"
	 xml:space="preserve">
<style type="text/css">
	.st0{fill:#FFFFFF;stroke:#010101;stroke-width:1.0006;}
	.st1{fill:#D31F26;}
</style>
<defs>
</defs>
<path id="rect6355-6-85-3-7-9-4" class="st0" d="M77.6,0c0,2-1.7,3.7-3.7,3.7H4.2C2.2,3.7,0.5,2,0.5,0"/>
<g id="H5" transform="matrix(0.99553774,0,0,0.99680134,-53.280526,318.48631)">
	<g id="g9936-1-0" transform="translate(1322.3374,-1434.2756)" inkscape:label="5D">
		<path id="rect9938-9-5" class="st0" d="M-1264.6,1132.7h70c2,0,3.7,1.7,3.7,3.7v100.7c0,2-1.7,3.7-3.7,3.7h-70
			c-2,0-3.7-1.7-3.7-3.7v-100.7C-1268.3,1134.4-1266.7,1132.7-1264.6,1132.7z"/>
	</g>
	<g id="g9956-4-1" transform="translate(1582.7704,-1064)">
	</g>
	<g id="g9962-7-4" transform="translate(1609.362,-1083.9055)">
	</g>
	<path id="path9970-5-6" inkscape:connector-curvature="0" sodipodi:nodetypes="cccscsccc" class="st1" d="M60-277.3
		c0,0-0.8-1.1-1.8-2.4c-0.7-0.9-1.3-1.8-1.3-2.6c-0.1-0.9,0.5-1.9,1.5-1.9c1,0,1.4,0.7,1.6,1.3c0.2-0.6,0.6-1.4,1.6-1.3
		c1,0,1.6,1,1.5,1.9c-0.1,0.8-0.6,1.8-1.3,2.6C60.8-278.4,60-277.3,60-277.3z"/>
	<path id="path9972-9-9" inkscape:connector-curvature="0" sodipodi:nodetypes="cccscsccc" class="st1" d="M125.5-217.7
		c0,0-0.8,1.1-1.8,2.4c-0.7,0.9-1.3,1.8-1.3,2.6c-0.1,0.9,0.5,1.9,1.5,1.9c1,0,1.4-0.7,1.6-1.3c0.2,0.6,0.6,1.4,1.6,1.3
		c1,0,1.6-1,1.5-1.9c-0.1-0.8-0.6-1.8-1.3-2.6C126.2-216.6,125.5-217.7,125.5-217.7z"/>
	<path id="path9978-0-4" inkscape:connector-curvature="0" sodipodi:nodetypes="cccscsccc" class="st1" d="M74.8-273.6
		c0,0-1.6-2.7-3.8-5.8c-1.5-2.1-2.6-4.4-2.7-6.3c-0.1-2.2,1.1-4.5,3.2-4.6c2.1-0.1,3,1.7,3.3,3.2c0.4-1.5,1.2-3.3,3.3-3.2
		c2.1,0.1,3.3,2.3,3.2,4.6c-0.1,1.9-1.3,4.2-2.7,6.3C76.4-276.2,74.8-273.6,74.8-273.6z"/>
	<path id="path9984-9-5" inkscape:connector-curvature="0" sodipodi:nodetypes="cccscsccc" class="st1" d="M110.7-273.6
		c0,0-1.6-2.7-3.8-5.8c-1.5-2.1-2.6-4.4-2.7-6.3c-0.1-2.2,1.1-4.5,3.2-4.6c2.1-0.1,3,1.7,3.3,3.2c0.4-1.5,1.2-3.3,3.3-3.2
		c2.1,0.1,3.3,2.3,3.2,4.6c-0.1,1.9-1.3,4.2-2.7,6.3C112.3-276.2,110.7-273.6,110.7-273.6z"/>
	<path id="path9986-7-3" inkscape:connector-curvature="0" sodipodi:nodetypes="cccscsccc" class="st1" d="M92.7-239.2
		c0,0-1.6-2.7-3.8-5.8c-1.5-2.1-2.6-4.4-2.7-6.3c-0.1-2.2,1.1-4.5,3.2-4.6c2.1-0.1,3,1.7,3.3,3.2c0.4-1.5,1.2-3.3,3.3-3.2
		c2.1,0.1,3.3,2.3,3.2,4.6c-0.1,1.9-1.3,4.2-2.7,6.3C94.3-241.8,92.7-239.2,92.7-239.2z"/>
	<path id="path9998-0-9" inkscape:connector-curvature="0" sodipodi:nodetypes="cccscsccc" class="st1" d="M110.7-221.4
		c0,0-1.6,2.7-3.8,5.8c-1.5,2.1-2.6,4.4-2.7,6.3c-0.1,2.2,1.1,4.5,3.2,4.6c2.1,0.1,3-1.7,3.3-3.2c0.4,1.5,1.2,3.3,3.3,3.2
		c2.1-0.1,3.3-2.3,3.2-4.6c-0.1-1.9-1.3-4.2-2.7-6.3C112.3-218.7,110.7-221.4,110.7-221.4z"/>
	<path id="path10000-8-2" inkscape:connector-curvature="0" sodipodi:nodetypes="cccscsccc" class="st1" d="M74.8-221.4
		c0,0-1.6,2.7-3.8,5.8c-1.5,2.1-2.6,4.4-2.7,6.3c-0.1,2.2,1.1,4.5,3.2,4.6c2.1,0.1,3-1.7,3.3-3.2c0.4,1.5,1.2,3.3,3.3,3.2
		c2.1-0.1,3.3-2.3,3.2-4.6c-0.1-1.9-1.3-4.2-2.7-6.3C76.4-218.7,74.8-221.4,74.8-221.4z"/>
	<path id="path21-9-5-1-8" inkscape:connector-curvature="0" class="st1" d="M56.4-288.3l1.1,0c0.2,0.7,0.7,1.4,1.3,1.6
		c1.8,0.4,3-0.6,3.4-1.8c0.5-1.4,0-3.5-1.3-4.2c-1-0.6-2.6-0.1-3.3,1.2l-0.8-0.5l0.4-4.8h5.1v1.1h-4.2l-0.1,2
		c0.9-0.6,2.3-0.6,3.2-0.2c1.7,0.8,2.5,2.7,2.2,4.9c-0.5,2.2-1.5,3.4-3.7,3.6C57.3-285.3,56.4-287.1,56.4-288.3L56.4-288.3
		L56.4-288.3z"/>
	<path id="path21-3-0-6-3-8" inkscape:connector-curvature="0" class="st1" d="M129.1-206.7l-1.1,0c-0.2-0.7-0.7-1.4-1.3-1.6
		c-1.8-0.4-3,0.6-3.4,1.8c-0.5,1.4,0,3.5,1.3,4.2c1,0.6,2.6,0.1,3.3-1.2l0.8,0.5l-0.4,4.8H123v-1.1h4.2l0.1-2
		c-0.9,0.6-2.3,0.6-3.2,0.2c-1.7-0.8-2.5-2.7-2.2-4.9c0.5-2.2,1.5-3.4,3.7-3.6C128.2-209.7,129.1-207.9,129.1-206.7L129.1-206.7
		L129.1-206.7z"/>
</g>
</svg>
