<!-- Generator: Adobe Illustrator 19.2.0, SVG Export Plug-In  -->
<svg version="1.1"
	 xmlns="http://www.w3.org/2000/svg" xmlns:xlink="http://www.w3.org/1999/xlink" xmlns:a="http://ns.adobe.com/AdobeSVGViewerExtensions/3.0/"
	 x="0px" y="0px" width="78.1px" height="108.8px" viewBox="0 0 78.1 108.8" style="enable-background:new 0 0 78.1 108.8;"
	 xml:space="preserve">
<style type="text/css">
	.st0{fill:#FFFFFF;stroke:#010101;stroke-width:1.0006;}
	.st1{fill:#D31F26;}
</style>
<defs>
</defs>
<g id="H6" transform="matrix(0.99553774,0,0,0.99680134,-74.622859,318.48631)">
	<g id="g10004-9-9" transform="translate(1608.1836,-1434.2756)" inkscape:label="5D">
		<path id="rect10006-6-1" class="st0" d="M-1529,1115.3h70c2,0,3.7,1.7,3.7,3.7v100.7c0,2-1.7,3.7-3.7,3.7h-70
			c-2,0-3.7-1.7-3.7-3.7V1119C-1532.7,1116.9-1531.1,1115.3-1529,1115.3z"/>
	</g>
	<g id="g10024-8-8" transform="translate(1868.6166,-1064)">
	</g>
	<g id="g10030-0-6" transform="translate(1895.2082,-1083.9055)">
	</g>
	<path id="path10038-5-0" inkscape:connector-curvature="0" sodipodi:nodetypes="cccscsccc" class="st1" d="M81.4-294.7
		c0,0-0.8-1.1-1.8-2.4c-0.7-0.9-1.3-1.8-1.3-2.6c-0.1-0.9,0.5-1.9,1.5-1.9c1,0,1.4,0.7,1.6,1.3c0.2-0.6,0.6-1.4,1.6-1.3
		c1,0,1.6,1,1.5,1.9c-0.1,0.8-0.6,1.8-1.3,2.6C82.2-295.8,81.4-294.7,81.4-294.7z"/>
	<path id="path10040-7-6" inkscape:connector-curvature="0" sodipodi:nodetypes="cccscsccc" class="st1" d="M146.9-235.1
		c0,0-0.8,1.1-1.8,2.4c-0.7,0.9-1.3,1.8-1.3,2.6c-0.1,0.9,0.5,1.9,1.5,1.9c1,0,1.4-0.7,1.6-1.3c0.2,0.6,0.6,1.4,1.6,1.3
		c1,0,1.6-1,1.5-1.9c-0.1-0.8-0.6-1.8-1.3-2.6C147.7-234,146.9-235.1,146.9-235.1z"/>
	<path id="path10046-1-1" inkscape:connector-curvature="0" sodipodi:nodetypes="cccscsccc" class="st1" d="M96.2-291
		c0,0-1.6-2.7-3.8-5.8c-1.5-2.1-2.6-4.4-2.7-6.3c-0.1-2.2,1.1-4.5,3.2-4.6c2.1-0.1,3,1.7,3.3,3.2c0.4-1.5,1.2-3.3,3.3-3.2
		c2.1,0.1,3.3,2.3,3.2,4.6c-0.1,1.9-1.3,4.2-2.7,6.3C97.8-293.7,96.2-291,96.2-291z"/>
	<path id="path10048-2-0" inkscape:connector-curvature="0" sodipodi:nodetypes="cccscsccc" class="st1" d="M132.1-256.6
		c0,0-1.6-2.7-3.8-5.8c-1.5-2.1-2.6-4.4-2.7-6.3c-0.1-2.2,1.1-4.5,3.2-4.6c2.1-0.1,3,1.7,3.3,3.2c0.4-1.5,1.2-3.3,3.3-3.2
		c2.1,0.1,3.3,2.3,3.2,4.6c-0.1,1.9-1.3,4.2-2.7,6.3C133.7-259.3,132.1-256.6,132.1-256.6z"/>
	<path id="path10052-3-1" inkscape:connector-curvature="0" sodipodi:nodetypes="cccscsccc" class="st1" d="M132.1-291
		c0,0-1.6-2.7-3.8-5.8c-1.5-2.1-2.6-4.4-2.7-6.3c-0.1-2.2,1.1-4.5,3.2-4.6c2.1-0.1,3,1.7,3.3,3.2c0.4-1.5,1.2-3.3,3.3-3.2
		c2.1,0.1,3.3,2.3,3.2,4.6c-0.1,1.9-1.3,4.2-2.7,6.3C133.7-293.7,132.1-291,132.1-291z"/>
	<path id="path10056-4-2" inkscape:connector-curvature="0" sodipodi:nodetypes="cccscsccc" class="st1" d="M96.2-256.6
		c0,0-1.6-2.7-3.8-5.8c-1.5-2.1-2.6-4.4-2.7-6.3c-0.1-2.2,1.1-4.5,3.2-4.6c2.1-0.1,3,1.7,3.3,3.2c0.4-1.5,1.2-3.3,3.3-3.2
		c2.1,0.1,3.3,2.3,3.2,4.6c-0.1,1.9-1.3,4.2-2.7,6.3C97.8-259.3,96.2-256.6,96.2-256.6z"/>
	<path id="path10066-9-2" inkscape:connector-curvature="0" sodipodi:nodetypes="cccscsccc" class="st1" d="M132.1-238.9
		c0,0-1.6,2.7-3.8,5.8c-1.5,2.1-2.6,4.4-2.7,6.3c-0.1,2.2,1.1,4.5,3.2,4.6c2.1,0.1,3-1.7,3.3-3.2c0.4,1.5,1.2,3.3,3.3,3.2
		c2.1-0.1,3.3-2.3,3.2-4.6c-0.1-1.9-1.3-4.2-2.7-6.3C133.7-236.2,132.1-238.9,132.1-238.9z"/>
	<path id="path10068-1-2" inkscape:connector-curvature="0" sodipodi:nodetypes="cccscsccc" class="st1" d="M96.2-238.9
		c0,0-1.6,2.7-3.8,5.8c-1.5,2.1-2.6,4.4-2.7,6.3c-0.1,2.2,1.1,4.5,3.2,4.6c2.1,0.1,3-1.7,3.3-3.2c0.4,1.5,1.2,3.3,3.3,3.2
		c2.1-0.1,3.3-2.3,3.2-4.6c-0.1-1.9-1.3-4.2-2.7-6.3C97.8-236.2,96.2-238.9,96.2-238.9z"/>
	<path id="path23-5-2-7-3" inkscape:connector-curvature="0" class="st1" d="M78.1-306.3c-0.1-1-0.1-3.5,0-4.2
		c0.4-2.3,1.2-3.3,2.7-3.6c1.4-0.3,3.4,0,3.8,1.9l-1.2,0c-0.6-1.3-2.2-0.9-3.1-0.4c-0.7,0.4-1,2.3-0.9,2.4c0,0,1.4-1,2.4-0.9
		c2.3,0.2,3.2,2.2,3.2,4.1c-0.1,2.3-0.8,4.1-3.2,4.2C79.4-302.9,78.3-304.1,78.1-306.3L78.1-306.3L78.1-306.3z M83.8-306.9
		c0-1.6-0.7-2.7-2-2.9c-1.3-0.1-2.7,1.2-2.6,2.8c0.1,1.6,0.7,3,2.4,3C83.2-304,83.8-305.8,83.8-306.9L83.8-306.9L83.8-306.9z"/>
	<path id="path23-6-5-1-7-1" inkscape:connector-curvature="0" class="st1" d="M150.3-223.6c0.1,1,0.1,3.5,0,4.2
		c-0.4,2.3-1.2,3.3-2.7,3.6c-1.4,0.3-3.4,0-3.8-1.9l1.2,0c0.6,1.3,2.2,0.9,3.1,0.4c0.7-0.4,1-2.3,0.9-2.4c0,0-1.4,1-2.4,0.9
		c-2.3-0.2-3.2-2.2-3.2-4.1c0.1-2.3,0.8-4.1,3.2-4.2C149-227,150-225.8,150.3-223.6L150.3-223.6L150.3-223.6z M144.6-223
		c0,1.6,0.7,2.7,2,2.9c1.3,0.1,2.7-1.2,2.6-2.8c-0.1-1.6-0.7-3-2.4-3C145.1-225.9,144.6-224.1,144.6-223L144.6-223L144.6-223z"/>
</g>
</svg>
