<!-- Generator: Adobe Illustrator 19.2.0, SVG Export Plug-In  -->
<svg version="1.1"
	 xmlns="http://www.w3.org/2000/svg" xmlns:xlink="http://www.w3.org/1999/xlink" xmlns:a="http://ns.adobe.com/AdobeSVGViewerExtensions/3.0/"
	 x="0px" y="0px" width="78.1px" height="108.8px" viewBox="0 0 78.1 108.8" style="enable-background:new 0 0 78.1 108.8;"
	 xml:space="preserve">
<style type="text/css">
	.st0{fill:#FFFFFF;stroke:#010101;stroke-width:1.0006;}
	.st1{fill:#D31F26;}
</style>
<defs>
</defs>
<g id="H7" transform="matrix(0.99553774,0,0,0.99680134,-95.965064,318.48629)">
	<path id="rect10074-2-8" class="st0" d="M100.6-319h70c2,0,3.7,1.7,3.7,3.7v100.7c0,2-1.7,3.7-3.7,3.7h-70c-2,0-3.7-1.7-3.7-3.7
		v-100.7C96.9-317.4,98.6-319,100.6-319z"/>
	<g id="g10092-4-5" transform="translate(2154.4627,-1064)">
	</g>
	<g id="g10098-2-4" transform="translate(2181.0543,-1083.9055)">
	</g>
	<path id="path10106-2-3" inkscape:connector-curvature="0" sodipodi:nodetypes="cccscsccc" class="st1" d="M102.9-294.7
		c0,0-0.8-1.1-1.8-2.4c-0.7-0.9-1.3-1.8-1.3-2.6c-0.1-0.9,0.5-1.9,1.5-1.9c1,0,1.4,0.7,1.6,1.3c0.2-0.6,0.6-1.4,1.6-1.3
		c1,0,1.6,1,1.5,1.9c-0.1,0.8-0.6,1.8-1.3,2.6C103.6-295.8,102.9-294.7,102.9-294.7z"/>
	<path id="path10108-3-1" inkscape:connector-curvature="0" sodipodi:nodetypes="cccscsccc" class="st1" d="M168.3-235.1
		c0,0-0.8,1.1-1.8,2.4c-0.7,0.9-1.3,1.8-1.3,2.6c-0.1,0.9,0.5,1.9,1.5,1.9c1,0,1.4-0.7,1.6-1.3c0.2,0.6,0.6,1.4,1.6,1.3
		c1,0,1.6-1,1.5-1.9c-0.1-0.8-0.6-1.8-1.3-2.6C169.1-234,168.3-235.1,168.3-235.1z"/>
	<path id="path10110-3-5" inkscape:connector-curvature="0" sodipodi:nodetypes="cccscsccc" class="st1" d="M135.6-273.8
		c0,0-1.6-2.7-3.8-5.8c-1.5-2.1-2.6-4.4-2.7-6.3c-0.1-2.2,1.1-4.5,3.2-4.6c2.1-0.1,3,1.7,3.3,3.2c0.4-1.5,1.2-3.3,3.3-3.2
		c2.1,0.1,3.3,2.3,3.2,4.6c-0.1,1.9-1.3,4.2-2.7,6.3C137.2-276.5,135.6-273.8,135.6-273.8z"/>
	<path id="path10114-8-3" inkscape:connector-curvature="0" sodipodi:nodetypes="cccscsccc" class="st1" d="M117.7-291
		c0,0-1.6-2.7-3.8-5.8c-1.5-2.1-2.6-4.4-2.7-6.3c-0.1-2.2,1.1-4.5,3.2-4.6c2.1-0.1,3,1.7,3.3,3.2c0.4-1.5,1.2-3.3,3.3-3.2
		c2.1,0.1,3.3,2.3,3.2,4.6c-0.1,1.9-1.3,4.2-2.7,6.3C119.3-293.7,117.7-291,117.7-291z"/>
	<path id="path10116-2-5" inkscape:connector-curvature="0" sodipodi:nodetypes="cccscsccc" class="st1" d="M153.6-256.6
		c0,0-1.6-2.7-3.8-5.8c-1.5-2.1-2.6-4.4-2.7-6.3c-0.1-2.2,1.1-4.5,3.2-4.6c2.1-0.1,3,1.7,3.3,3.2c0.4-1.5,1.2-3.3,3.3-3.2
		c2.1,0.1,3.3,2.3,3.2,4.6c-0.1,1.9-1.3,4.2-2.7,6.3C155.2-259.3,153.6-256.6,153.6-256.6z"/>
	<path id="path10120-6-5" inkscape:connector-curvature="0" sodipodi:nodetypes="cccscsccc" class="st1" d="M153.6-291
		c0,0-1.6-2.7-3.8-5.8c-1.5-2.1-2.6-4.4-2.7-6.3c-0.1-2.2,1.1-4.5,3.2-4.6c2.1-0.1,3,1.7,3.3,3.2c0.4-1.5,1.2-3.3,3.3-3.2
		c2.1,0.1,3.3,2.3,3.2,4.6c-0.1,1.9-1.3,4.2-2.7,6.3C155.2-293.7,153.6-291,153.6-291z"/>
	<path id="path10124-1-1" inkscape:connector-curvature="0" sodipodi:nodetypes="cccscsccc" class="st1" d="M117.7-256.6
		c0,0-1.6-2.7-3.8-5.8c-1.5-2.1-2.6-4.4-2.7-6.3c-0.1-2.2,1.1-4.5,3.2-4.6c2.1-0.1,3,1.7,3.3,3.2c0.4-1.5,1.2-3.3,3.3-3.2
		c2.1,0.1,3.3,2.3,3.2,4.6c-0.1,1.9-1.3,4.2-2.7,6.3C119.3-259.3,117.7-256.6,117.7-256.6z"/>
	<path id="path10134-7-3" inkscape:connector-curvature="0" sodipodi:nodetypes="cccscsccc" class="st1" d="M153.6-238.9
		c0,0-1.6,2.7-3.8,5.8c-1.5,2.1-2.6,4.4-2.7,6.3c-0.1,2.2,1.1,4.5,3.2,4.6c2.1,0.1,3-1.7,3.3-3.2c0.4,1.5,1.2,3.3,3.3,3.2
		c2.1-0.1,3.3-2.3,3.2-4.6c-0.1-1.9-1.3-4.2-2.7-6.3C155.2-236.2,153.6-238.9,153.6-238.9z"/>
	<path id="path10136-5-7" inkscape:connector-curvature="0" sodipodi:nodetypes="cccscsccc" class="st1" d="M117.7-238.9
		c0,0-1.6,2.7-3.8,5.8c-1.5,2.1-2.6,4.4-2.7,6.3c-0.1,2.2,1.1,4.5,3.2,4.6c2.1,0.1,3-1.7,3.3-3.2c0.4,1.5,1.2,3.3,3.3,3.2
		c2.1-0.1,3.3-2.3,3.2-4.6c-0.1-1.9-1.3-4.2-2.7-6.3C119.3-236.2,117.7-238.9,117.7-238.9z"/>
	<path id="path25-43-2-3-9" inkscape:connector-curvature="0" class="st1" d="M101.1-302.8c0.8-4,1.6-7,3.7-10.2h-4.3v1.4h-1.1
		v-2.6h6.3l0.8,1.2c-2.2,2.4-4.3,10.3-3.9,10.2H101.1z"/>
	<path id="path25-7-0-2-8-2" inkscape:connector-curvature="0" class="st1" d="M170.1-227.1c-0.8,4-1.6,7-3.7,10.2h4.3v-1.4h1.1
		v2.6h-6.3l-0.8-1.2c2.2-2.4,4.3-10.3,3.9-10.2L170.1-227.1L170.1-227.1z"/>
</g>
</svg>
