<!-- Generator: Adobe Illustrator 19.2.0, SVG Export Plug-In  -->
<svg version="1.1"
	 xmlns="http://www.w3.org/2000/svg" xmlns:xlink="http://www.w3.org/1999/xlink" xmlns:a="http://ns.adobe.com/AdobeSVGViewerExtensions/3.0/"
	 x="0px" y="0px" width="78.1px" height="108.8px" viewBox="0 0 78.1 108.8" style="enable-background:new 0 0 78.1 108.8;"
	 xml:space="preserve">
<style type="text/css">
	.st0{fill:#FFFFFF;stroke:#010101;stroke-width:1.0006;}
	.st1{fill:#D31F26;}
</style>
<defs>
</defs>
<g id="H8" transform="matrix(0.99553774,0,0,0.99680134,-117.30742,318.48631)">
	<g id="g10140-6-7" transform="translate(2179.8759,-1434.2756)" inkscape:label="5D">
		<path id="rect10142-4-2" class="st0" d="M-2057.8,1115.3h70c2,0,3.7,1.7,3.7,3.7v100.7c0,2-1.7,3.7-3.7,3.7h-70
			c-2,0-3.7-1.7-3.7-3.7V1119C-2061.5,1116.9-2059.9,1115.3-2057.8,1115.3z"/>
	</g>
	<g id="g10160-2-4" transform="translate(2440.3089,-1064)">
	</g>
	<g id="g10166-2-7" transform="translate(2466.9005,-1083.9055)">
	</g>
	<path id="path10174-9-0" inkscape:connector-curvature="0" sodipodi:nodetypes="cccscsccc" class="st1" d="M124.3-294.7
		c0,0-0.8-1.1-1.8-2.4c-0.7-0.9-1.3-1.8-1.3-2.6c-0.1-0.9,0.5-1.9,1.5-1.9c1,0,1.4,0.7,1.6,1.3c0.2-0.6,0.6-1.4,1.6-1.3
		c1,0,1.6,1,1.5,1.9c-0.1,0.8-0.6,1.8-1.3,2.6C125.1-295.8,124.3-294.7,124.3-294.7z"/>
	<path id="path10176-9-9" inkscape:connector-curvature="0" class="st1" d="M189.8-235.1c0,0-0.8,1.1-1.8,2.4
		c-0.7,0.9-1.3,1.8-1.3,2.6c-0.1,0.9,0.5,1.9,1.5,1.9c1,0,1.4-0.7,1.6-1.3c0.2,0.6,0.6,1.4,1.6,1.3c1,0,1.6-1,1.5-1.9
		c-0.1-0.8-0.6-1.8-1.3-2.6C190.5-234,189.8-235.1,189.8-235.1z"/>
	<path id="path10178-8-4" inkscape:connector-curvature="0" sodipodi:nodetypes="cccscsccc" class="st1" d="M157-273.8
		c0,0-1.6-2.7-3.8-5.8c-1.5-2.1-2.6-4.4-2.7-6.3c-0.1-2.2,1.1-4.5,3.2-4.6c2.1-0.1,3,1.7,3.3,3.2c0.4-1.5,1.2-3.3,3.3-3.2
		c2.1,0.1,3.3,2.3,3.2,4.6c-0.1,1.9-1.3,4.2-2.7,6.3C158.7-276.5,157-273.8,157-273.8z"/>
	<path id="path10182-1-9" inkscape:connector-curvature="0" sodipodi:nodetypes="cccscsccc" class="st1" d="M139.1-291
		c0,0-1.6-2.7-3.8-5.8c-1.5-2.1-2.6-4.4-2.7-6.3c-0.1-2.2,1.1-4.5,3.2-4.6c2.1-0.1,3,1.7,3.3,3.2c0.4-1.5,1.2-3.3,3.3-3.2
		c2.1,0.1,3.3,2.3,3.2,4.6c-0.1,1.9-1.3,4.2-2.7,6.3C140.7-293.7,139.1-291,139.1-291z"/>
	<path id="path10184-9-1" inkscape:connector-curvature="0" sodipodi:nodetypes="cccscsccc" class="st1" d="M175-256.6
		c0,0-1.6-2.7-3.8-5.8c-1.5-2.1-2.6-4.4-2.7-6.3c-0.1-2.2,1.1-4.5,3.2-4.6c2.1-0.1,3,1.7,3.3,3.2c0.4-1.5,1.2-3.3,3.3-3.2
		c2.1,0.1,3.3,2.3,3.2,4.6c-0.1,1.9-1.3,4.2-2.7,6.3C176.6-259.3,175-256.6,175-256.6z"/>
	<path id="path10188-5-4" inkscape:connector-curvature="0" sodipodi:nodetypes="cccscsccc" class="st1" d="M175-291
		c0,0-1.6-2.7-3.8-5.8c-1.5-2.1-2.6-4.4-2.7-6.3c-0.1-2.2,1.1-4.5,3.2-4.6c2.1-0.1,3,1.7,3.3,3.2c0.4-1.5,1.2-3.3,3.3-3.2
		c2.1,0.1,3.3,2.3,3.2,4.6c-0.1,1.9-1.3,4.2-2.7,6.3C176.6-293.7,175-291,175-291z"/>
	<path id="path10192-3-6" inkscape:connector-curvature="0" sodipodi:nodetypes="cccscsccc" class="st1" d="M139.1-256.6
		c0,0-1.6-2.7-3.8-5.8c-1.5-2.1-2.6-4.4-2.7-6.3c-0.1-2.2,1.1-4.5,3.2-4.6c2.1-0.1,3,1.7,3.3,3.2c0.4-1.5,1.2-3.3,3.3-3.2
		c2.1,0.1,3.3,2.3,3.2,4.6c-0.1,1.9-1.3,4.2-2.7,6.3C140.7-259.3,139.1-256.6,139.1-256.6z"/>
	<path id="path10196-7-3" inkscape:connector-curvature="0" sodipodi:nodetypes="cccscsccc" class="st1" d="M157-256.1
		c0,0-1.6,2.7-3.8,5.8c-1.5,2.1-2.6,4.4-2.7,6.3c-0.1,2.2,1.1,4.5,3.2,4.6c2.1,0.1,3-1.7,3.3-3.2c0.4,1.5,1.2,3.3,3.4,3.2
		c2.1-0.1,3.3-2.3,3.2-4.6c-0.1-1.9-1.3-4.2-2.7-6.3C158.7-253.4,157-256.1,157-256.1L157-256.1z"/>
	<path id="path10202-2-8" inkscape:connector-curvature="0" sodipodi:nodetypes="cccscsccc" class="st1" d="M175-238.9
		c0,0-1.6,2.7-3.8,5.8c-1.5,2.1-2.6,4.4-2.7,6.3c-0.1,2.2,1.1,4.5,3.2,4.6c2.1,0.1,3-1.7,3.3-3.2c0.4,1.5,1.2,3.3,3.3,3.2
		c2.1-0.1,3.3-2.3,3.2-4.6c-0.1-1.9-1.3-4.2-2.7-6.3C176.6-236.2,175-238.9,175-238.9z"/>
	<path id="path10204-9-4" inkscape:connector-curvature="0" sodipodi:nodetypes="cccscsccc" class="st1" d="M139.1-238.9
		c0,0-1.6,2.7-3.8,5.8c-1.5,2.1-2.6,4.4-2.7,6.3c-0.1,2.2,1.1,4.5,3.2,4.6c2.1,0.1,3-1.7,3.3-3.2c0.4,1.5,1.2,3.3,3.3,3.2
		c2.1-0.1,3.3-2.3,3.2-4.6c-0.1-1.9-1.3-4.2-2.7-6.3C140.7-236.2,139.1-238.9,139.1-238.9z"/>
	<path id="path27-00-0-7-4" inkscape:connector-curvature="0" class="st1" d="M120.6-306.1c0.1-1.5,0.6-2.1,1.7-2.9
		c-0.9-0.6-1.2-1.6-1.2-2.3c0.2-1.9,1.7-2.9,3.3-2.8c1.6,0,3,1.3,3.1,2.7c0.1,1.2-0.3,1.8-1.1,2.4c1,0.9,1.7,1.4,1.6,2.9
		c0,1.5-1.3,3.3-3.6,3.4S120.5-304.6,120.6-306.1L120.6-306.1L120.6-306.1z M126.9-306.1c0.1-1.4-1.1-2.3-2.5-2.3
		c-1.4,0-2.6,1.1-2.6,2.4c0,1.3,1.6,2.1,2.6,2.1C125.6-304,126.8-304.9,126.9-306.1L126.9-306.1L126.9-306.1z M126.4-311.1
		c0-1.2-1.1-2-2.2-2c-1,0-2,0.8-2,1.8c0,1.2,1.2,1.8,2.2,1.9C125.3-309.4,126.4-310.2,126.4-311.1L126.4-311.1L126.4-311.1z"/>
	<path id="path27-0-1-0-8-9" inkscape:connector-curvature="0" class="st1" d="M186.1-223.8c0.1,1.5,0.6,2.1,1.7,2.9
		c-0.9,0.6-1.2,1.6-1.2,2.3c0.2,1.9,1.7,2.9,3.3,2.8c1.6,0,3-1.3,3.1-2.7c0.1-1.2-0.3-1.8-1.1-2.4c1-0.9,1.7-1.4,1.6-2.9
		c0-1.5-1.3-3.3-3.6-3.4C187.7-227.2,186-225.3,186.1-223.8L186.1-223.8L186.1-223.8z M192.3-223.8c0.1,1.4-1.1,2.3-2.5,2.3
		c-1.4,0-2.6-1.1-2.6-2.4c0-1.3,1.6-2.1,2.6-2.1C191.1-225.9,192.2-225,192.3-223.8L192.3-223.8z M191.9-218.8c0,1.2-1.1,2-2.2,2
		c-1,0-2-0.8-2-1.8c0-1.2,1.2-1.8,2.2-1.9C190.8-220.5,191.9-219.7,191.9-218.8L191.9-218.8L191.9-218.8z"/>
</g>
</svg>
