<!-- Generator: Adobe Illustrator 19.2.0, SVG Export Plug-In  -->
<svg version="1.1"
	 xmlns="http://www.w3.org/2000/svg" xmlns:xlink="http://www.w3.org/1999/xlink" xmlns:a="http://ns.adobe.com/AdobeSVGViewerExtensions/3.0/"
	 x="0px" y="0px" width="78.1px" height="108.8px" viewBox="0 0 78.1 108.8" style="enable-background:new 0 0 78.1 108.8;"
	 xml:space="preserve">
<style type="text/css">
	.st0{fill:#FFFFFF;stroke:#010101;stroke-width:1.0006;}
	.st1{fill:#D31F26;}
</style>
<defs>
</defs>
<g id="H9" transform="matrix(0.99553774,0,0,0.99680134,-138.64975,318.48631)">
	<g id="g10208-4-1" transform="translate(2465.7221,-1434.2756)" inkscape:label="5D">
		<path id="rect10210-5-4" class="st0" d="M-2322.2,1115.3h70c2,0,3.7,1.7,3.7,3.7v100.7c0,2-1.7,3.7-3.7,3.7h-70
			c-2,0-3.7-1.7-3.7-3.7V1119C-2325.9,1116.9-2324.3,1115.3-2322.2,1115.3z"/>
	</g>
	<g id="g10228-2-6" transform="translate(2726.1551,-1064)">
	</g>
	<g id="g10234-4-4" transform="translate(2752.7467,-1083.9055)">
	</g>
	<path id="path10240-7-9" inkscape:connector-curvature="0" sodipodi:nodetypes="cccscsccc" class="st1" d="M160.5-268.1
		c0,0-1.6-2.7-3.8-5.8c-1.5-2.1-2.6-4.4-2.7-6.3c-0.1-2.2,1.1-4.5,3.2-4.6c2.1-0.1,3,1.7,3.3,3.2c0.4-1.5,1.2-3.3,3.3-3.2
		c2.1,0.1,3.3,2.3,3.2,4.6c-0.1,1.9-1.3,4.2-2.7,6.3C162.1-270.7,160.5-268.1,160.5-268.1z"/>
	<path id="path10242-3-8" inkscape:connector-curvature="0" class="st1" d="M145.7-294.7c0,0-0.8-1.1-1.8-2.4
		c-0.7-0.9-1.3-1.8-1.3-2.6c-0.1-0.9,0.5-1.9,1.5-1.9c1,0,1.4,0.7,1.6,1.3c0.2-0.6,0.6-1.4,1.6-1.3c1,0,1.6,1,1.5,1.9
		c-0.1,0.8-0.6,1.8-1.3,2.6C146.5-295.8,145.7-294.7,145.7-294.7z"/>
	<path id="path10244-4-5" inkscape:connector-curvature="0" sodipodi:nodetypes="cccscsccc" class="st1" d="M211.2-235.1
		c0,0-0.8,1.1-1.8,2.4c-0.7,0.9-1.3,1.8-1.3,2.6c-0.1,0.9,0.5,1.9,1.5,1.9c1,0,1.4-0.7,1.6-1.3c0.2,0.6,0.6,1.4,1.6,1.3
		c1,0,1.6-1,1.5-1.9c-0.1-0.8-0.6-1.8-1.3-2.6C212-234,211.2-235.1,211.2-235.1z"/>
	<path id="path10250-9-0" inkscape:connector-curvature="0" sodipodi:nodetypes="cccscsccc" class="st1" d="M160.5-291
		c0,0-1.6-2.7-3.8-5.8c-1.5-2.1-2.6-4.4-2.7-6.3c-0.1-2.2,1.1-4.5,3.2-4.6c2.1-0.1,3,1.7,3.3,3.2c0.4-1.5,1.2-3.3,3.3-3.2
		c2.1,0.1,3.3,2.3,3.2,4.6c-0.1,1.9-1.3,4.2-2.7,6.3C162.1-293.7,160.5-291,160.5-291z"/>
	<path id="path10254-7-3" inkscape:connector-curvature="0" sodipodi:nodetypes="cccscsccc" class="st1" d="M196.4-268.1
		c0,0-1.6-2.7-3.8-5.8c-1.5-2.1-2.6-4.4-2.7-6.3c-0.1-2.2,1.1-4.5,3.2-4.6c2.1-0.1,3,1.7,3.3,3.2c0.4-1.5,1.2-3.3,3.3-3.2
		c2.1,0.1,3.3,2.3,3.2,4.6c-0.1,1.9-1.3,4.2-2.7,6.3C198-270.7,196.4-268.1,196.4-268.1z"/>
	<path id="path10256-4-7" inkscape:connector-curvature="0" sodipodi:nodetypes="cccscsccc" class="st1" d="M196.4-291
		c0,0-1.6-2.7-3.8-5.8c-1.5-2.1-2.6-4.4-2.7-6.3c-0.1-2.2,1.1-4.5,3.2-4.6c2.1-0.1,3,1.7,3.3,3.2c0.4-1.5,1.2-3.3,3.3-3.2
		c2.1,0.1,3.3,2.3,3.2,4.6c-0.1,1.9-1.3,4.2-2.7,6.3C198-293.7,196.4-291,196.4-291z"/>
	<path id="path10258-5-9" inkscape:connector-curvature="0" sodipodi:nodetypes="cccscsccc" class="st1" d="M178.5-256.6
		c0,0-1.6-2.7-3.8-5.8c-1.5-2.1-2.6-4.4-2.7-6.3c-0.1-2.2,1.1-4.5,3.2-4.6c2.1-0.1,3,1.7,3.3,3.2c0.4-1.5,1.2-3.3,3.3-3.2
		c2.1,0.1,3.3,2.3,3.2,4.6c-0.1,1.9-1.3,4.2-2.7,6.3C180.1-259.3,178.5-256.6,178.5-256.6z"/>
	<path id="path10266-8-9" inkscape:connector-curvature="0" sodipodi:nodetypes="cccscsccc" class="st1" d="M196.4-261.8
		c0,0-1.6,2.7-3.8,5.8c-1.5,2.1-2.6,4.4-2.7,6.3c-0.1,2.2,1.1,4.5,3.2,4.6c2.1,0.1,3-1.7,3.3-3.2c0.4,1.5,1.2,3.3,3.3,3.2
		c2.1-0.1,3.3-2.3,3.2-4.6c-0.1-1.9-1.3-4.2-2.7-6.3C198-259.1,196.4-261.8,196.4-261.8z"/>
	<path id="path10268-2-7" inkscape:connector-curvature="0" sodipodi:nodetypes="cccscsccc" class="st1" d="M160.5-261.8
		c0,0-1.6,2.7-3.8,5.8c-1.5,2.1-2.6,4.4-2.7,6.3c-0.1,2.2,1.1,4.5,3.2,4.6c2.1,0.1,3-1.7,3.3-3.2c0.4,1.5,1.2,3.3,3.3,3.2
		c2.1-0.1,3.3-2.3,3.2-4.6c-0.1-1.9-1.3-4.2-2.7-6.3C162.1-259.1,160.5-261.8,160.5-261.8z"/>
	<path id="path10270-1-4" inkscape:connector-curvature="0" sodipodi:nodetypes="cccscsccc" class="st1" d="M196.4-238.9
		c0,0-1.6,2.7-3.8,5.8c-1.5,2.1-2.6,4.4-2.7,6.3c-0.1,2.2,1.1,4.5,3.2,4.6c2.1,0.1,3-1.7,3.3-3.2c0.4,1.5,1.2,3.3,3.3,3.2
		c2.1-0.1,3.3-2.3,3.2-4.6c-0.1-1.9-1.3-4.2-2.7-6.3C198-236.2,196.4-238.9,196.4-238.9z"/>
	<path id="path10272-0-7" inkscape:connector-curvature="0" sodipodi:nodetypes="cccscsccc" class="st1" d="M160.5-238.9
		c0,0-1.6,2.7-3.8,5.8c-1.5,2.1-2.6,4.4-2.7,6.3c-0.1,2.2,1.1,4.5,3.2,4.6c2.1,0.1,3-1.7,3.3-3.2c0.4,1.5,1.2,3.3,3.3,3.2
		c2.1-0.1,3.3-2.3,3.2-4.6c-0.1-1.9-1.3-4.2-2.7-6.3C162.1-236.2,160.5-238.9,160.5-238.9z"/>
	<path id="path29-5-8-5-4" inkscape:connector-curvature="0" class="st1" d="M142.5-305l1-0.3c0.4,1.1,1.2,1.4,2,1.3
		c1.5-0.1,2-1.8,2.1-3.3c-0.6,0.6-1.5,0.9-2.2,0.9c-2.4-0.1-3-2.1-3.1-4.1c-0.1-1.7,0.6-2.9,1.8-3.5c0.6-0.3,2.1-0.3,2.8,0.1
		c1.5,0.8,2,2.1,1.9,5.4c0,2.7-0.6,5.7-3.4,5.8C144-302.6,142.7-303.8,142.5-305L142.5-305L142.5-305z M146.7-307.9
		c0.5-0.3,0.8-0.6,1-1c0.2-0.4,0.2-0.5,0.2-1.3c-0.1-1.9-1.1-3-2.6-2.8c-0.8,0.1-1.3,0.6-1.5,1.4c-0.5,1.6,0.1,3.4,1.2,3.8
		C145.5-307.6,146.3-307.6,146.7-307.9L146.7-307.9L146.7-307.9z"/>
	<path id="path29-6-2-3-6-6" inkscape:connector-curvature="0" class="st1" d="M214.4-224.9l-1,0.3c-0.4-1.1-1.2-1.4-2-1.3
		c-1.5,0.1-2,1.8-2.1,3.3c0.6-0.6,1.5-0.9,2.2-0.9c2.4,0.1,3,2.1,3.1,4.1c0.1,1.7-0.6,2.9-1.8,3.5c-0.6,0.3-2.1,0.3-2.8-0.1
		c-1.5-0.8-2-2.1-1.9-5.4c0-2.7,0.6-5.7,3.4-5.8C213-227.3,214.2-226,214.4-224.9L214.4-224.9L214.4-224.9z M210.3-222
		c-0.5,0.3-0.8,0.6-1,1c-0.2,0.4-0.2,0.5-0.2,1.3c0.1,1.9,1.1,3,2.6,2.8c0.8-0.1,1.3-0.6,1.5-1.4c0.5-1.6-0.1-3.4-1.2-3.8
		C211.5-222.3,210.7-222.3,210.3-222L210.3-222L210.3-222z"/>
</g>
</svg>
